%TF.GenerationSoftware,KiCad,Pcbnew,8.0.8-8.0.8-0~ubuntu22.04.1*%
%TF.CreationDate,2025-03-19T13:25:06-04:00*%
%TF.ProjectId,hpk_5mm,68706b5f-356d-46d2-9e6b-696361645f70,rev?*%
%TF.SameCoordinates,Original*%
%TF.FileFunction,Paste,Top*%
%TF.FilePolarity,Positive*%
%FSLAX46Y46*%
G04 Gerber Fmt 4.6, Leading zero omitted, Abs format (unit mm)*
G04 Created by KiCad (PCBNEW 8.0.8-8.0.8-0~ubuntu22.04.1) date 2025-03-19 13:25:06*
%MOMM*%
%LPD*%
G01*
G04 APERTURE LIST*
G04 Aperture macros list*
%AMRoundRect*
0 Rectangle with rounded corners*
0 $1 Rounding radius*
0 $2 $3 $4 $5 $6 $7 $8 $9 X,Y pos of 4 corners*
0 Add a 4 corners polygon primitive as box body*
4,1,4,$2,$3,$4,$5,$6,$7,$8,$9,$2,$3,0*
0 Add four circle primitives for the rounded corners*
1,1,$1+$1,$2,$3*
1,1,$1+$1,$4,$5*
1,1,$1+$1,$6,$7*
1,1,$1+$1,$8,$9*
0 Add four rect primitives between the rounded corners*
20,1,$1+$1,$2,$3,$4,$5,0*
20,1,$1+$1,$4,$5,$6,$7,0*
20,1,$1+$1,$6,$7,$8,$9,0*
20,1,$1+$1,$8,$9,$2,$3,0*%
G04 Aperture macros list end*
%ADD10RoundRect,0.135000X-0.185000X0.135000X-0.185000X-0.135000X0.185000X-0.135000X0.185000X0.135000X0*%
%ADD11RoundRect,0.140000X0.140000X0.170000X-0.140000X0.170000X-0.140000X-0.170000X0.140000X-0.170000X0*%
%ADD12RoundRect,0.140000X-0.140000X-0.170000X0.140000X-0.170000X0.140000X0.170000X-0.140000X0.170000X0*%
%ADD13RoundRect,0.150000X-0.512500X-0.150000X0.512500X-0.150000X0.512500X0.150000X-0.512500X0.150000X0*%
%ADD14RoundRect,0.135000X0.135000X0.185000X-0.135000X0.185000X-0.135000X-0.185000X0.135000X-0.185000X0*%
%ADD15RoundRect,0.135000X-0.135000X-0.185000X0.135000X-0.185000X0.135000X0.185000X-0.135000X0.185000X0*%
G04 APERTURE END LIST*
D10*
%TO.C,R12*%
X143700000Y-80790000D03*
X143700000Y-81810000D03*
%TD*%
D11*
%TO.C,C2*%
X139458200Y-64048000D03*
X138498200Y-64048000D03*
%TD*%
D10*
%TO.C,R8*%
X152241600Y-66023900D03*
X152241600Y-67043900D03*
%TD*%
D12*
%TO.C,C4*%
X136418200Y-64048000D03*
X137378200Y-64048000D03*
%TD*%
D13*
%TO.C,U2*%
X153904100Y-65583900D03*
X153904100Y-66533900D03*
X153904100Y-67483900D03*
X156179100Y-67483900D03*
X156179100Y-65583900D03*
%TD*%
%TO.C,U3*%
X145362500Y-80350000D03*
X145362500Y-81300000D03*
X145362500Y-82250000D03*
X147637500Y-82250000D03*
X147637500Y-80350000D03*
%TD*%
D14*
%TO.C,R3*%
X137508200Y-69048000D03*
X136488200Y-69048000D03*
%TD*%
D12*
%TO.C,C6*%
X155661600Y-64133900D03*
X156621600Y-64133900D03*
%TD*%
%TO.C,C8*%
X153461600Y-64133900D03*
X154421600Y-64133900D03*
%TD*%
%TO.C,C11*%
X147120000Y-83700000D03*
X148080000Y-83700000D03*
%TD*%
%TO.C,C10*%
X147220000Y-78900000D03*
X148180000Y-78900000D03*
%TD*%
D15*
%TO.C,R11*%
X144790000Y-83700000D03*
X145810000Y-83700000D03*
%TD*%
D12*
%TO.C,C3*%
X138638200Y-69048000D03*
X139598200Y-69048000D03*
%TD*%
D15*
%TO.C,R7*%
X153421600Y-68933900D03*
X154441600Y-68933900D03*
%TD*%
D12*
%TO.C,C7*%
X155681600Y-68933900D03*
X156641600Y-68933900D03*
%TD*%
%TO.C,C12*%
X144920000Y-78900000D03*
X145880000Y-78900000D03*
%TD*%
D10*
%TO.C,R4*%
X135198200Y-66038000D03*
X135198200Y-67058000D03*
%TD*%
D13*
%TO.C,U1*%
X136860700Y-65598000D03*
X136860700Y-66548000D03*
X136860700Y-67498000D03*
X139135700Y-67498000D03*
X139135700Y-65598000D03*
%TD*%
M02*
