%TF.GenerationSoftware,KiCad,Pcbnew,8.0.8-8.0.8-0~ubuntu22.04.1*%
%TF.CreationDate,2025-03-19T14:39:25-04:00*%
%TF.ProjectId,hpk_5mm,68706b5f-356d-46d2-9e6b-696361645f70,rev?*%
%TF.SameCoordinates,Original*%
%TF.FileFunction,Copper,L1,Top*%
%TF.FilePolarity,Positive*%
%FSLAX46Y46*%
G04 Gerber Fmt 4.6, Leading zero omitted, Abs format (unit mm)*
G04 Created by KiCad (PCBNEW 8.0.8-8.0.8-0~ubuntu22.04.1) date 2025-03-19 14:39:25*
%MOMM*%
%LPD*%
G01*
G04 APERTURE LIST*
G04 Aperture macros list*
%AMRoundRect*
0 Rectangle with rounded corners*
0 $1 Rounding radius*
0 $2 $3 $4 $5 $6 $7 $8 $9 X,Y pos of 4 corners*
0 Add a 4 corners polygon primitive as box body*
4,1,4,$2,$3,$4,$5,$6,$7,$8,$9,$2,$3,0*
0 Add four circle primitives for the rounded corners*
1,1,$1+$1,$2,$3*
1,1,$1+$1,$4,$5*
1,1,$1+$1,$6,$7*
1,1,$1+$1,$8,$9*
0 Add four rect primitives between the rounded corners*
20,1,$1+$1,$2,$3,$4,$5,0*
20,1,$1+$1,$4,$5,$6,$7,0*
20,1,$1+$1,$6,$7,$8,$9,0*
20,1,$1+$1,$8,$9,$2,$3,0*%
G04 Aperture macros list end*
%TA.AperFunction,SMDPad,CuDef*%
%ADD10RoundRect,0.135000X-0.185000X0.135000X-0.185000X-0.135000X0.185000X-0.135000X0.185000X0.135000X0*%
%TD*%
%TA.AperFunction,SMDPad,CuDef*%
%ADD11RoundRect,0.140000X0.140000X0.170000X-0.140000X0.170000X-0.140000X-0.170000X0.140000X-0.170000X0*%
%TD*%
%TA.AperFunction,SMDPad,CuDef*%
%ADD12RoundRect,0.140000X-0.140000X-0.170000X0.140000X-0.170000X0.140000X0.170000X-0.140000X0.170000X0*%
%TD*%
%TA.AperFunction,SMDPad,CuDef*%
%ADD13RoundRect,0.150000X-0.512500X-0.150000X0.512500X-0.150000X0.512500X0.150000X-0.512500X0.150000X0*%
%TD*%
%TA.AperFunction,SMDPad,CuDef*%
%ADD14RoundRect,0.135000X0.135000X0.185000X-0.135000X0.185000X-0.135000X-0.185000X0.135000X-0.185000X0*%
%TD*%
%TA.AperFunction,SMDPad,CuDef*%
%ADD15RoundRect,0.135000X-0.135000X-0.185000X0.135000X-0.185000X0.135000X0.185000X-0.135000X0.185000X0*%
%TD*%
%TA.AperFunction,ViaPad*%
%ADD16C,0.355600*%
%TD*%
%TA.AperFunction,Conductor*%
%ADD17C,0.101600*%
%TD*%
%TA.AperFunction,Conductor*%
%ADD18C,0.200000*%
%TD*%
G04 APERTURE END LIST*
D10*
%TO.P,R12,1*%
%TO.N,Net-(C11-Pad2)*%
X143700000Y-80790000D03*
%TO.P,R12,2*%
%TO.N,/sipm_tia3/VOUT*%
X143700000Y-81810000D03*
%TD*%
D11*
%TO.P,C2,1*%
%TO.N,/sipm_tia1/V+*%
X139458200Y-64048000D03*
%TO.P,C2,2*%
%TO.N,GND*%
X138498200Y-64048000D03*
%TD*%
D10*
%TO.P,R8,1*%
%TO.N,Net-(C7-Pad2)*%
X152241600Y-66023900D03*
%TO.P,R8,2*%
%TO.N,/sipm_tia2/VOUT*%
X152241600Y-67043900D03*
%TD*%
D12*
%TO.P,C4,1*%
%TO.N,/sipm_tia1/V-*%
X136418200Y-64048000D03*
%TO.P,C4,2*%
%TO.N,GND*%
X137378200Y-64048000D03*
%TD*%
D13*
%TO.P,U2,1*%
%TO.N,Net-(C7-Pad2)*%
X153904100Y-65583900D03*
%TO.P,U2,2,V-*%
%TO.N,/sipm_tia1/V-*%
X153904100Y-66533900D03*
%TO.P,U2,3,+*%
%TO.N,GND*%
X153904100Y-67483900D03*
%TO.P,U2,4,-*%
%TO.N,Net-(D2-A)*%
X156179100Y-67483900D03*
%TO.P,U2,5,V+*%
%TO.N,/sipm_tia1/V+*%
X156179100Y-65583900D03*
%TD*%
%TO.P,U3,1*%
%TO.N,Net-(C11-Pad2)*%
X145362500Y-80350000D03*
%TO.P,U3,2,V-*%
%TO.N,/sipm_tia1/V-*%
X145362500Y-81300000D03*
%TO.P,U3,3,+*%
%TO.N,GND*%
X145362500Y-82250000D03*
%TO.P,U3,4,-*%
%TO.N,Net-(D3-A)*%
X147637500Y-82250000D03*
%TO.P,U3,5,V+*%
%TO.N,/sipm_tia1/V+*%
X147637500Y-80350000D03*
%TD*%
D14*
%TO.P,R3,1*%
%TO.N,Net-(D1-A)*%
X137508200Y-69048000D03*
%TO.P,R3,2*%
%TO.N,Net-(C3-Pad2)*%
X136488200Y-69048000D03*
%TD*%
D12*
%TO.P,C6,1*%
%TO.N,/sipm_tia1/V+*%
X155661600Y-64133900D03*
%TO.P,C6,2*%
%TO.N,GND*%
X156621600Y-64133900D03*
%TD*%
%TO.P,C8,1*%
%TO.N,/sipm_tia1/V-*%
X153461600Y-64133900D03*
%TO.P,C8,2*%
%TO.N,GND*%
X154421600Y-64133900D03*
%TD*%
%TO.P,C11,1*%
%TO.N,Net-(D3-A)*%
X147120000Y-83700000D03*
%TO.P,C11,2*%
%TO.N,Net-(C11-Pad2)*%
X148080000Y-83700000D03*
%TD*%
%TO.P,C10,1*%
%TO.N,/sipm_tia1/V+*%
X147220000Y-78900000D03*
%TO.P,C10,2*%
%TO.N,GND*%
X148180000Y-78900000D03*
%TD*%
D15*
%TO.P,R11,1*%
%TO.N,Net-(D3-A)*%
X144790000Y-83700000D03*
%TO.P,R11,2*%
%TO.N,Net-(C11-Pad2)*%
X145810000Y-83700000D03*
%TD*%
D12*
%TO.P,C3,1*%
%TO.N,Net-(D1-A)*%
X138638200Y-69048000D03*
%TO.P,C3,2*%
%TO.N,Net-(C3-Pad2)*%
X139598200Y-69048000D03*
%TD*%
D15*
%TO.P,R7,1*%
%TO.N,Net-(D2-A)*%
X153421600Y-68933900D03*
%TO.P,R7,2*%
%TO.N,Net-(C7-Pad2)*%
X154441600Y-68933900D03*
%TD*%
D12*
%TO.P,C7,1*%
%TO.N,Net-(D2-A)*%
X155681600Y-68933900D03*
%TO.P,C7,2*%
%TO.N,Net-(C7-Pad2)*%
X156641600Y-68933900D03*
%TD*%
%TO.P,C12,1*%
%TO.N,/sipm_tia1/V-*%
X144920000Y-78900000D03*
%TO.P,C12,2*%
%TO.N,GND*%
X145880000Y-78900000D03*
%TD*%
D10*
%TO.P,R4,1*%
%TO.N,Net-(C3-Pad2)*%
X135198200Y-66038000D03*
%TO.P,R4,2*%
%TO.N,/sipm_tia1/VOUT*%
X135198200Y-67058000D03*
%TD*%
D13*
%TO.P,U1,1*%
%TO.N,Net-(C3-Pad2)*%
X136860700Y-65598000D03*
%TO.P,U1,2,V-*%
%TO.N,/sipm_tia1/V-*%
X136860700Y-66548000D03*
%TO.P,U1,3,+*%
%TO.N,GND*%
X136860700Y-67498000D03*
%TO.P,U1,4,-*%
%TO.N,Net-(D1-A)*%
X139135700Y-67498000D03*
%TO.P,U1,5,V+*%
%TO.N,/sipm_tia1/V+*%
X139135700Y-65598000D03*
%TD*%
D16*
%TO.N,/sipm_tia1/V+*%
X140111200Y-64112000D03*
%TD*%
D17*
%TO.N,Net-(D1-A)*%
X138284800Y-69824600D02*
X138480800Y-69824600D01*
X138480800Y-69824600D02*
X139242800Y-69824600D01*
X139242800Y-69824600D02*
X139598400Y-70180200D01*
X137508200Y-69048000D02*
X138284800Y-69824600D01*
D18*
%TO.N,/sipm_tia1/V+*%
X139458200Y-64048000D02*
X140047200Y-64048000D01*
X140047200Y-64048000D02*
X140111200Y-64112000D01*
%TD*%
%TA.AperFunction,Conductor*%
%TO.N,/sipm_tia1/VBIAS*%
G36*
X146509796Y-84321449D02*
G01*
X146554145Y-84349950D01*
X146584307Y-84380112D01*
X146584311Y-84380115D01*
X146584313Y-84380117D01*
X146723605Y-84462494D01*
X146764587Y-84474400D01*
X146879002Y-84507642D01*
X146879005Y-84507642D01*
X146879007Y-84507643D01*
X146915310Y-84510500D01*
X146915318Y-84510500D01*
X147324682Y-84510500D01*
X147324690Y-84510500D01*
X147360993Y-84507643D01*
X147360995Y-84507642D01*
X147360997Y-84507642D01*
X147414898Y-84491982D01*
X147516395Y-84462494D01*
X147536879Y-84450379D01*
X147604601Y-84433196D01*
X147663119Y-84450379D01*
X147683605Y-84462494D01*
X147786092Y-84492269D01*
X147844976Y-84529875D01*
X147874183Y-84593347D01*
X147875435Y-84615231D01*
X147875084Y-84626401D01*
X147875997Y-84631068D01*
X147878300Y-84654856D01*
X147878300Y-105996700D01*
X147858615Y-106063739D01*
X147805811Y-106109494D01*
X147754300Y-106120700D01*
X145257300Y-106120700D01*
X145190261Y-106101015D01*
X145144506Y-106048211D01*
X145133300Y-105996700D01*
X145133300Y-84654856D01*
X145135603Y-84631068D01*
X145136515Y-84626404D01*
X145136513Y-84626399D01*
X145136380Y-84622124D01*
X145135737Y-84617119D01*
X145135684Y-84617130D01*
X145131754Y-84597378D01*
X145137978Y-84527786D01*
X145180838Y-84472606D01*
X145190236Y-84466455D01*
X145236881Y-84438870D01*
X145304603Y-84421688D01*
X145363117Y-84438869D01*
X145420607Y-84472869D01*
X145420610Y-84472869D01*
X145420612Y-84472871D01*
X145574791Y-84517664D01*
X145574794Y-84517664D01*
X145574796Y-84517665D01*
X145610819Y-84520500D01*
X146009180Y-84520499D01*
X146045204Y-84517665D01*
X146199393Y-84472869D01*
X146337598Y-84391135D01*
X146378782Y-84349951D01*
X146440105Y-84316465D01*
X146509796Y-84321449D01*
G37*
%TD.AperFunction*%
%TA.AperFunction,Conductor*%
G36*
X149165703Y-78868911D02*
G01*
X149179865Y-78883369D01*
X149245723Y-78962624D01*
X149360007Y-79100158D01*
X149367430Y-79110057D01*
X149559866Y-79395293D01*
X149566265Y-79405882D01*
X149729312Y-79708865D01*
X149734625Y-79720039D01*
X149866673Y-80037781D01*
X149870845Y-80049429D01*
X149970568Y-80378734D01*
X149973559Y-80390740D01*
X150039969Y-80728355D01*
X150041748Y-80740600D01*
X150074181Y-81083144D01*
X150074731Y-81095504D01*
X150072866Y-81439572D01*
X150072182Y-81451926D01*
X150036037Y-81794104D01*
X150034125Y-81806329D01*
X149964059Y-82143199D01*
X149960938Y-82155171D01*
X149857653Y-82483377D01*
X149853355Y-82494979D01*
X149717874Y-82811263D01*
X149712441Y-82822379D01*
X149546113Y-83123588D01*
X149539599Y-83134107D01*
X149344084Y-83417238D01*
X149336554Y-83427056D01*
X149113798Y-83689291D01*
X149105328Y-83698309D01*
X149070536Y-83731831D01*
X149008601Y-83764170D01*
X148939014Y-83757891D01*
X148883869Y-83714987D01*
X148860673Y-83649081D01*
X148860500Y-83642535D01*
X148860500Y-83465317D01*
X148860499Y-83465302D01*
X148859359Y-83450819D01*
X148857643Y-83429007D01*
X148857076Y-83427056D01*
X148812495Y-83273609D01*
X148812494Y-83273606D01*
X148812494Y-83273605D01*
X148730117Y-83134313D01*
X148730115Y-83134311D01*
X148730112Y-83134307D01*
X148620556Y-83024751D01*
X148587071Y-82963428D01*
X148592055Y-82893736D01*
X148620553Y-82849392D01*
X148668081Y-82801865D01*
X148751744Y-82660398D01*
X148797598Y-82502569D01*
X148800500Y-82465694D01*
X148800500Y-82034306D01*
X148797598Y-81997431D01*
X148751744Y-81839602D01*
X148668081Y-81698135D01*
X148668079Y-81698133D01*
X148668076Y-81698129D01*
X148551870Y-81581923D01*
X148551862Y-81581917D01*
X148410396Y-81498255D01*
X148410393Y-81498254D01*
X148252573Y-81452402D01*
X148252567Y-81452401D01*
X148215701Y-81449500D01*
X148215694Y-81449500D01*
X147059306Y-81449500D01*
X147059298Y-81449500D01*
X147022432Y-81452401D01*
X147022426Y-81452402D01*
X146864606Y-81498254D01*
X146864603Y-81498255D01*
X146716420Y-81585890D01*
X146715345Y-81584073D01*
X146660448Y-81605620D01*
X146591932Y-81591931D01*
X146541694Y-81543373D01*
X146525500Y-81482104D01*
X146525500Y-81117895D01*
X146545185Y-81050856D01*
X146597989Y-81005101D01*
X146667147Y-80995157D01*
X146715496Y-81015671D01*
X146716420Y-81014110D01*
X146757034Y-81038128D01*
X146864602Y-81101744D01*
X146906224Y-81113836D01*
X147022426Y-81147597D01*
X147022429Y-81147597D01*
X147022431Y-81147598D01*
X147059306Y-81150500D01*
X147059314Y-81150500D01*
X148215686Y-81150500D01*
X148215694Y-81150500D01*
X148252569Y-81147598D01*
X148252571Y-81147597D01*
X148252573Y-81147597D01*
X148354806Y-81117895D01*
X148410398Y-81101744D01*
X148551865Y-81018081D01*
X148668081Y-80901865D01*
X148751744Y-80760398D01*
X148797598Y-80602569D01*
X148800500Y-80565694D01*
X148800500Y-80134306D01*
X148797598Y-80097431D01*
X148781534Y-80042140D01*
X148751745Y-79939606D01*
X148751744Y-79939603D01*
X148751744Y-79939602D01*
X148668081Y-79798135D01*
X148668079Y-79798133D01*
X148668076Y-79798129D01*
X148661813Y-79791866D01*
X148628328Y-79730543D01*
X148633312Y-79660851D01*
X148675184Y-79604918D01*
X148686365Y-79597457D01*
X148715687Y-79580117D01*
X148830117Y-79465687D01*
X148912494Y-79326395D01*
X148957643Y-79170993D01*
X148960500Y-79134690D01*
X148960500Y-78962624D01*
X148980185Y-78895585D01*
X149032989Y-78849830D01*
X149102147Y-78839886D01*
X149165703Y-78868911D01*
G37*
%TD.AperFunction*%
%TA.AperFunction,Conductor*%
G36*
X144156407Y-82548423D02*
G01*
X144215077Y-82586365D01*
X144240209Y-82632703D01*
X144248255Y-82660396D01*
X144331919Y-82801866D01*
X144333925Y-82804452D01*
X144334865Y-82806847D01*
X144335890Y-82808580D01*
X144335610Y-82808745D01*
X144359459Y-82869490D01*
X144345777Y-82938007D01*
X144299066Y-82987182D01*
X144262402Y-83008865D01*
X144262396Y-83008869D01*
X144148869Y-83122396D01*
X144148863Y-83122404D01*
X144067131Y-83260606D01*
X144067129Y-83260611D01*
X144022335Y-83414791D01*
X144022334Y-83414797D01*
X144019500Y-83450811D01*
X144019500Y-83495048D01*
X143999815Y-83562087D01*
X143947011Y-83607842D01*
X143877853Y-83617786D01*
X143814297Y-83588761D01*
X143800994Y-83575326D01*
X143675049Y-83427059D01*
X143667519Y-83417242D01*
X143471998Y-83134103D01*
X143465486Y-83123588D01*
X143299150Y-82822363D01*
X143293732Y-82811279D01*
X143265492Y-82745352D01*
X143257190Y-82675982D01*
X143287712Y-82613132D01*
X143347369Y-82576760D01*
X143408407Y-82577395D01*
X143408566Y-82576527D01*
X143413615Y-82577449D01*
X143414068Y-82577454D01*
X143414791Y-82577664D01*
X143414794Y-82577664D01*
X143414796Y-82577665D01*
X143450819Y-82580500D01*
X143949180Y-82580499D01*
X143985204Y-82577665D01*
X144086540Y-82548224D01*
X144156407Y-82548423D01*
G37*
%TD.AperFunction*%
%TA.AperFunction,Conductor*%
G36*
X144059735Y-78751041D02*
G01*
X144115342Y-78793346D01*
X144139249Y-78858998D01*
X144139500Y-78866883D01*
X144139500Y-79134697D01*
X144142356Y-79170991D01*
X144142357Y-79170997D01*
X144187504Y-79326390D01*
X144187505Y-79326393D01*
X144269881Y-79465684D01*
X144269887Y-79465692D01*
X144379443Y-79575248D01*
X144412928Y-79636571D01*
X144407944Y-79706263D01*
X144379443Y-79750610D01*
X144331923Y-79798129D01*
X144331917Y-79798137D01*
X144248255Y-79939603D01*
X144248253Y-79939606D01*
X144240210Y-79967294D01*
X144202604Y-80026180D01*
X144139131Y-80055386D01*
X144086539Y-80051775D01*
X143985208Y-80022335D01*
X143985202Y-80022334D01*
X143949181Y-80019500D01*
X143450830Y-80019500D01*
X143450808Y-80019501D01*
X143414796Y-80022335D01*
X143363515Y-80037233D01*
X143293646Y-80037032D01*
X143234977Y-79999090D01*
X143206134Y-79935451D01*
X143214417Y-79870569D01*
X143276975Y-79720039D01*
X143282281Y-79708877D01*
X143445342Y-79405868D01*
X143451724Y-79395307D01*
X143644175Y-79110048D01*
X143651585Y-79100166D01*
X143871513Y-78835497D01*
X143879849Y-78826427D01*
X143928504Y-78778522D01*
X143990084Y-78745516D01*
X144059735Y-78751041D01*
G37*
%TD.AperFunction*%
%TA.AperFunction,Conductor*%
G36*
X152748556Y-69474056D02*
G01*
X152778632Y-69508400D01*
X152780461Y-69511492D01*
X152780469Y-69511503D01*
X152893996Y-69625030D01*
X152894000Y-69625033D01*
X152894002Y-69625035D01*
X153032207Y-69706769D01*
X153072868Y-69718582D01*
X153186391Y-69751564D01*
X153186394Y-69751564D01*
X153186396Y-69751565D01*
X153222419Y-69754400D01*
X153620780Y-69754399D01*
X153638196Y-69753028D01*
X153706570Y-69767392D01*
X153756327Y-69816442D01*
X153771667Y-69884607D01*
X153754035Y-69940804D01*
X153753486Y-69941712D01*
X153749288Y-69947449D01*
X153734580Y-69972922D01*
X153733307Y-69975077D01*
X153715279Y-70004891D01*
X153712342Y-70011440D01*
X148959652Y-78243100D01*
X148909085Y-78291315D01*
X148840477Y-78304537D01*
X148775613Y-78278569D01*
X148764585Y-78268780D01*
X148715692Y-78219887D01*
X148715684Y-78219881D01*
X148625930Y-78166801D01*
X148576395Y-78137506D01*
X148576394Y-78137505D01*
X148576393Y-78137505D01*
X148576390Y-78137504D01*
X148420997Y-78092357D01*
X148420991Y-78092356D01*
X148384697Y-78089500D01*
X148384690Y-78089500D01*
X147975310Y-78089500D01*
X147975302Y-78089500D01*
X147939008Y-78092356D01*
X147939002Y-78092357D01*
X147783608Y-78137504D01*
X147783602Y-78137506D01*
X147763120Y-78149620D01*
X147695396Y-78166801D01*
X147636880Y-78149620D01*
X147616397Y-78137506D01*
X147616391Y-78137504D01*
X147460997Y-78092357D01*
X147460991Y-78092356D01*
X147424697Y-78089500D01*
X147424690Y-78089500D01*
X147015310Y-78089500D01*
X147015302Y-78089500D01*
X146979008Y-78092356D01*
X146979002Y-78092357D01*
X146823609Y-78137504D01*
X146823606Y-78137505D01*
X146684315Y-78219881D01*
X146684307Y-78219887D01*
X146637681Y-78266514D01*
X146576358Y-78299999D01*
X146506666Y-78295015D01*
X146462319Y-78266514D01*
X146415692Y-78219887D01*
X146415684Y-78219881D01*
X146325930Y-78166801D01*
X146276395Y-78137506D01*
X146276394Y-78137505D01*
X146276393Y-78137505D01*
X146276390Y-78137504D01*
X146120997Y-78092357D01*
X146120991Y-78092356D01*
X146084697Y-78089500D01*
X146084690Y-78089500D01*
X145675310Y-78089500D01*
X145675302Y-78089500D01*
X145639008Y-78092356D01*
X145639002Y-78092357D01*
X145483608Y-78137504D01*
X145483602Y-78137506D01*
X145463120Y-78149620D01*
X145395396Y-78166801D01*
X145336880Y-78149620D01*
X145316397Y-78137506D01*
X145316391Y-78137504D01*
X145160997Y-78092357D01*
X145160991Y-78092356D01*
X145124697Y-78089500D01*
X145124690Y-78089500D01*
X144715310Y-78089500D01*
X144715302Y-78089500D01*
X144679008Y-78092356D01*
X144679002Y-78092357D01*
X144523609Y-78137504D01*
X144523606Y-78137505D01*
X144384315Y-78219881D01*
X144384311Y-78219884D01*
X144279371Y-78324824D01*
X144218048Y-78358308D01*
X144148356Y-78353324D01*
X144092423Y-78311452D01*
X144084308Y-78299149D01*
X139784778Y-70852363D01*
X139768305Y-70784464D01*
X139791157Y-70718437D01*
X139830161Y-70682979D01*
X139936906Y-70621350D01*
X140039550Y-70518706D01*
X140112130Y-70392994D01*
X140149700Y-70252780D01*
X140149700Y-70107619D01*
X140112130Y-69967406D01*
X140076032Y-69904883D01*
X140059560Y-69836985D01*
X140082412Y-69770958D01*
X140120298Y-69736153D01*
X140133887Y-69728117D01*
X140248317Y-69613687D01*
X140271306Y-69574813D01*
X140322374Y-69527131D01*
X140391116Y-69514627D01*
X140455705Y-69541272D01*
X140485423Y-69575933D01*
X141029751Y-70518708D01*
X145212294Y-77762874D01*
X145215235Y-77769433D01*
X145233263Y-77799245D01*
X145234539Y-77801405D01*
X145247868Y-77824489D01*
X145249639Y-77826322D01*
X145265963Y-77836973D01*
X145273689Y-77842445D01*
X145286186Y-77852034D01*
X145286190Y-77852035D01*
X145291209Y-77854510D01*
X145296024Y-77857255D01*
X145298377Y-77858123D01*
X145298379Y-77858123D01*
X145298382Y-77858125D01*
X145310706Y-77859727D01*
X145326795Y-77862914D01*
X145335180Y-77865161D01*
X145335184Y-77865160D01*
X145347369Y-77865959D01*
X145347357Y-77866131D01*
X145350866Y-77866128D01*
X145356093Y-77865629D01*
X145356099Y-77865630D01*
X145361149Y-77863958D01*
X145383911Y-77858745D01*
X145385469Y-77858540D01*
X145385470Y-77858539D01*
X145385473Y-77858539D01*
X145394848Y-77855356D01*
X145409028Y-77849382D01*
X145692134Y-77769856D01*
X145703131Y-77767301D01*
X146012589Y-77710168D01*
X146023787Y-77708624D01*
X146337164Y-77679937D01*
X146348468Y-77679422D01*
X146663133Y-77679422D01*
X146674436Y-77679937D01*
X146987809Y-77708624D01*
X146999012Y-77710168D01*
X147308464Y-77767300D01*
X147319469Y-77769857D01*
X147602578Y-77849384D01*
X147616760Y-77855359D01*
X147626126Y-77858538D01*
X147626131Y-77858541D01*
X147627695Y-77858747D01*
X147650452Y-77863961D01*
X147655500Y-77865631D01*
X147660728Y-77866129D01*
X147664243Y-77866132D01*
X147664232Y-77865960D01*
X147676414Y-77865161D01*
X147676420Y-77865162D01*
X147684808Y-77862914D01*
X147700900Y-77859727D01*
X147713218Y-77858126D01*
X147713221Y-77858123D01*
X147715585Y-77857251D01*
X147720399Y-77854507D01*
X147725409Y-77852036D01*
X147725414Y-77852035D01*
X147737916Y-77842441D01*
X147745617Y-77836986D01*
X147761962Y-77826322D01*
X147761964Y-77826318D01*
X147761965Y-77826318D01*
X147763730Y-77824491D01*
X147765653Y-77821160D01*
X147765656Y-77821158D01*
X147777145Y-77801258D01*
X147778261Y-77799368D01*
X147792080Y-77776519D01*
X147792080Y-77776516D01*
X147796376Y-77769413D01*
X147799314Y-77762860D01*
X147830628Y-77708624D01*
X152564519Y-69509522D01*
X152615084Y-69461310D01*
X152683691Y-69448088D01*
X152748556Y-69474056D01*
G37*
%TD.AperFunction*%
%TA.AperFunction,Conductor*%
G36*
X155106393Y-69590346D02*
G01*
X155138420Y-69610944D01*
X155139747Y-69609234D01*
X155145910Y-69614014D01*
X155145913Y-69614017D01*
X155285205Y-69696394D01*
X155320912Y-69706768D01*
X155440602Y-69741542D01*
X155440605Y-69741542D01*
X155440607Y-69741543D01*
X155476910Y-69744400D01*
X155476918Y-69744400D01*
X155835625Y-69744400D01*
X155902664Y-69764085D01*
X155948419Y-69816889D01*
X155958363Y-69886047D01*
X155929338Y-69949603D01*
X155870560Y-69987377D01*
X155866026Y-69988615D01*
X155756388Y-70016307D01*
X155707269Y-70028713D01*
X155694739Y-70031199D01*
X155343160Y-70082298D01*
X155330440Y-70083481D01*
X154975492Y-70098135D01*
X154962718Y-70098004D01*
X154608134Y-70076060D01*
X154595441Y-70074615D01*
X154275752Y-70021423D01*
X154245000Y-70016306D01*
X154232527Y-70013564D01*
X154164103Y-69994778D01*
X154104668Y-69958048D01*
X154074526Y-69895015D01*
X154083247Y-69825691D01*
X154128063Y-69772088D01*
X154194744Y-69751223D01*
X154206661Y-69751586D01*
X154211511Y-69751967D01*
X154242419Y-69754400D01*
X154640780Y-69754399D01*
X154676804Y-69751565D01*
X154830993Y-69706769D01*
X154969198Y-69625035D01*
X154975381Y-69618851D01*
X155036701Y-69585365D01*
X155106393Y-69590346D01*
G37*
%TD.AperFunction*%
%TA.AperFunction,Conductor*%
G36*
X135654607Y-67796423D02*
G01*
X135713277Y-67834365D01*
X135738409Y-67880703D01*
X135746455Y-67908396D01*
X135830117Y-68049862D01*
X135830123Y-68049870D01*
X135946329Y-68166076D01*
X135950669Y-68169442D01*
X135991580Y-68226082D01*
X135995375Y-68295848D01*
X135962358Y-68355108D01*
X135847066Y-68470400D01*
X135847063Y-68470404D01*
X135765331Y-68608606D01*
X135765329Y-68608611D01*
X135720535Y-68762791D01*
X135720534Y-68762797D01*
X135717700Y-68798811D01*
X135717700Y-68984421D01*
X135698015Y-69051460D01*
X135645211Y-69097215D01*
X135576053Y-69107159D01*
X135512497Y-69078134D01*
X135508028Y-69074066D01*
X135412374Y-68982651D01*
X135403611Y-68973366D01*
X135173395Y-68702790D01*
X135165638Y-68692660D01*
X134964470Y-68399817D01*
X134957791Y-68388932D01*
X134946504Y-68368215D01*
X134787831Y-68076964D01*
X134782307Y-68065450D01*
X134780796Y-68061833D01*
X134750168Y-67988530D01*
X134742487Y-67919086D01*
X134773570Y-67856511D01*
X134833549Y-67820674D01*
X134899179Y-67821650D01*
X134912996Y-67825665D01*
X134949019Y-67828500D01*
X135447380Y-67828499D01*
X135483404Y-67825665D01*
X135584740Y-67796224D01*
X135654607Y-67796423D01*
G37*
%TD.AperFunction*%
%TA.AperFunction,Conductor*%
G36*
X152698007Y-67782323D02*
G01*
X152756677Y-67820265D01*
X152781809Y-67866603D01*
X152789855Y-67894296D01*
X152789856Y-67894298D01*
X152798195Y-67908398D01*
X152873517Y-68035762D01*
X152873523Y-68035770D01*
X152899586Y-68061833D01*
X152933071Y-68123156D01*
X152928087Y-68192848D01*
X152897210Y-68234940D01*
X152899518Y-68237248D01*
X152780469Y-68356296D01*
X152780463Y-68356304D01*
X152698731Y-68494506D01*
X152698729Y-68494511D01*
X152653935Y-68648691D01*
X152653934Y-68648697D01*
X152651100Y-68684711D01*
X152651100Y-68918216D01*
X152631415Y-68985255D01*
X152578611Y-69031010D01*
X152509453Y-69040954D01*
X152445897Y-69011929D01*
X152439960Y-69006435D01*
X152372211Y-68939514D01*
X152363596Y-68930080D01*
X152267514Y-68813302D01*
X152137865Y-68655728D01*
X152130280Y-68645473D01*
X151933981Y-68349363D01*
X151927484Y-68338372D01*
X151926572Y-68336631D01*
X151814800Y-68123156D01*
X151762695Y-68023641D01*
X151757360Y-68012033D01*
X151734916Y-67955721D01*
X151728381Y-67886158D01*
X151760492Y-67824104D01*
X151821054Y-67789262D01*
X151884698Y-67790734D01*
X151956396Y-67811565D01*
X151992419Y-67814400D01*
X152490780Y-67814399D01*
X152526804Y-67811565D01*
X152628140Y-67782124D01*
X152698007Y-67782323D01*
G37*
%TD.AperFunction*%
%TA.AperFunction,Conductor*%
G36*
X140889816Y-64427380D02*
G01*
X140904178Y-64443183D01*
X140950660Y-64504146D01*
X140957873Y-64514691D01*
X141143070Y-64817873D01*
X141149151Y-64829089D01*
X141302173Y-65149720D01*
X141307071Y-65161509D01*
X141426291Y-65496178D01*
X141429952Y-65508416D01*
X141514103Y-65853560D01*
X141516486Y-65866112D01*
X141564681Y-66218099D01*
X141565759Y-66230828D01*
X141577483Y-66585882D01*
X141577247Y-66598654D01*
X141552377Y-66953054D01*
X141550827Y-66965735D01*
X141489628Y-67315681D01*
X141486782Y-67328135D01*
X141389902Y-67669929D01*
X141385790Y-67682024D01*
X141254257Y-68012041D01*
X141248922Y-68023648D01*
X141084133Y-68338381D01*
X141077632Y-68349379D01*
X140881341Y-68645477D01*
X140873744Y-68655747D01*
X140648022Y-68930088D01*
X140639407Y-68939522D01*
X140589840Y-68988483D01*
X140528312Y-69021590D01*
X140458653Y-69016177D01*
X140402978Y-68973962D01*
X140378964Y-68908349D01*
X140378700Y-68900264D01*
X140378700Y-68813317D01*
X140378699Y-68813302D01*
X140377559Y-68798819D01*
X140375843Y-68777007D01*
X140372560Y-68765708D01*
X140338563Y-68648691D01*
X140330694Y-68621605D01*
X140248317Y-68482313D01*
X140248315Y-68482311D01*
X140248312Y-68482307D01*
X140133892Y-68367887D01*
X140133884Y-68367881D01*
X140092005Y-68343114D01*
X140044322Y-68292045D01*
X140031818Y-68223303D01*
X140058463Y-68158714D01*
X140067436Y-68148709D01*
X140166281Y-68049865D01*
X140249944Y-67908398D01*
X140286995Y-67780869D01*
X140295797Y-67750573D01*
X140295798Y-67750567D01*
X140298700Y-67713694D01*
X140298700Y-67282306D01*
X140295798Y-67245431D01*
X140291274Y-67229860D01*
X140249945Y-67087606D01*
X140249944Y-67087603D01*
X140249944Y-67087602D01*
X140166281Y-66946135D01*
X140166279Y-66946133D01*
X140166276Y-66946129D01*
X140050070Y-66829923D01*
X140050062Y-66829917D01*
X139908596Y-66746255D01*
X139908593Y-66746254D01*
X139750773Y-66700402D01*
X139750767Y-66700401D01*
X139713901Y-66697500D01*
X139713894Y-66697500D01*
X138557506Y-66697500D01*
X138557498Y-66697500D01*
X138520632Y-66700401D01*
X138520626Y-66700402D01*
X138362806Y-66746254D01*
X138362803Y-66746255D01*
X138214620Y-66833890D01*
X138213545Y-66832073D01*
X138158648Y-66853620D01*
X138090132Y-66839931D01*
X138039894Y-66791373D01*
X138023700Y-66730104D01*
X138023700Y-66365895D01*
X138043385Y-66298856D01*
X138096189Y-66253101D01*
X138165347Y-66243157D01*
X138213696Y-66263671D01*
X138214620Y-66262110D01*
X138252913Y-66284756D01*
X138362802Y-66349744D01*
X138369862Y-66351795D01*
X138520626Y-66395597D01*
X138520629Y-66395597D01*
X138520631Y-66395598D01*
X138557506Y-66398500D01*
X138557514Y-66398500D01*
X139713886Y-66398500D01*
X139713894Y-66398500D01*
X139750769Y-66395598D01*
X139750771Y-66395597D01*
X139750773Y-66395597D01*
X139853006Y-66365895D01*
X139908598Y-66349744D01*
X140050065Y-66266081D01*
X140166281Y-66149865D01*
X140249944Y-66008398D01*
X140295798Y-65850569D01*
X140298700Y-65813694D01*
X140298700Y-65382306D01*
X140295798Y-65345431D01*
X140293634Y-65337984D01*
X140249945Y-65187606D01*
X140249944Y-65187603D01*
X140249944Y-65187602D01*
X140166281Y-65046135D01*
X140166279Y-65046133D01*
X140166276Y-65046129D01*
X140121180Y-65001033D01*
X140087695Y-64939710D01*
X140092679Y-64870018D01*
X140134551Y-64814085D01*
X140186554Y-64793215D01*
X140186278Y-64792095D01*
X140353491Y-64750881D01*
X140353491Y-64750880D01*
X140353495Y-64750880D01*
X140499348Y-64674330D01*
X140622644Y-64565100D01*
X140703523Y-64447924D01*
X140757803Y-64403937D01*
X140827251Y-64396277D01*
X140889816Y-64427380D01*
G37*
%TD.AperFunction*%
%TA.AperFunction,Conductor*%
G36*
X157607303Y-64085232D02*
G01*
X157617838Y-64095518D01*
X157764803Y-64257123D01*
X157772900Y-64267004D01*
X157947597Y-64504146D01*
X157983613Y-64553035D01*
X157990643Y-64563686D01*
X158016333Y-64607345D01*
X158170810Y-64869880D01*
X158176713Y-64881209D01*
X158324422Y-65204318D01*
X158329127Y-65216195D01*
X158442802Y-65552767D01*
X158446261Y-65565065D01*
X158514416Y-65866112D01*
X158524703Y-65911548D01*
X158526879Y-65924136D01*
X158569259Y-66276871D01*
X158570127Y-66289617D01*
X158575990Y-66644819D01*
X158575543Y-66657586D01*
X158544828Y-67011522D01*
X158543069Y-67024175D01*
X158476104Y-67373062D01*
X158473053Y-67385467D01*
X158370547Y-67725611D01*
X158366236Y-67737637D01*
X158229273Y-68065442D01*
X158223747Y-68076959D01*
X158053791Y-68388921D01*
X158047109Y-68399810D01*
X157845949Y-68692641D01*
X157838184Y-68702784D01*
X157640539Y-68935077D01*
X157582107Y-68973379D01*
X157512240Y-68974009D01*
X157453123Y-68936767D01*
X157423526Y-68873475D01*
X157422100Y-68854722D01*
X157422100Y-68699217D01*
X157422099Y-68699202D01*
X157421997Y-68697908D01*
X157419243Y-68662907D01*
X157417159Y-68655735D01*
X157374095Y-68507509D01*
X157374094Y-68507506D01*
X157374094Y-68507505D01*
X157291717Y-68368213D01*
X157291715Y-68368211D01*
X157291712Y-68368207D01*
X157172156Y-68248651D01*
X157138671Y-68187328D01*
X157143655Y-68117636D01*
X157172156Y-68073289D01*
X157209681Y-68035765D01*
X157293344Y-67894298D01*
X157339198Y-67736469D01*
X157342100Y-67699594D01*
X157342100Y-67268206D01*
X157339198Y-67231331D01*
X157293344Y-67073502D01*
X157209681Y-66932035D01*
X157209679Y-66932033D01*
X157209676Y-66932029D01*
X157093470Y-66815823D01*
X157093462Y-66815817D01*
X156975838Y-66746255D01*
X156951998Y-66732156D01*
X156951997Y-66732155D01*
X156951996Y-66732155D01*
X156951993Y-66732154D01*
X156794173Y-66686302D01*
X156794167Y-66686301D01*
X156757301Y-66683400D01*
X156757294Y-66683400D01*
X155600906Y-66683400D01*
X155600898Y-66683400D01*
X155564032Y-66686301D01*
X155564026Y-66686302D01*
X155406206Y-66732154D01*
X155406203Y-66732155D01*
X155258020Y-66819790D01*
X155256945Y-66817973D01*
X155202048Y-66839520D01*
X155133532Y-66825831D01*
X155083294Y-66777273D01*
X155067100Y-66716004D01*
X155067100Y-66351795D01*
X155086785Y-66284756D01*
X155139589Y-66239001D01*
X155208747Y-66229057D01*
X155257096Y-66249571D01*
X155258020Y-66248010D01*
X155298634Y-66272028D01*
X155406202Y-66335644D01*
X155447824Y-66347736D01*
X155564026Y-66381497D01*
X155564029Y-66381497D01*
X155564031Y-66381498D01*
X155600906Y-66384400D01*
X155600914Y-66384400D01*
X156757286Y-66384400D01*
X156757294Y-66384400D01*
X156794169Y-66381498D01*
X156794171Y-66381497D01*
X156794173Y-66381497D01*
X156896406Y-66351795D01*
X156951998Y-66335644D01*
X157093465Y-66251981D01*
X157209681Y-66135765D01*
X157293344Y-65994298D01*
X157339198Y-65836469D01*
X157342100Y-65799594D01*
X157342100Y-65368206D01*
X157339198Y-65331331D01*
X157334491Y-65315131D01*
X157293345Y-65173506D01*
X157293344Y-65173503D01*
X157293344Y-65173502D01*
X157209681Y-65032035D01*
X157209679Y-65032033D01*
X157209676Y-65032029D01*
X157162157Y-64984510D01*
X157128672Y-64923187D01*
X157133656Y-64853495D01*
X157162157Y-64809148D01*
X157271712Y-64699592D01*
X157271717Y-64699587D01*
X157354094Y-64560295D01*
X157399243Y-64404893D01*
X157402100Y-64368590D01*
X157402100Y-64178945D01*
X157421785Y-64111906D01*
X157474589Y-64066151D01*
X157543747Y-64056207D01*
X157607303Y-64085232D01*
G37*
%TD.AperFunction*%
%TA.AperFunction,Conductor*%
G36*
X135551479Y-64029802D02*
G01*
X135609334Y-64068976D01*
X135636826Y-64133210D01*
X135637700Y-64147907D01*
X135637700Y-64282697D01*
X135640556Y-64318991D01*
X135640557Y-64318997D01*
X135685704Y-64474390D01*
X135685705Y-64474393D01*
X135685706Y-64474395D01*
X135706311Y-64509236D01*
X135768081Y-64613684D01*
X135768087Y-64613692D01*
X135882507Y-64728112D01*
X135882516Y-64728119D01*
X135911826Y-64745453D01*
X135959510Y-64796522D01*
X135972013Y-64865264D01*
X135945367Y-64929853D01*
X135936387Y-64939866D01*
X135830120Y-65046133D01*
X135830117Y-65046137D01*
X135746455Y-65187603D01*
X135746453Y-65187606D01*
X135738410Y-65215294D01*
X135700804Y-65274180D01*
X135637331Y-65303386D01*
X135584739Y-65299775D01*
X135483408Y-65270335D01*
X135483402Y-65270334D01*
X135447381Y-65267500D01*
X134949030Y-65267500D01*
X134949008Y-65267501D01*
X134912997Y-65270334D01*
X134885733Y-65278255D01*
X134877653Y-65280602D01*
X134807785Y-65280403D01*
X134749115Y-65242460D01*
X134720272Y-65178821D01*
X134730284Y-65109973D01*
X134834872Y-64881189D01*
X134840765Y-64869879D01*
X135020942Y-64563670D01*
X135027962Y-64553035D01*
X135238682Y-64266992D01*
X135246776Y-64257115D01*
X135279031Y-64221648D01*
X135421962Y-64064478D01*
X135481630Y-64028126D01*
X135551479Y-64029802D01*
G37*
%TD.AperFunction*%
%TA.AperFunction,Conductor*%
G36*
X152596823Y-63985611D02*
G01*
X152654024Y-64025734D01*
X152680452Y-64090413D01*
X152681100Y-64103076D01*
X152681100Y-64368597D01*
X152683956Y-64404891D01*
X152683957Y-64404897D01*
X152729104Y-64560290D01*
X152729105Y-64560293D01*
X152729106Y-64560295D01*
X152731118Y-64563697D01*
X152811481Y-64699584D01*
X152811487Y-64699592D01*
X152921043Y-64809148D01*
X152954528Y-64870471D01*
X152949544Y-64940163D01*
X152921043Y-64984510D01*
X152873523Y-65032029D01*
X152873517Y-65032037D01*
X152789855Y-65173503D01*
X152789853Y-65173506D01*
X152781810Y-65201194D01*
X152744204Y-65260080D01*
X152680731Y-65289286D01*
X152628139Y-65285675D01*
X152526808Y-65256235D01*
X152526802Y-65256234D01*
X152490781Y-65253400D01*
X151992430Y-65253400D01*
X151992408Y-65253401D01*
X151956397Y-65256234D01*
X151876333Y-65279495D01*
X151806463Y-65279294D01*
X151747794Y-65241352D01*
X151718951Y-65177713D01*
X151729093Y-65108583D01*
X151729767Y-65107145D01*
X151862468Y-64829092D01*
X151868545Y-64817885D01*
X152053751Y-64514691D01*
X152060946Y-64504171D01*
X152083649Y-64474395D01*
X152276360Y-64221642D01*
X152284616Y-64211901D01*
X152466752Y-64018146D01*
X152527011Y-63982782D01*
X152596823Y-63985611D01*
G37*
%TD.AperFunction*%
%TA.AperFunction,Conductor*%
G36*
X155212875Y-62959942D02*
G01*
X155225616Y-62960705D01*
X155578673Y-63000171D01*
X155591278Y-63002242D01*
X155938412Y-63077826D01*
X155950722Y-63081179D01*
X155973968Y-63088816D01*
X156031512Y-63128444D01*
X156058498Y-63192892D01*
X156046356Y-63261698D01*
X155998943Y-63313018D01*
X155931310Y-63330557D01*
X155908894Y-63327003D01*
X155908823Y-63327395D01*
X155902591Y-63326256D01*
X155866297Y-63323400D01*
X155866290Y-63323400D01*
X155456910Y-63323400D01*
X155456902Y-63323400D01*
X155420608Y-63326256D01*
X155420602Y-63326257D01*
X155265209Y-63371404D01*
X155265206Y-63371405D01*
X155125915Y-63453781D01*
X155119747Y-63458566D01*
X155118141Y-63456496D01*
X155067958Y-63483899D01*
X154998266Y-63478915D01*
X154964501Y-63457214D01*
X154963453Y-63458566D01*
X154957284Y-63453781D01*
X154853149Y-63392196D01*
X154817995Y-63371406D01*
X154817994Y-63371405D01*
X154817993Y-63371405D01*
X154817990Y-63371404D01*
X154662597Y-63326257D01*
X154662591Y-63326256D01*
X154626297Y-63323400D01*
X154626290Y-63323400D01*
X154216910Y-63323400D01*
X154216902Y-63323400D01*
X154180608Y-63326256D01*
X154180602Y-63326257D01*
X154025208Y-63371404D01*
X154025202Y-63371406D01*
X154004720Y-63383520D01*
X153936996Y-63400701D01*
X153878480Y-63383520D01*
X153851281Y-63367435D01*
X153852702Y-63365031D01*
X153809221Y-63328864D01*
X153788188Y-63262235D01*
X153806517Y-63194812D01*
X153858387Y-63148001D01*
X153875401Y-63141308D01*
X154117861Y-63066052D01*
X154130220Y-63062904D01*
X154478562Y-62993058D01*
X154491177Y-62991198D01*
X154844866Y-62957562D01*
X154857599Y-62957010D01*
X155212875Y-62959942D01*
G37*
%TD.AperFunction*%
%TA.AperFunction,Conductor*%
G36*
X138166735Y-62957542D02*
G01*
X138508631Y-62990057D01*
X138573505Y-63016000D01*
X138614056Y-63072899D01*
X138617407Y-63142688D01*
X138582495Y-63203210D01*
X138520405Y-63235250D01*
X138496891Y-63237500D01*
X138293502Y-63237500D01*
X138257208Y-63240356D01*
X138257202Y-63240357D01*
X138101809Y-63285504D01*
X138101808Y-63285504D01*
X138001320Y-63344932D01*
X137933596Y-63362114D01*
X137875080Y-63344932D01*
X137821115Y-63313018D01*
X137774595Y-63285506D01*
X137774591Y-63285505D01*
X137774590Y-63285504D01*
X137619197Y-63240357D01*
X137619191Y-63240356D01*
X137582897Y-63237500D01*
X137582890Y-63237500D01*
X137535114Y-63237500D01*
X137468075Y-63217815D01*
X137422320Y-63165011D01*
X137412376Y-63095853D01*
X137441401Y-63032297D01*
X137500179Y-62994523D01*
X137521339Y-62990268D01*
X137529087Y-62989401D01*
X137785983Y-62960685D01*
X137798722Y-62959922D01*
X138154000Y-62956990D01*
X138166735Y-62957542D01*
G37*
%TD.AperFunction*%
%TD*%
M02*
