%TF.GenerationSoftware,KiCad,Pcbnew,8.0.8-8.0.8-0~ubuntu22.04.1*%
%TF.CreationDate,2025-03-19T14:39:25-04:00*%
%TF.ProjectId,hpk_5mm,68706b5f-356d-46d2-9e6b-696361645f70,rev?*%
%TF.SameCoordinates,Original*%
%TF.FileFunction,Legend,Top*%
%TF.FilePolarity,Positive*%
%FSLAX46Y46*%
G04 Gerber Fmt 4.6, Leading zero omitted, Abs format (unit mm)*
G04 Created by KiCad (PCBNEW 8.0.8-8.0.8-0~ubuntu22.04.1) date 2025-03-19 14:39:25*
%MOMM*%
%LPD*%
G01*
G04 APERTURE LIST*
%ADD10C,0.120000*%
G04 APERTURE END LIST*
D10*
%TO.C,R12*%
X143320000Y-81146359D02*
X143320000Y-81453641D01*
X144080000Y-81146359D02*
X144080000Y-81453641D01*
%TO.C,C2*%
X139086036Y-63688000D02*
X138870364Y-63688000D01*
X139086036Y-64408000D02*
X138870364Y-64408000D01*
%TO.C,R8*%
X151861600Y-66380259D02*
X151861600Y-66687541D01*
X152621600Y-66380259D02*
X152621600Y-66687541D01*
%TO.C,C4*%
X136790364Y-63688000D02*
X137006036Y-63688000D01*
X136790364Y-64408000D02*
X137006036Y-64408000D01*
%TO.C,U2*%
X155041600Y-64973900D02*
X154241600Y-64973900D01*
X155041600Y-64973900D02*
X155841600Y-64973900D01*
X155041600Y-68093900D02*
X154241600Y-68093900D01*
X155041600Y-68093900D02*
X155841600Y-68093900D01*
X153741600Y-65023900D02*
X153501600Y-64693900D01*
X153981600Y-64693900D01*
X153741600Y-65023900D01*
G36*
X153741600Y-65023900D02*
G01*
X153501600Y-64693900D01*
X153981600Y-64693900D01*
X153741600Y-65023900D01*
G37*
%TO.C,U3*%
X146500000Y-79740000D02*
X145700000Y-79740000D01*
X146500000Y-79740000D02*
X147300000Y-79740000D01*
X146500000Y-82860000D02*
X145700000Y-82860000D01*
X146500000Y-82860000D02*
X147300000Y-82860000D01*
X145200000Y-79790000D02*
X144960000Y-79460000D01*
X145440000Y-79460000D01*
X145200000Y-79790000D01*
G36*
X145200000Y-79790000D02*
G01*
X144960000Y-79460000D01*
X145440000Y-79460000D01*
X145200000Y-79790000D01*
G37*
%TO.C,R3*%
X137151841Y-68668000D02*
X136844559Y-68668000D01*
X137151841Y-69428000D02*
X136844559Y-69428000D01*
%TO.C,C6*%
X156033764Y-63773900D02*
X156249436Y-63773900D01*
X156033764Y-64493900D02*
X156249436Y-64493900D01*
%TO.C,C8*%
X153833764Y-63773900D02*
X154049436Y-63773900D01*
X153833764Y-64493900D02*
X154049436Y-64493900D01*
%TO.C,C11*%
X147492164Y-83340000D02*
X147707836Y-83340000D01*
X147492164Y-84060000D02*
X147707836Y-84060000D01*
%TO.C,C10*%
X147592164Y-78540000D02*
X147807836Y-78540000D01*
X147592164Y-79260000D02*
X147807836Y-79260000D01*
%TO.C,R11*%
X145146359Y-83320000D02*
X145453641Y-83320000D01*
X145146359Y-84080000D02*
X145453641Y-84080000D01*
%TO.C,C3*%
X139010364Y-68688000D02*
X139226036Y-68688000D01*
X139010364Y-69408000D02*
X139226036Y-69408000D01*
%TO.C,R7*%
X153777959Y-68553900D02*
X154085241Y-68553900D01*
X153777959Y-69313900D02*
X154085241Y-69313900D01*
%TO.C,C7*%
X156053764Y-68573900D02*
X156269436Y-68573900D01*
X156053764Y-69293900D02*
X156269436Y-69293900D01*
%TO.C,C12*%
X145292164Y-78540000D02*
X145507836Y-78540000D01*
X145292164Y-79260000D02*
X145507836Y-79260000D01*
%TO.C,R4*%
X134818200Y-66394359D02*
X134818200Y-66701641D01*
X135578200Y-66394359D02*
X135578200Y-66701641D01*
%TO.C,U1*%
X137998200Y-64988000D02*
X137198200Y-64988000D01*
X137998200Y-64988000D02*
X138798200Y-64988000D01*
X137998200Y-68108000D02*
X137198200Y-68108000D01*
X137998200Y-68108000D02*
X138798200Y-68108000D01*
X136698200Y-65038000D02*
X136458200Y-64708000D01*
X136938200Y-64708000D01*
X136698200Y-65038000D01*
G36*
X136698200Y-65038000D02*
G01*
X136458200Y-64708000D01*
X136938200Y-64708000D01*
X136698200Y-65038000D01*
G37*
%TD*%
M02*
