%TF.GenerationSoftware,KiCad,Pcbnew,8.0.8-8.0.8-0~ubuntu22.04.1*%
%TF.CreationDate,2025-03-19T14:39:25-04:00*%
%TF.ProjectId,hpk_5mm,68706b5f-356d-46d2-9e6b-696361645f70,rev?*%
%TF.SameCoordinates,Original*%
%TF.FileFunction,Legend,Bot*%
%TF.FilePolarity,Positive*%
%FSLAX46Y46*%
G04 Gerber Fmt 4.6, Leading zero omitted, Abs format (unit mm)*
G04 Created by KiCad (PCBNEW 8.0.8-8.0.8-0~ubuntu22.04.1) date 2025-03-19 14:39:25*
%MOMM*%
%LPD*%
G01*
G04 APERTURE LIST*
%ADD10C,0.100000*%
%ADD11C,0.120000*%
G04 APERTURE END LIST*
D10*
%TO.C,D2*%
X152254100Y-66408900D02*
X152854100Y-66408900D01*
X152254100Y-66808900D02*
X152854100Y-66808900D01*
X152554100Y-66808900D02*
X152254100Y-66408900D01*
X152554100Y-67608900D02*
X152554100Y-65408900D01*
X152854100Y-66408900D02*
X152554100Y-66808900D01*
X153454100Y-67108900D02*
X153454100Y-65908900D01*
X153454100Y-67108900D02*
X156554100Y-65908900D01*
X156554100Y-67108900D02*
X153454100Y-65908900D01*
X156554100Y-67108900D02*
X156554100Y-65908900D01*
X157429100Y-64608900D02*
X153079100Y-64608900D01*
X153079100Y-68458900D01*
X157429100Y-68458900D01*
X157429100Y-64608900D01*
D11*
%TO.C,C1*%
X136770364Y-63688000D02*
X136986036Y-63688000D01*
X136770364Y-64408000D02*
X136986036Y-64408000D01*
%TO.C,R10*%
X146643641Y-83620000D02*
X146336359Y-83620000D01*
X146643641Y-84380000D02*
X146336359Y-84380000D01*
%TO.C,R5*%
X156295241Y-63553900D02*
X155987959Y-63553900D01*
X156295241Y-64313900D02*
X155987959Y-64313900D01*
%TO.C,R2*%
X138241841Y-68768000D02*
X137934559Y-68768000D01*
X138241841Y-69528000D02*
X137934559Y-69528000D01*
D10*
%TO.C,D3*%
X143812500Y-81175000D02*
X144412500Y-81175000D01*
X143812500Y-81575000D02*
X144412500Y-81575000D01*
X144112500Y-81575000D02*
X143812500Y-81175000D01*
X144112500Y-82375000D02*
X144112500Y-80175000D01*
X144412500Y-81175000D02*
X144112500Y-81575000D01*
X145012500Y-81875000D02*
X145012500Y-80675000D01*
X145012500Y-81875000D02*
X148112500Y-80675000D01*
X148112500Y-81875000D02*
X145012500Y-80675000D01*
X148112500Y-81875000D02*
X148112500Y-80675000D01*
X148987500Y-79375000D02*
X144637500Y-79375000D01*
X144637500Y-83225000D01*
X148987500Y-83225000D01*
X148987500Y-79375000D01*
%TO.C,D1*%
X135310700Y-66423000D02*
X135910700Y-66423000D01*
X135310700Y-66823000D02*
X135910700Y-66823000D01*
X135610700Y-66823000D02*
X135310700Y-66423000D01*
X135610700Y-67623000D02*
X135610700Y-65423000D01*
X135910700Y-66423000D02*
X135610700Y-66823000D01*
X136510700Y-67123000D02*
X136510700Y-65923000D01*
X136510700Y-67123000D02*
X139610700Y-65923000D01*
X139610700Y-67123000D02*
X136510700Y-65923000D01*
X139610700Y-67123000D02*
X139610700Y-65923000D01*
X140485700Y-64623000D02*
X136135700Y-64623000D01*
X136135700Y-68473000D01*
X140485700Y-68473000D01*
X140485700Y-64623000D01*
D11*
%TO.C,R9*%
X147843641Y-78320000D02*
X147536359Y-78320000D01*
X147843641Y-79080000D02*
X147536359Y-79080000D01*
%TO.C,R6*%
X154897959Y-68753900D02*
X155205241Y-68753900D01*
X154897959Y-69513900D02*
X155205241Y-69513900D01*
%TO.C,R1*%
X138844559Y-63668000D02*
X139151841Y-63668000D01*
X138844559Y-64428000D02*
X139151841Y-64428000D01*
%TO.C,C9*%
X145472164Y-78340000D02*
X145687836Y-78340000D01*
X145472164Y-79060000D02*
X145687836Y-79060000D01*
%TO.C,C5*%
X153953764Y-63573900D02*
X154169436Y-63573900D01*
X153953764Y-64293900D02*
X154169436Y-64293900D01*
%TD*%
M02*
