999
FreeCAD v1.0 38641 +468 (Git)
  0
SECTION
  2
HEADER
  9
$ACADVER
  1
AC1014
  9
$ACADMAINTVER
 70
     9
  9
$DWGCODEPAGE
  3
ANSI_1252
  9
$TEXTSTYLE
  7
STANDARD
  9
$DIMSTYLE
  2
STANDARD
  9
$DIMTXSTY
  7
STANDARD
  9
$CMLSTYLE
  2
STANDARD
  9
$LUNITS
 70
2
  9
$INSUNITS
 70
4
  9
$PEXTMAX
 10
50
 20
50
 30
50
  9
$PEXTMIN
 10
0
 20
0
 30
0
  9
$HANDSEED
  5
FFFF
  0
ENDSEC
  0
SECTION
  2
CLASSES
  0
CLASS
  1
ACDBDICTIONARYWDFLT
  2
AcDbDictionaryWithDefault
  3
ObjectDBX Classes
 90
        0
280
     0
281
     0
  0
CLASS
  1
XRECORD
  2
AcDbXrecord
  3
ObjectDBX Classes
 90
        0
280
     0
281
     0
  0
CLASS
  1
LWPOLYLINE
  2
AcDbPolyline
  3
ObjectDBX Classes
 90
        0
280
     0
281
     1
  0
ENDSEC
  0
SECTION
  2
TABLES
  0
TABLE
  2
VPORT
  5
20
330
0
100
AcDbSymbolTable
 70
     1
  0
VPORT
  5
21
330
20
100
AcDbSymbolTableRecord
100
AcDbViewportTableRecord
  2
*ACTIVE
 70
     0
  0
ENDTAB
  0
TABLE
  2
LTYPE
  5
22
330
0
100
AcDbSymbolTable
 70
     1
  0
LTYPE
  5
23
330
21
100
AcDbSymbolTableRecord
100
AcDbLinetypeTableRecord
  2
BYBLOCK
 70
     0
  3

 72
    65
 73
     0
 40
0.0
  0
LTYPE
  5
24
330
21
100
AcDbSymbolTableRecord
100
AcDbLinetypeTableRecord
  2
BYLAYER
 70
     0
  3

 72
    65
 73
     0
 40
0.0
  0
LTYPE
  5
25
330
21
100
AcDbSymbolTableRecord
100
AcDbLinetypeTableRecord
  2
CONTINUOUS
 70
     0
  3
Solid line
 72
    65
 73
     0
 40
0.0
  0
ENDTAB
  0
TABLE
  2
LAYER
  5
BDC
330
0
100
AcDbSymbolTable
 70
3
  0
LAYER
  5
BDD
330
BDC
100
AcDbSymbolTableRecord
100
AcDbLayerTableRecord
  2
0
 70
   0
 62
   7
  6
CONTINUOUS
  0
LAYER
  5
BDE
330
BDC
100
AcDbSymbolTableRecord
100
AcDbLayerTableRecord
  2
none
 70
    0
 62
    7
  6
CONTINUOUS
  0
LAYER
  5
BDF
330
BDC
100
AcDbSymbolTableRecord
100
AcDbLayerTableRecord
  2
Part__Feature009
 70
    0
 62
    7
  6
CONTINUOUS
  0
ENDTAB
  0
TABLE
  2
STYLE
  5
70
330
0
100
AcDbSymbolTable
 70
     2
  0
STYLE
  5
71
330
70
100
AcDbSymbolTableRecord
100
AcDbTextStyleTableRecord
  2
STANDARD
 70
     0
 40
0.0
 41
1.0
 50
0.0
 71
     0
 42
2.5
  3
arial.ttf
  4

  0
STYLE
  5
72
330
70
100
AcDbSymbolTableRecord
100
AcDbTextStyleTableRecord
  2
ANNOTATIVE
 70
     0
 40
0.0
 41
1.0
 50
0.0
 71
     0
 42
2.5
  3
arial.ttf
  4

  0
ENDTAB
  0
TABLE
  2
VIEW
  5
73
330
0
100
AcDbSymbolTable
 70
     0
  0
ENDTAB
  0
TABLE
  2
UCS
  5
74
330
0
100
AcDbSymbolTable
 70
     0
  0
ENDTAB
  0
TABLE
  2
APPID
  5
75
330
0
100
AcDbSymbolTable
 70
     2
  0
APPID
  5
76
330
75
100
AcDbSymbolTableRecord
100
AcDbRegAppTableRecord
  2
ACAD
 70
     0
  0
APPID
  5
77
330
75
100
AcDbSymbolTableRecord
100
AcDbRegAppTableRecord
  2
ACADANNOTATIVE
 70
     0
  0
ENDTAB
  0
TABLE
  2
DIMSTYLE
  5
78
330
0
100
AcDbSymbolTable
 70
     2
  0
DIMSTYLE
105
79
330
78
100
AcDbSymbolTableRecord
100
AcDbDimStyleTableRecord
  2
STANDARD
 70
     0
  3

  4

  5

  6

  7

 40
0.0
 41
2.5
 42
0.625
 43
3.75
 44
1.25
 45
0.0
 46
0.0
 47
0.0
 48
0.0
140
2.5
141
2.5
142
0.0
143
0.03937007874016
144
1.0
145
0.0
146
1.0
147
0.625
 71
     0
 72
     0
 73
     0
 74
     0
 75
     0
 76
     0
 77
     1
 78
     8
170
     0
171
     3
172
     1
173
     0
174
     0
175
     0
176
     0
177
     0
178
     0
270
     2
271
     2
272
     2
273
     2
274
     3
340
71
275
     0
280
     0
281
     0
282
     0
283
     0
284
     8
285
     0
286
     0
287
     3
288
     0
  0
ENDTAB
  0
TABLE
  2
BLOCK_RECORD
  5
A01
330
0
100
AcDbSymbolTable
  70
5
  0
BLOCK_RECORD
  5
A02
330
A01
100
AcDbSymbolTableRecord
100
AcDbBlockTableRecord
  2
*MODEL_SPACE
  0
BLOCK_RECORD
  5
A03
330
A01
100
AcDbSymbolTableRecord
100
AcDbBlockTableRecord
  2
*PAPER_SPACE
  0
ENDTAB
  0
ENDSEC
  0
SECTION
  2
BLOCKS
  0
BLOCK
  5
A04
330
A02
100
AcDbEntity
  8
0
100
AcDbBlockBegin
  2
*MODEL_SPACE
 70
   0
 10
0
 20
0
 30
0
  3
*MODEL_SPACE
  1
 
  0
ENDBLK
  5
A05
330
A02
100
AcDbEntity
  8
0
100
AcDbBlockEnd
  0
BLOCK
  5
A06
330
A03
100
AcDbEntity
 67
1
  8
0
100
AcDbBlockBegin
  2
*PAPER_SPACE
 70
   0
 10
0
 20
0
 30
0
  3
*PAPER_SPACE
  1
 
  0
ENDBLK
  5
A07
330
A03
100
AcDbEntity
 67
    1
  8
0
100
AcDbBlockEnd
  0
ENDSEC
  0
SECTION
  2
ENTITIES
  0
ARC
  5
A08
330
A02
100
AcDbEntity
  8
Part__Feature009
100
AcDbCircle
 10
13.000000194
 20
-3.100000000
 30
0.000000000
 40
4.500000000
100
AcDbArc
 50
0.000000000
 51
180.000000000
  0
ARC
  5
A09
330
A02
100
AcDbEntity
  8
Part__Feature009
100
AcDbCircle
 10
13.000000194
 20
-3.100000000
 30
4.400000000
 40
0.000000000
100
AcDbArc
 50
90.000000000
 51
0.000000000
  0
CIRCLE
  5
A0A
330
A02
100
AcDbEntity
  8
Part__Feature009
100
AcDbCircle
 10
13.000000194
 20
-3.000000000
 30
0.000000000
 40
4.400000000
  0
ARC
  5
A0B
330
A02
100
AcDbEntity
  8
Part__Feature009
100
AcDbCircle
 10
13.000000194
 20
-3.100000000
 30
4.400000000
 40
0.000000000
100
AcDbArc
 50
90.000000000
 51
0.000000000
  0
ARC
  5
A0C
330
A02
100
AcDbEntity
  8
Part__Feature009
100
AcDbCircle
 10
13.000000194
 20
-3.100000000
 30
0.000000000
 40
0.000000000
100
AcDbArc
 50
180.000000000
 51
0.000000000
  0
CIRCLE
  5
A0D
330
A02
100
AcDbEntity
  8
Part__Feature009
100
AcDbCircle
 10
13.000000194
 20
-3.000000000
 30
0.000000000
 40
4.400000000
  0
CIRCLE
  5
A0E
330
A02
100
AcDbEntity
  8
Part__Feature009
100
AcDbCircle
 10
13.000000194
 20
-3.000000000
 30
0.000000000
 40
4.100000000
  0
ARC
  5
A0F
330
A02
100
AcDbEntity
  8
Part__Feature009
100
AcDbCircle
 10
13.000000194
 20
-3.400000000
 30
0.000000000
 40
4.500000000
100
AcDbArc
 50
0.000000000
 51
180.000000000
  0
LINE
  5
A10
330
A02
100
AcDbEntity
  8
Part__Feature009
100
AcDbLine
 10
8.500000194
 20
-3.400000000
 30
-0.000000000
 11
8.500000194
 21
-3.100000000
 31
-0.000000000
  0
ARC
  5
A11
330
A02
100
AcDbEntity
  8
Part__Feature009
100
AcDbCircle
 10
13.000000194
 20
-3.100000000
 30
0.000000000
 40
0.000000000
100
AcDbArc
 50
180.000000000
 51
0.000000000
  0
ARC
  5
A12
330
A02
100
AcDbEntity
  8
Part__Feature009
100
AcDbCircle
 10
13.000000194
 20
-3.100000000
 30
0.000000000
 40
4.500000000
100
AcDbArc
 50
0.000000000
 51
180.000000000
  0
LINE
  5
A13
330
A02
100
AcDbEntity
  8
Part__Feature009
100
AcDbLine
 10
8.500000194
 20
-3.400000000
 30
-0.000000000
 11
8.500000194
 21
-3.100000000
 31
-0.000000000
  0
ARC
  5
A14
330
A02
100
AcDbEntity
  8
Part__Feature009
100
AcDbCircle
 10
13.000000194
 20
-3.400000000
 30
0.000000000
 40
0.000000000
100
AcDbArc
 50
180.000000000
 51
180.000000000
  0
ARC
  5
A15
330
A02
100
AcDbEntity
  8
Part__Feature009
100
AcDbCircle
 10
13.000000194
 20
-2.900000000
 30
-4.100000000
 40
0.100000000
100
AcDbArc
 50
0.000000000
 51
-90.000000000
  0
ARC
  5
A16
330
A02
100
AcDbEntity
  8
Part__Feature009
100
AcDbCircle
 10
13.000000194
 20
-2.900000000
 30
0.000000000
 40
4.000000000
100
AcDbArc
 50
0.000000000
 51
180.000000000
  0
ARC
  5
A17
330
A02
100
AcDbEntity
  8
Part__Feature009
100
AcDbCircle
 10
13.000000194
 20
-2.900000000
 30
0.000000000
 40
0.000000000
100
AcDbArc
 50
180.000000000
 51
0.000000000
  0
ARC
  5
A18
330
A02
100
AcDbEntity
  8
Part__Feature009
100
AcDbCircle
 10
13.000000194
 20
-2.900000000
 30
-4.100000000
 40
0.100000000
100
AcDbArc
 50
0.000000000
 51
-90.000000000
  0
CIRCLE
  5
A19
330
A02
100
AcDbEntity
  8
Part__Feature009
100
AcDbCircle
 10
13.000000194
 20
-3.000000000
 30
0.000000000
 40
4.100000000
  0
ARC
  5
A1A
330
A02
100
AcDbEntity
  8
Part__Feature009
100
AcDbCircle
 10
13.000000194
 20
-2.100000000
 30
0.000000000
 40
4.000000000
100
AcDbArc
 50
0.000000000
 51
180.000000000
  0
LINE
  5
A1B
330
A02
100
AcDbEntity
  8
Part__Feature009
100
AcDbLine
 10
9.000000194
 20
-2.100000000
 30
-0.000000000
 11
9.000000194
 21
-2.900000000
 31
-0.000000000
  0
ARC
  5
A1C
330
A02
100
AcDbEntity
  8
Part__Feature009
100
AcDbCircle
 10
13.000000194
 20
-2.900000000
 30
0.000000000
 40
0.000000000
100
AcDbArc
 50
180.000000000
 51
0.000000000
  0
ARC
  5
A1D
330
A02
100
AcDbEntity
  8
Part__Feature009
100
AcDbCircle
 10
13.000000194
 20
-2.900000000
 30
0.000000000
 40
4.000000000
100
AcDbArc
 50
0.000000000
 51
180.000000000
  0
LINE
  5
A1E
330
A02
100
AcDbEntity
  8
Part__Feature009
100
AcDbLine
 10
9.000000194
 20
-2.100000000
 30
-0.000000000
 11
9.000000194
 21
-2.900000000
 31
-0.000000000
  0
ARC
  5
A1F
330
A02
100
AcDbEntity
  8
Part__Feature009
100
AcDbCircle
 10
13.000000194
 20
-2.100000000
 30
0.000000000
 40
0.000000000
100
AcDbArc
 50
180.000000000
 51
0.000000000
  0
ARC
  5
A20
330
A02
100
AcDbEntity
  8
Part__Feature009
100
AcDbCircle
 10
13.000000194
 20
-1.600000000
 30
0.000000000
 40
4.500000000
100
AcDbArc
 50
0.000000000
 51
180.000000000
  0
ARC
  5
A21
330
A02
100
AcDbEntity
  8
Part__Feature009
100
AcDbCircle
 10
13.000000194
 20
-1.600000000
 30
4.400000000
 40
0.000000000
100
AcDbArc
 50
90.000000000
 51
0.000000000
  0
CIRCLE
  5
A22
330
A02
100
AcDbEntity
  8
Part__Feature009
100
AcDbCircle
 10
13.000000194
 20
-1.500000000
 30
0.000000000
 40
4.400000000
  0
ARC
  5
A23
330
A02
100
AcDbEntity
  8
Part__Feature009
100
AcDbCircle
 10
13.000000194
 20
-1.600000000
 30
4.400000000
 40
0.000000000
100
AcDbArc
 50
90.000000000
 51
0.000000000
  0
ARC
  5
A24
330
A02
100
AcDbEntity
  8
Part__Feature009
100
AcDbCircle
 10
13.000000194
 20
-1.600000000
 30
0.000000000
 40
0.000000000
100
AcDbArc
 50
180.000000000
 51
0.000000000
  0
CIRCLE
  5
A25
330
A02
100
AcDbEntity
  8
Part__Feature009
100
AcDbCircle
 10
13.000000194
 20
-1.500000000
 30
0.000000000
 40
4.400000000
  0
CIRCLE
  5
A26
330
A02
100
AcDbEntity
  8
Part__Feature009
100
AcDbCircle
 10
13.000000194
 20
-1.500000000
 30
0.000000000
 40
4.100000000
  0
ARC
  5
A27
330
A02
100
AcDbEntity
  8
Part__Feature009
100
AcDbCircle
 10
13.000000194
 20
-1.900000000
 30
0.000000000
 40
4.500000000
100
AcDbArc
 50
0.000000000
 51
180.000000000
  0
LINE
  5
A28
330
A02
100
AcDbEntity
  8
Part__Feature009
100
AcDbLine
 10
8.500000194
 20
-1.900000000
 30
-0.000000000
 11
8.500000194
 21
-1.600000000
 31
-0.000000000
  0
ARC
  5
A29
330
A02
100
AcDbEntity
  8
Part__Feature009
100
AcDbCircle
 10
13.000000194
 20
-1.600000000
 30
0.000000000
 40
0.000000000
100
AcDbArc
 50
180.000000000
 51
0.000000000
  0
ARC
  5
A2A
330
A02
100
AcDbEntity
  8
Part__Feature009
100
AcDbCircle
 10
13.000000194
 20
-1.600000000
 30
0.000000000
 40
4.500000000
100
AcDbArc
 50
0.000000000
 51
180.000000000
  0
LINE
  5
A2B
330
A02
100
AcDbEntity
  8
Part__Feature009
100
AcDbLine
 10
8.500000194
 20
-1.900000000
 30
-0.000000000
 11
8.500000194
 21
-1.600000000
 31
-0.000000000
  0
ARC
  5
A2C
330
A02
100
AcDbEntity
  8
Part__Feature009
100
AcDbCircle
 10
13.000000194
 20
-1.900000000
 30
0.000000000
 40
0.000000000
100
AcDbArc
 50
180.000000000
 51
0.000000000
  0
ARC
  5
A2D
330
A02
100
AcDbEntity
  8
Part__Feature009
100
AcDbCircle
 10
13.000000194
 20
-1.400000000
 30
-4.100000000
 40
0.100000000
100
AcDbArc
 50
0.000000000
 51
-90.000000000
  0
ARC
  5
A2E
330
A02
100
AcDbEntity
  8
Part__Feature009
100
AcDbCircle
 10
13.000000194
 20
-1.400000000
 30
0.000000000
 40
4.000000000
100
AcDbArc
 50
0.000000000
 51
180.000000000
  0
ARC
  5
A2F
330
A02
100
AcDbEntity
  8
Part__Feature009
100
AcDbCircle
 10
13.000000194
 20
-1.400000000
 30
0.000000000
 40
0.000000000
100
AcDbArc
 50
180.000000000
 51
0.000000000
  0
ARC
  5
A30
330
A02
100
AcDbEntity
  8
Part__Feature009
100
AcDbCircle
 10
13.000000194
 20
-1.400000000
 30
-4.100000000
 40
0.100000000
100
AcDbArc
 50
0.000000000
 51
-90.000000000
  0
CIRCLE
  5
A31
330
A02
100
AcDbEntity
  8
Part__Feature009
100
AcDbCircle
 10
13.000000194
 20
-1.500000000
 30
0.000000000
 40
4.100000000
  0
ARC
  5
A32
330
A02
100
AcDbEntity
  8
Part__Feature009
100
AcDbCircle
 10
13.000000194
 20
-0.200000000
 30
0.000000000
 40
4.000000000
100
AcDbArc
 50
0.000000000
 51
180.000000000
  0
LINE
  5
A33
330
A02
100
AcDbEntity
  8
Part__Feature009
100
AcDbLine
 10
9.000000194
 20
-0.200000000
 30
-0.000000000
 11
9.000000194
 21
-1.400000000
 31
-0.000000000
  0
ARC
  5
A34
330
A02
100
AcDbEntity
  8
Part__Feature009
100
AcDbCircle
 10
13.000000194
 20
-1.400000000
 30
0.000000000
 40
0.000000000
100
AcDbArc
 50
180.000000000
 51
0.000000000
  0
ARC
  5
A35
330
A02
100
AcDbEntity
  8
Part__Feature009
100
AcDbCircle
 10
13.000000194
 20
-1.400000000
 30
0.000000000
 40
4.000000000
100
AcDbArc
 50
0.000000000
 51
180.000000000
  0
LINE
  5
A36
330
A02
100
AcDbEntity
  8
Part__Feature009
100
AcDbLine
 10
9.000000194
 20
-0.200000000
 30
-0.000000000
 11
9.000000194
 21
-1.400000000
 31
-0.000000000
  0
ARC
  5
A37
330
A02
100
AcDbEntity
  8
Part__Feature009
100
AcDbCircle
 10
13.000000194
 20
-0.200000000
 30
0.000000000
 40
0.000000000
100
AcDbArc
 50
180.000000000
 51
0.000000000
  0
ARC
  5
A38
330
A02
100
AcDbEntity
  8
Part__Feature009
100
AcDbCircle
 10
0.000000000
 20
-3.100000000
 30
0.000000000
 40
4.500000000
100
AcDbArc
 50
180.000000000
 51
180.000000000
  0
ARC
  5
A39
330
A02
100
AcDbEntity
  8
Part__Feature009
100
AcDbCircle
 10
-0.000000000
 20
-3.100000000
 30
4.400000000
 40
0.000000000
100
AcDbArc
 50
90.000000000
 51
180.000000000
  0
CIRCLE
  5
A3A
330
A02
100
AcDbEntity
  8
Part__Feature009
100
AcDbCircle
 10
0.000000000
 20
-3.000000000
 30
0.000000000
 40
4.400000000
  0
ARC
  5
A3B
330
A02
100
AcDbEntity
  8
Part__Feature009
100
AcDbCircle
 10
-0.000000000
 20
-3.100000000
 30
4.400000000
 40
0.000000000
100
AcDbArc
 50
90.000000000
 51
180.000000000
  0
ARC
  5
A3C
330
A02
100
AcDbEntity
  8
Part__Feature009
100
AcDbCircle
 10
0.000000000
 20
-3.100000000
 30
0.000000000
 40
0.000000000
100
AcDbArc
 50
180.000000000
 51
180.000000000
  0
CIRCLE
  5
A3D
330
A02
100
AcDbEntity
  8
Part__Feature009
100
AcDbCircle
 10
0.000000000
 20
-3.000000000
 30
0.000000000
 40
4.400000000
  0
CIRCLE
  5
A3E
330
A02
100
AcDbEntity
  8
Part__Feature009
100
AcDbCircle
 10
0.000000000
 20
-3.000000000
 30
0.000000000
 40
4.100000000
  0
ARC
  5
A3F
330
A02
100
AcDbEntity
  8
Part__Feature009
100
AcDbCircle
 10
0.000000000
 20
-3.400000000
 30
0.000000000
 40
4.500000000
100
AcDbArc
 50
0.000000000
 51
180.000000000
  0
LINE
  5
A40
330
A02
100
AcDbEntity
  8
Part__Feature009
100
AcDbLine
 10
-4.500000000
 20
-3.400000000
 30
-0.000000000
 11
-4.500000000
 21
-3.100000000
 31
-0.000000000
  0
ARC
  5
A41
330
A02
100
AcDbEntity
  8
Part__Feature009
100
AcDbCircle
 10
0.000000000
 20
-3.100000000
 30
0.000000000
 40
0.000000000
100
AcDbArc
 50
180.000000000
 51
180.000000000
  0
ARC
  5
A42
330
A02
100
AcDbEntity
  8
Part__Feature009
100
AcDbCircle
 10
0.000000000
 20
-3.100000000
 30
0.000000000
 40
4.500000000
100
AcDbArc
 50
180.000000000
 51
180.000000000
  0
LINE
  5
A43
330
A02
100
AcDbEntity
  8
Part__Feature009
100
AcDbLine
 10
-4.500000000
 20
-3.400000000
 30
-0.000000000
 11
-4.500000000
 21
-3.100000000
 31
-0.000000000
  0
ARC
  5
A44
330
A02
100
AcDbEntity
  8
Part__Feature009
100
AcDbCircle
 10
0.000000000
 20
-3.400000000
 30
0.000000000
 40
0.000000000
100
AcDbArc
 50
180.000000000
 51
180.000000000
  0
ARC
  5
A45
330
A02
100
AcDbEntity
  8
Part__Feature009
100
AcDbCircle
 10
-0.000000000
 20
-2.900000000
 30
-4.100000000
 40
0.100000000
100
AcDbArc
 50
-90.000000000
 51
0.000000000
  0
ARC
  5
A46
330
A02
100
AcDbEntity
  8
Part__Feature009
100
AcDbCircle
 10
0.000000000
 20
-2.900000000
 30
0.000000000
 40
4.000000000
100
AcDbArc
 50
180.000000000
 51
180.000000000
  0
ARC
  5
A47
330
A02
100
AcDbEntity
  8
Part__Feature009
100
AcDbCircle
 10
0.000000000
 20
-2.900000000
 30
0.000000000
 40
0.000000000
100
AcDbArc
 50
180.000000000
 51
180.000000000
  0
ARC
  5
A48
330
A02
100
AcDbEntity
  8
Part__Feature009
100
AcDbCircle
 10
-0.000000000
 20
-2.900000000
 30
-4.100000000
 40
0.100000000
100
AcDbArc
 50
-90.000000000
 51
0.000000000
  0
CIRCLE
  5
A49
330
A02
100
AcDbEntity
  8
Part__Feature009
100
AcDbCircle
 10
0.000000000
 20
-3.000000000
 30
0.000000000
 40
4.100000000
  0
ARC
  5
A4A
330
A02
100
AcDbEntity
  8
Part__Feature009
100
AcDbCircle
 10
0.000000000
 20
-2.100000000
 30
0.000000000
 40
4.000000000
100
AcDbArc
 50
180.000000000
 51
180.000000000
  0
LINE
  5
A4B
330
A02
100
AcDbEntity
  8
Part__Feature009
100
AcDbLine
 10
-4.000000000
 20
-2.100000000
 30
-0.000000000
 11
-4.000000000
 21
-2.900000000
 31
-0.000000000
  0
ARC
  5
A4C
330
A02
100
AcDbEntity
  8
Part__Feature009
100
AcDbCircle
 10
0.000000000
 20
-2.900000000
 30
0.000000000
 40
0.000000000
100
AcDbArc
 50
180.000000000
 51
180.000000000
  0
ARC
  5
A4D
330
A02
100
AcDbEntity
  8
Part__Feature009
100
AcDbCircle
 10
0.000000000
 20
-2.900000000
 30
0.000000000
 40
4.000000000
100
AcDbArc
 50
180.000000000
 51
180.000000000
  0
LINE
  5
A4E
330
A02
100
AcDbEntity
  8
Part__Feature009
100
AcDbLine
 10
-4.000000000
 20
-2.100000000
 30
-0.000000000
 11
-4.000000000
 21
-2.900000000
 31
-0.000000000
  0
ARC
  5
A4F
330
A02
100
AcDbEntity
  8
Part__Feature009
100
AcDbCircle
 10
0.000000000
 20
-2.100000000
 30
0.000000000
 40
0.000000000
100
AcDbArc
 50
180.000000000
 51
180.000000000
  0
ARC
  5
A50
330
A02
100
AcDbEntity
  8
Part__Feature009
100
AcDbCircle
 10
0.000000000
 20
-1.600000000
 30
0.000000000
 40
4.500000000
100
AcDbArc
 50
180.000000000
 51
180.000000000
  0
ARC
  5
A51
330
A02
100
AcDbEntity
  8
Part__Feature009
100
AcDbCircle
 10
-0.000000000
 20
-1.600000000
 30
4.400000000
 40
0.000000000
100
AcDbArc
 50
90.000000000
 51
180.000000000
  0
CIRCLE
  5
A52
330
A02
100
AcDbEntity
  8
Part__Feature009
100
AcDbCircle
 10
0.000000000
 20
-1.500000000
 30
0.000000000
 40
4.400000000
  0
ARC
  5
A53
330
A02
100
AcDbEntity
  8
Part__Feature009
100
AcDbCircle
 10
-0.000000000
 20
-1.600000000
 30
4.400000000
 40
0.000000000
100
AcDbArc
 50
90.000000000
 51
180.000000000
  0
ARC
  5
A54
330
A02
100
AcDbEntity
  8
Part__Feature009
100
AcDbCircle
 10
0.000000000
 20
-1.600000000
 30
0.000000000
 40
0.000000000
100
AcDbArc
 50
180.000000000
 51
180.000000000
  0
CIRCLE
  5
A55
330
A02
100
AcDbEntity
  8
Part__Feature009
100
AcDbCircle
 10
0.000000000
 20
-1.500000000
 30
0.000000000
 40
4.400000000
  0
CIRCLE
  5
A56
330
A02
100
AcDbEntity
  8
Part__Feature009
100
AcDbCircle
 10
0.000000000
 20
-1.500000000
 30
0.000000000
 40
4.100000000
  0
ARC
  5
A57
330
A02
100
AcDbEntity
  8
Part__Feature009
100
AcDbCircle
 10
0.000000000
 20
-1.900000000
 30
0.000000000
 40
4.500000000
100
AcDbArc
 50
180.000000000
 51
180.000000000
  0
LINE
  5
A58
330
A02
100
AcDbEntity
  8
Part__Feature009
100
AcDbLine
 10
-4.500000000
 20
-1.900000000
 30
-0.000000000
 11
-4.500000000
 21
-1.600000000
 31
-0.000000000
  0
ARC
  5
A59
330
A02
100
AcDbEntity
  8
Part__Feature009
100
AcDbCircle
 10
0.000000000
 20
-1.600000000
 30
0.000000000
 40
0.000000000
100
AcDbArc
 50
180.000000000
 51
180.000000000
  0
ARC
  5
A5A
330
A02
100
AcDbEntity
  8
Part__Feature009
100
AcDbCircle
 10
0.000000000
 20
-1.600000000
 30
0.000000000
 40
4.500000000
100
AcDbArc
 50
180.000000000
 51
180.000000000
  0
LINE
  5
A5B
330
A02
100
AcDbEntity
  8
Part__Feature009
100
AcDbLine
 10
-4.500000000
 20
-1.900000000
 30
-0.000000000
 11
-4.500000000
 21
-1.600000000
 31
-0.000000000
  0
ARC
  5
A5C
330
A02
100
AcDbEntity
  8
Part__Feature009
100
AcDbCircle
 10
0.000000000
 20
-1.900000000
 30
0.000000000
 40
0.000000000
100
AcDbArc
 50
180.000000000
 51
180.000000000
  0
ARC
  5
A5D
330
A02
100
AcDbEntity
  8
Part__Feature009
100
AcDbCircle
 10
-0.000000000
 20
-1.400000000
 30
-4.100000000
 40
0.100000000
100
AcDbArc
 50
-90.000000000
 51
0.000000000
  0
ARC
  5
A5E
330
A02
100
AcDbEntity
  8
Part__Feature009
100
AcDbCircle
 10
0.000000000
 20
-1.400000000
 30
0.000000000
 40
4.000000000
100
AcDbArc
 50
180.000000000
 51
180.000000000
  0
ARC
  5
A5F
330
A02
100
AcDbEntity
  8
Part__Feature009
100
AcDbCircle
 10
0.000000000
 20
-1.400000000
 30
0.000000000
 40
0.000000000
100
AcDbArc
 50
180.000000000
 51
180.000000000
  0
ARC
  5
A60
330
A02
100
AcDbEntity
  8
Part__Feature009
100
AcDbCircle
 10
-0.000000000
 20
-1.400000000
 30
-4.100000000
 40
0.100000000
100
AcDbArc
 50
-90.000000000
 51
0.000000000
  0
CIRCLE
  5
A61
330
A02
100
AcDbEntity
  8
Part__Feature009
100
AcDbCircle
 10
0.000000000
 20
-1.500000000
 30
0.000000000
 40
4.100000000
  0
ARC
  5
A62
330
A02
100
AcDbEntity
  8
Part__Feature009
100
AcDbCircle
 10
0.000000000
 20
-0.200000000
 30
0.000000000
 40
4.000000000
100
AcDbArc
 50
180.000000000
 51
180.000000000
  0
LINE
  5
A63
330
A02
100
AcDbEntity
  8
Part__Feature009
100
AcDbLine
 10
-4.000000000
 20
-0.200000000
 30
-0.000000000
 11
-4.000000000
 21
-1.400000000
 31
-0.000000000
  0
ARC
  5
A64
330
A02
100
AcDbEntity
  8
Part__Feature009
100
AcDbCircle
 10
0.000000000
 20
-1.400000000
 30
0.000000000
 40
0.000000000
100
AcDbArc
 50
180.000000000
 51
180.000000000
  0
ARC
  5
A65
330
A02
100
AcDbEntity
  8
Part__Feature009
100
AcDbCircle
 10
0.000000000
 20
-1.400000000
 30
0.000000000
 40
4.000000000
100
AcDbArc
 50
180.000000000
 51
180.000000000
  0
LINE
  5
A66
330
A02
100
AcDbEntity
  8
Part__Feature009
100
AcDbLine
 10
-4.000000000
 20
-0.200000000
 30
-0.000000000
 11
-4.000000000
 21
-1.400000000
 31
-0.000000000
  0
ARC
  5
A67
330
A02
100
AcDbEntity
  8
Part__Feature009
100
AcDbCircle
 10
0.000000000
 20
-0.200000000
 30
0.000000000
 40
0.000000000
100
AcDbArc
 50
180.000000000
 51
180.000000000
  0
ARC
  5
A68
330
A02
100
AcDbEntity
  8
Part__Feature009
100
AcDbCircle
 10
6.500000000
 20
-1.600000000
 30
-11.258330249
 40
4.500000000
100
AcDbArc
 50
180.000000000
 51
180.000000000
  0
ARC
  5
A69
330
A02
100
AcDbEntity
  8
Part__Feature009
100
AcDbCircle
 10
6.500000000
 20
-1.600000000
 30
-6.858330249
 40
0.000000000
100
AcDbArc
 50
90.000000000
 51
0.000000000
  0
CIRCLE
  5
A6A
330
A02
100
AcDbEntity
  8
Part__Feature009
100
AcDbCircle
 10
6.500000000
 20
-1.500000000
 30
-11.258330249
 40
4.400000000
  0
ARC
  5
A6B
330
A02
100
AcDbEntity
  8
Part__Feature009
100
AcDbCircle
 10
6.500000000
 20
-1.600000000
 30
-6.858330249
 40
0.000000000
100
AcDbArc
 50
90.000000000
 51
0.000000000
  0
ARC
  5
A6C
330
A02
100
AcDbEntity
  8
Part__Feature009
100
AcDbCircle
 10
6.500000000
 20
-1.600000000
 30
-11.258330249
 40
0.000000000
100
AcDbArc
 50
180.000000000
 51
180.000000000
  0
CIRCLE
  5
A6D
330
A02
100
AcDbEntity
  8
Part__Feature009
100
AcDbCircle
 10
6.500000000
 20
-1.500000000
 30
-11.258330249
 40
4.400000000
  0
CIRCLE
  5
A6E
330
A02
100
AcDbEntity
  8
Part__Feature009
100
AcDbCircle
 10
6.500000000
 20
-1.500000000
 30
-11.258330249
 40
4.100000000
  0
ARC
  5
A6F
330
A02
100
AcDbEntity
  8
Part__Feature009
100
AcDbCircle
 10
6.500000000
 20
-1.900000000
 30
-11.258330249
 40
4.500000000
100
AcDbArc
 50
180.000000000
 51
180.000000000
  0
LINE
  5
A70
330
A02
100
AcDbEntity
  8
Part__Feature009
100
AcDbLine
 10
2.000000000
 20
-1.900000000
 30
-11.258330249
 11
2.000000000
 21
-1.600000000
 31
-11.258330249
  0
ARC
  5
A71
330
A02
100
AcDbEntity
  8
Part__Feature009
100
AcDbCircle
 10
6.500000000
 20
-1.600000000
 30
-11.258330249
 40
0.000000000
100
AcDbArc
 50
180.000000000
 51
180.000000000
  0
ARC
  5
A72
330
A02
100
AcDbEntity
  8
Part__Feature009
100
AcDbCircle
 10
6.500000000
 20
-1.600000000
 30
-11.258330249
 40
4.500000000
100
AcDbArc
 50
180.000000000
 51
180.000000000
  0
LINE
  5
A73
330
A02
100
AcDbEntity
  8
Part__Feature009
100
AcDbLine
 10
2.000000000
 20
-1.900000000
 30
-11.258330249
 11
2.000000000
 21
-1.600000000
 31
-11.258330249
  0
ARC
  5
A74
330
A02
100
AcDbEntity
  8
Part__Feature009
100
AcDbCircle
 10
6.500000000
 20
-1.900000000
 30
-11.258330249
 40
0.000000000
100
AcDbArc
 50
180.000000000
 51
180.000000000
  0
ARC
  5
A75
330
A02
100
AcDbEntity
  8
Part__Feature009
100
AcDbCircle
 10
6.500000000
 20
-1.400000000
 30
-15.358330249
 40
0.100000000
100
AcDbArc
 50
0.000000000
 51
-90.000000000
  0
ARC
  5
A76
330
A02
100
AcDbEntity
  8
Part__Feature009
100
AcDbCircle
 10
6.500000000
 20
-1.400000000
 30
-11.258330249
 40
4.000000000
100
AcDbArc
 50
180.000000000
 51
180.000000000
  0
ARC
  5
A77
330
A02
100
AcDbEntity
  8
Part__Feature009
100
AcDbCircle
 10
6.500000000
 20
-1.400000000
 30
-11.258330249
 40
0.000000000
100
AcDbArc
 50
180.000000000
 51
180.000000000
  0
ARC
  5
A78
330
A02
100
AcDbEntity
  8
Part__Feature009
100
AcDbCircle
 10
6.500000000
 20
-1.400000000
 30
-15.358330249
 40
0.100000000
100
AcDbArc
 50
0.000000000
 51
-90.000000000
  0
CIRCLE
  5
A79
330
A02
100
AcDbEntity
  8
Part__Feature009
100
AcDbCircle
 10
6.500000000
 20
-1.500000000
 30
-11.258330249
 40
4.100000000
  0
ARC
  5
A7A
330
A02
100
AcDbEntity
  8
Part__Feature009
100
AcDbCircle
 10
6.500000000
 20
-0.200000000
 30
-11.258330249
 40
4.000000000
100
AcDbArc
 50
180.000000000
 51
180.000000000
  0
LINE
  5
A7B
330
A02
100
AcDbEntity
  8
Part__Feature009
100
AcDbLine
 10
2.500000000
 20
-0.200000000
 30
-11.258330249
 11
2.500000000
 21
-1.400000000
 31
-11.258330249
  0
ARC
  5
A7C
330
A02
100
AcDbEntity
  8
Part__Feature009
100
AcDbCircle
 10
6.500000000
 20
-1.400000000
 30
-11.258330249
 40
0.000000000
100
AcDbArc
 50
180.000000000
 51
180.000000000
  0
ARC
  5
A7D
330
A02
100
AcDbEntity
  8
Part__Feature009
100
AcDbCircle
 10
6.500000000
 20
-1.400000000
 30
-11.258330249
 40
4.000000000
100
AcDbArc
 50
180.000000000
 51
180.000000000
  0
LINE
  5
A7E
330
A02
100
AcDbEntity
  8
Part__Feature009
100
AcDbLine
 10
2.500000000
 20
-0.200000000
 30
-11.258330249
 11
2.500000000
 21
-1.400000000
 31
-11.258330249
  0
ARC
  5
A7F
330
A02
100
AcDbEntity
  8
Part__Feature009
100
AcDbCircle
 10
6.500000000
 20
-0.200000000
 30
-11.258330249
 40
0.000000000
100
AcDbArc
 50
180.000000000
 51
180.000000000
  0
ARC
  5
A80
330
A02
100
AcDbEntity
  8
Part__Feature009
100
AcDbCircle
 10
6.500000000
 20
-3.100000000
 30
-11.258330249
 40
4.500000000
100
AcDbArc
 50
180.000000000
 51
180.000000000
  0
ARC
  5
A81
330
A02
100
AcDbEntity
  8
Part__Feature009
100
AcDbCircle
 10
6.500000000
 20
-3.100000000
 30
-6.858330249
 40
0.000000000
100
AcDbArc
 50
90.000000000
 51
0.000000000
  0
CIRCLE
  5
A82
330
A02
100
AcDbEntity
  8
Part__Feature009
100
AcDbCircle
 10
6.500000000
 20
-3.000000000
 30
-11.258330249
 40
4.400000000
  0
ARC
  5
A83
330
A02
100
AcDbEntity
  8
Part__Feature009
100
AcDbCircle
 10
6.500000000
 20
-3.100000000
 30
-6.858330249
 40
0.000000000
100
AcDbArc
 50
90.000000000
 51
0.000000000
  0
ARC
  5
A84
330
A02
100
AcDbEntity
  8
Part__Feature009
100
AcDbCircle
 10
6.500000000
 20
-3.100000000
 30
-11.258330249
 40
0.000000000
100
AcDbArc
 50
180.000000000
 51
180.000000000
  0
CIRCLE
  5
A85
330
A02
100
AcDbEntity
  8
Part__Feature009
100
AcDbCircle
 10
6.500000000
 20
-3.000000000
 30
-11.258330249
 40
4.400000000
  0
CIRCLE
  5
A86
330
A02
100
AcDbEntity
  8
Part__Feature009
100
AcDbCircle
 10
6.500000000
 20
-3.000000000
 30
-11.258330249
 40
4.100000000
  0
ARC
  5
A87
330
A02
100
AcDbEntity
  8
Part__Feature009
100
AcDbCircle
 10
6.500000000
 20
-3.400000000
 30
-11.258330249
 40
4.500000000
100
AcDbArc
 50
0.000000000
 51
180.000000000
  0
LINE
  5
A88
330
A02
100
AcDbEntity
  8
Part__Feature009
100
AcDbLine
 10
2.000000000
 20
-3.400000000
 30
-11.258330249
 11
2.000000000
 21
-3.100000000
 31
-11.258330249
  0
ARC
  5
A89
330
A02
100
AcDbEntity
  8
Part__Feature009
100
AcDbCircle
 10
6.500000000
 20
-3.100000000
 30
-11.258330249
 40
0.000000000
100
AcDbArc
 50
180.000000000
 51
180.000000000
  0
ARC
  5
A8A
330
A02
100
AcDbEntity
  8
Part__Feature009
100
AcDbCircle
 10
6.500000000
 20
-3.100000000
 30
-11.258330249
 40
4.500000000
100
AcDbArc
 50
180.000000000
 51
180.000000000
  0
LINE
  5
A8B
330
A02
100
AcDbEntity
  8
Part__Feature009
100
AcDbLine
 10
2.000000000
 20
-3.400000000
 30
-11.258330249
 11
2.000000000
 21
-3.100000000
 31
-11.258330249
  0
ARC
  5
A8C
330
A02
100
AcDbEntity
  8
Part__Feature009
100
AcDbCircle
 10
6.500000000
 20
-3.400000000
 30
-11.258330249
 40
0.000000000
100
AcDbArc
 50
180.000000000
 51
180.000000000
  0
ARC
  5
A8D
330
A02
100
AcDbEntity
  8
Part__Feature009
100
AcDbCircle
 10
6.500000000
 20
-2.900000000
 30
-15.358330249
 40
0.100000000
100
AcDbArc
 50
0.000000000
 51
-90.000000000
  0
ARC
  5
A8E
330
A02
100
AcDbEntity
  8
Part__Feature009
100
AcDbCircle
 10
6.500000000
 20
-2.900000000
 30
-11.258330249
 40
4.000000000
100
AcDbArc
 50
180.000000000
 51
180.000000000
  0
ARC
  5
A8F
330
A02
100
AcDbEntity
  8
Part__Feature009
100
AcDbCircle
 10
6.500000000
 20
-2.900000000
 30
-11.258330249
 40
0.000000000
100
AcDbArc
 50
180.000000000
 51
180.000000000
  0
ARC
  5
A90
330
A02
100
AcDbEntity
  8
Part__Feature009
100
AcDbCircle
 10
6.500000000
 20
-2.900000000
 30
-15.358330249
 40
0.100000000
100
AcDbArc
 50
0.000000000
 51
-90.000000000
  0
CIRCLE
  5
A91
330
A02
100
AcDbEntity
  8
Part__Feature009
100
AcDbCircle
 10
6.500000000
 20
-3.000000000
 30
-11.258330249
 40
4.100000000
  0
ARC
  5
A92
330
A02
100
AcDbEntity
  8
Part__Feature009
100
AcDbCircle
 10
6.500000000
 20
-2.100000000
 30
-11.258330249
 40
4.000000000
100
AcDbArc
 50
180.000000000
 51
180.000000000
  0
LINE
  5
A93
330
A02
100
AcDbEntity
  8
Part__Feature009
100
AcDbLine
 10
2.500000000
 20
-2.100000000
 30
-11.258330249
 11
2.500000000
 21
-2.900000000
 31
-11.258330249
  0
ARC
  5
A94
330
A02
100
AcDbEntity
  8
Part__Feature009
100
AcDbCircle
 10
6.500000000
 20
-2.900000000
 30
-11.258330249
 40
0.000000000
100
AcDbArc
 50
180.000000000
 51
180.000000000
  0
ARC
  5
A95
330
A02
100
AcDbEntity
  8
Part__Feature009
100
AcDbCircle
 10
6.500000000
 20
-2.900000000
 30
-11.258330249
 40
4.000000000
100
AcDbArc
 50
180.000000000
 51
180.000000000
  0
LINE
  5
A96
330
A02
100
AcDbEntity
  8
Part__Feature009
100
AcDbLine
 10
2.500000000
 20
-2.100000000
 30
-11.258330249
 11
2.500000000
 21
-2.900000000
 31
-11.258330249
  0
ARC
  5
A97
330
A02
100
AcDbEntity
  8
Part__Feature009
100
AcDbCircle
 10
6.500000000
 20
-2.100000000
 30
-11.258330249
 40
0.000000000
100
AcDbArc
 50
180.000000000
 51
180.000000000
  0
ARC
  5
A98
330
A02
100
AcDbEntity
  8
Part__Feature009
100
AcDbCircle
 10
13.000000194
 20
-1.900000000
 30
0.000000000
 40
4.500000000
100
AcDbArc
 50
0.000000000
 51
180.000000000
  0
ARC
  5
A99
330
A02
100
AcDbEntity
  8
Part__Feature009
100
AcDbCircle
 10
13.000000194
 20
-1.900000000
 30
-4.400000000
 40
0.000000000
100
AcDbArc
 50
-90.000000000
 51
0.000000000
  0
CIRCLE
  5
A9A
330
A02
100
AcDbEntity
  8
Part__Feature009
100
AcDbCircle
 10
13.000000194
 20
-2.000000000
 30
0.000000000
 40
4.400000000
  0
ARC
  5
A9B
330
A02
100
AcDbEntity
  8
Part__Feature009
100
AcDbCircle
 10
13.000000194
 20
-1.900000000
 30
-4.400000000
 40
0.000000000
100
AcDbArc
 50
-90.000000000
 51
0.000000000
  0
ARC
  5
A9C
330
A02
100
AcDbEntity
  8
Part__Feature009
100
AcDbCircle
 10
13.000000194
 20
-1.900000000
 30
0.000000000
 40
0.000000000
100
AcDbArc
 50
180.000000000
 51
0.000000000
  0
CIRCLE
  5
A9D
330
A02
100
AcDbEntity
  8
Part__Feature009
100
AcDbCircle
 10
13.000000194
 20
-2.000000000
 30
0.000000000
 40
4.400000000
  0
CIRCLE
  5
A9E
330
A02
100
AcDbEntity
  8
Part__Feature009
100
AcDbCircle
 10
13.000000194
 20
-2.000000000
 30
0.000000000
 40
4.100000000
  0
ARC
  5
A9F
330
A02
100
AcDbEntity
  8
Part__Feature009
100
AcDbCircle
 10
13.000000194
 20
-2.100000000
 30
4.100000000
 40
0.100000000
100
AcDbArc
 50
0.000000000
 51
90.000000000
  0
ARC
  5
AA0
330
A02
100
AcDbEntity
  8
Part__Feature009
100
AcDbCircle
 10
13.000000194
 20
-2.100000000
 30
0.000000000
 40
4.000000000
100
AcDbArc
 50
0.000000000
 51
180.000000000
  0
ARC
  5
AA1
330
A02
100
AcDbEntity
  8
Part__Feature009
100
AcDbCircle
 10
13.000000194
 20
-2.100000000
 30
0.000000000
 40
0.000000000
100
AcDbArc
 50
180.000000000
 51
0.000000000
  0
ARC
  5
AA2
330
A02
100
AcDbEntity
  8
Part__Feature009
100
AcDbCircle
 10
13.000000194
 20
-2.100000000
 30
4.100000000
 40
0.100000000
100
AcDbArc
 50
0.000000000
 51
90.000000000
  0
CIRCLE
  5
AA3
330
A02
100
AcDbEntity
  8
Part__Feature009
100
AcDbCircle
 10
13.000000194
 20
-2.000000000
 30
0.000000000
 40
4.100000000
  0
CIRCLE
  5
AA4
330
A02
100
AcDbEntity
  8
Part__Feature009
100
AcDbCircle
 10
13.000000194
 20
-3.500000000
 30
0.000000000
 40
4.400000000
  0
ARC
  5
AA5
330
A02
100
AcDbEntity
  8
Part__Feature009
100
AcDbCircle
 10
13.000000194
 20
-3.400000000
 30
4.400000000
 40
0.100000000
100
AcDbArc
 50
0.000000000
 51
-90.000000000
  0
ARC
  5
AA6
330
A02
100
AcDbEntity
  8
Part__Feature009
100
AcDbCircle
 10
13.000000194
 20
-3.400000000
 30
0.000000000
 40
0.000000000
100
AcDbArc
 50
180.000000000
 51
180.000000000
  0
ARC
  5
AA7
330
A02
100
AcDbEntity
  8
Part__Feature009
100
AcDbCircle
 10
13.000000194
 20
-3.400000000
 30
0.000000000
 40
4.500000000
100
AcDbArc
 50
0.000000000
 51
180.000000000
  0
ARC
  5
AA8
330
A02
100
AcDbEntity
  8
Part__Feature009
100
AcDbCircle
 10
13.000000194
 20
-3.400000000
 30
4.400000000
 40
0.100000000
100
AcDbArc
 50
0.000000000
 51
-90.000000000
  0
CIRCLE
  5
AA9
330
A02
100
AcDbEntity
  8
Part__Feature009
100
AcDbCircle
 10
13.000000194
 20
-3.500000000
 30
0.000000000
 40
4.400000000
  0
CIRCLE
  5
AAA
330
A02
100
AcDbEntity
  8
Part__Feature009
100
AcDbCircle
 10
13.000000194
 20
-3.500000000
 30
0.000000000
 40
3.700000000
  0
CIRCLE
  5
AAB
330
A02
100
AcDbEntity
  8
Part__Feature009
100
AcDbCircle
 10
13.000000194
 20
-3.500000000
 30
0.000000000
 40
3.700000000
  0
ARC
  5
AAC
330
A02
100
AcDbEntity
  8
Part__Feature009
100
AcDbCircle
 10
13.000000194
 20
-3.400000000
 30
-3.700000000
 40
0.100000000
100
AcDbArc
 50
0.000000000
 51
-90.000000000
  0
ARC
  5
AAD
330
A02
100
AcDbEntity
  8
Part__Feature009
100
AcDbCircle
 10
13.000000194
 20
-3.400000000
 30
0.000000000
 40
0.000000000
100
AcDbArc
 50
180.000000000
 51
180.000000000
  0
ARC
  5
AAE
330
A02
100
AcDbEntity
  8
Part__Feature009
100
AcDbCircle
 10
13.000000194
 20
-3.400000000
 30
0.000000000
 40
3.600000000
100
AcDbArc
 50
0.000000000
 51
180.000000000
  0
ARC
  5
AAF
330
A02
100
AcDbEntity
  8
Part__Feature009
100
AcDbCircle
 10
13.000000194
 20
-3.400000000
 30
-3.700000000
 40
0.100000000
100
AcDbArc
 50
0.000000000
 51
-90.000000000
  0
ARC
  5
AB0
330
A02
100
AcDbEntity
  8
Part__Feature009
100
AcDbCircle
 10
13.000000194
 20
-3.400000000
 30
0.000000000
 40
0.000000000
100
AcDbArc
 50
180.000000000
 51
180.000000000
  0
LINE
  5
AB1
330
A02
100
AcDbEntity
  8
Part__Feature009
100
AcDbLine
 10
9.400000194
 20
-3.400000000
 30
-0.000000000
 11
9.400000194
 21
0.000000000
 31
-0.000000000
  0
CIRCLE
  5
AB2
330
A02
100
AcDbEntity
  8
Part__Feature009
100
AcDbCircle
 10
13.000000000
 20
0.000000000
 30
0.000000000
 40
3.600000000
  0
LINE
  5
AB3
330
A02
100
AcDbEntity
  8
Part__Feature009
100
AcDbLine
 10
9.400000194
 20
-3.400000000
 30
-0.000000000
 11
9.400000194
 21
0.000000000
 31
-0.000000000
  0
ARC
  5
AB4
330
A02
100
AcDbEntity
  8
Part__Feature009
100
AcDbCircle
 10
13.000000194
 20
-3.400000000
 30
0.000000000
 40
3.600000000
100
AcDbArc
 50
0.000000000
 51
180.000000000
  0
ARC
  5
AB5
330
A02
100
AcDbEntity
  8
Part__Feature009
100
AcDbCircle
 10
0.000000000
 20
-1.900000000
 30
0.000000000
 40
4.500000000
100
AcDbArc
 50
180.000000000
 51
180.000000000
  0
ARC
  5
AB6
330
A02
100
AcDbEntity
  8
Part__Feature009
100
AcDbCircle
 10
-0.000000000
 20
-1.900000000
 30
-4.400000000
 40
0.000000000
100
AcDbArc
 50
180.000000000
 51
-90.000000000
  0
CIRCLE
  5
AB7
330
A02
100
AcDbEntity
  8
Part__Feature009
100
AcDbCircle
 10
0.000000000
 20
-2.000000000
 30
0.000000000
 40
4.400000000
  0
ARC
  5
AB8
330
A02
100
AcDbEntity
  8
Part__Feature009
100
AcDbCircle
 10
-0.000000000
 20
-1.900000000
 30
-4.400000000
 40
0.000000000
100
AcDbArc
 50
180.000000000
 51
-90.000000000
  0
ARC
  5
AB9
330
A02
100
AcDbEntity
  8
Part__Feature009
100
AcDbCircle
 10
0.000000000
 20
-1.900000000
 30
0.000000000
 40
0.000000000
100
AcDbArc
 50
180.000000000
 51
180.000000000
  0
CIRCLE
  5
ABA
330
A02
100
AcDbEntity
  8
Part__Feature009
100
AcDbCircle
 10
0.000000000
 20
-2.000000000
 30
0.000000000
 40
4.400000000
  0
CIRCLE
  5
ABB
330
A02
100
AcDbEntity
  8
Part__Feature009
100
AcDbCircle
 10
0.000000000
 20
-2.000000000
 30
0.000000000
 40
4.100000000
  0
ARC
  5
ABC
330
A02
100
AcDbEntity
  8
Part__Feature009
100
AcDbCircle
 10
-0.000000000
 20
-2.100000000
 30
4.100000000
 40
0.100000000
100
AcDbArc
 50
0.000000000
 51
90.000000000
  0
ARC
  5
ABD
330
A02
100
AcDbEntity
  8
Part__Feature009
100
AcDbCircle
 10
0.000000000
 20
-2.100000000
 30
0.000000000
 40
4.000000000
100
AcDbArc
 50
180.000000000
 51
180.000000000
  0
ARC
  5
ABE
330
A02
100
AcDbEntity
  8
Part__Feature009
100
AcDbCircle
 10
0.000000000
 20
-2.100000000
 30
0.000000000
 40
0.000000000
100
AcDbArc
 50
180.000000000
 51
180.000000000
  0
ARC
  5
ABF
330
A02
100
AcDbEntity
  8
Part__Feature009
100
AcDbCircle
 10
-0.000000000
 20
-2.100000000
 30
4.100000000
 40
0.100000000
100
AcDbArc
 50
0.000000000
 51
90.000000000
  0
CIRCLE
  5
AC0
330
A02
100
AcDbEntity
  8
Part__Feature009
100
AcDbCircle
 10
0.000000000
 20
-2.000000000
 30
0.000000000
 40
4.100000000
  0
CIRCLE
  5
AC1
330
A02
100
AcDbEntity
  8
Part__Feature009
100
AcDbCircle
 10
0.000000000
 20
-3.500000000
 30
0.000000000
 40
4.400000000
  0
ARC
  5
AC2
330
A02
100
AcDbEntity
  8
Part__Feature009
100
AcDbCircle
 10
-0.000000000
 20
-3.400000000
 30
4.400000000
 40
0.100000000
100
AcDbArc
 50
180.000000000
 51
-90.000000000
  0
ARC
  5
AC3
330
A02
100
AcDbEntity
  8
Part__Feature009
100
AcDbCircle
 10
0.000000000
 20
-3.400000000
 30
0.000000000
 40
0.000000000
100
AcDbArc
 50
180.000000000
 51
180.000000000
  0
ARC
  5
AC4
330
A02
100
AcDbEntity
  8
Part__Feature009
100
AcDbCircle
 10
0.000000000
 20
-3.400000000
 30
0.000000000
 40
4.500000000
100
AcDbArc
 50
0.000000000
 51
180.000000000
  0
ARC
  5
AC5
330
A02
100
AcDbEntity
  8
Part__Feature009
100
AcDbCircle
 10
-0.000000000
 20
-3.400000000
 30
4.400000000
 40
0.100000000
100
AcDbArc
 50
180.000000000
 51
-90.000000000
  0
CIRCLE
  5
AC6
330
A02
100
AcDbEntity
  8
Part__Feature009
100
AcDbCircle
 10
0.000000000
 20
-3.500000000
 30
0.000000000
 40
4.400000000
  0
CIRCLE
  5
AC7
330
A02
100
AcDbEntity
  8
Part__Feature009
100
AcDbCircle
 10
0.000000000
 20
-3.500000000
 30
0.000000000
 40
3.700000000
  0
CIRCLE
  5
AC8
330
A02
100
AcDbEntity
  8
Part__Feature009
100
AcDbCircle
 10
0.000000000
 20
-3.500000000
 30
0.000000000
 40
3.700000000
  0
ARC
  5
AC9
330
A02
100
AcDbEntity
  8
Part__Feature009
100
AcDbCircle
 10
-0.000000000
 20
-3.400000000
 30
-3.700000000
 40
0.100000000
100
AcDbArc
 50
-90.000000000
 51
0.000000000
  0
ARC
  5
ACA
330
A02
100
AcDbEntity
  8
Part__Feature009
100
AcDbCircle
 10
0.000000000
 20
-3.400000000
 30
0.000000000
 40
0.000000000
100
AcDbArc
 50
180.000000000
 51
180.000000000
  0
ARC
  5
ACB
330
A02
100
AcDbEntity
  8
Part__Feature009
100
AcDbCircle
 10
0.000000000
 20
-3.400000000
 30
0.000000000
 40
3.600000000
100
AcDbArc
 50
0.000000000
 51
180.000000000
  0
ARC
  5
ACC
330
A02
100
AcDbEntity
  8
Part__Feature009
100
AcDbCircle
 10
-0.000000000
 20
-3.400000000
 30
-3.700000000
 40
0.100000000
100
AcDbArc
 50
-90.000000000
 51
0.000000000
  0
ARC
  5
ACD
330
A02
100
AcDbEntity
  8
Part__Feature009
100
AcDbCircle
 10
0.000000000
 20
-3.400000000
 30
0.000000000
 40
0.000000000
100
AcDbArc
 50
180.000000000
 51
180.000000000
  0
LINE
  5
ACE
330
A02
100
AcDbEntity
  8
Part__Feature009
100
AcDbLine
 10
-3.600000000
 20
-3.400000000
 30
-0.000000000
 11
-3.600000000
 21
0.000000000
 31
-0.000000000
  0
CIRCLE
  5
ACF
330
A02
100
AcDbEntity
  8
Part__Feature009
100
AcDbCircle
 10
0.000000000
 20
0.000000000
 30
0.000000000
 40
3.600000000
  0
LINE
  5
AD0
330
A02
100
AcDbEntity
  8
Part__Feature009
100
AcDbLine
 10
-3.600000000
 20
-3.400000000
 30
-0.000000000
 11
-3.600000000
 21
0.000000000
 31
-0.000000000
  0
ARC
  5
AD1
330
A02
100
AcDbEntity
  8
Part__Feature009
100
AcDbCircle
 10
0.000000000
 20
-3.400000000
 30
0.000000000
 40
3.600000000
100
AcDbArc
 50
0.000000000
 51
180.000000000
  0
CIRCLE
  5
AD2
330
A02
100
AcDbEntity
  8
Part__Feature009
100
AcDbCircle
 10
6.500000000
 20
-3.500000000
 30
-11.258330249
 40
4.400000000
  0
ARC
  5
AD3
330
A02
100
AcDbEntity
  8
Part__Feature009
100
AcDbCircle
 10
6.500000000
 20
-3.400000000
 30
-6.858330249
 40
0.100000000
100
AcDbArc
 50
0.000000000
 51
-90.000000000
  0
ARC
  5
AD4
330
A02
100
AcDbEntity
  8
Part__Feature009
100
AcDbCircle
 10
6.500000000
 20
-3.400000000
 30
-11.258330249
 40
0.000000000
100
AcDbArc
 50
180.000000000
 51
180.000000000
  0
ARC
  5
AD5
330
A02
100
AcDbEntity
  8
Part__Feature009
100
AcDbCircle
 10
6.500000000
 20
-3.400000000
 30
-11.258330249
 40
4.500000000
100
AcDbArc
 50
0.000000000
 51
180.000000000
  0
ARC
  5
AD6
330
A02
100
AcDbEntity
  8
Part__Feature009
100
AcDbCircle
 10
6.500000000
 20
-3.400000000
 30
-6.858330249
 40
0.100000000
100
AcDbArc
 50
0.000000000
 51
-90.000000000
  0
CIRCLE
  5
AD7
330
A02
100
AcDbEntity
  8
Part__Feature009
100
AcDbCircle
 10
6.500000000
 20
-3.500000000
 30
-11.258330249
 40
4.400000000
  0
CIRCLE
  5
AD8
330
A02
100
AcDbEntity
  8
Part__Feature009
100
AcDbCircle
 10
6.500000000
 20
-3.500000000
 30
-11.258330249
 40
3.700000000
  0
CIRCLE
  5
AD9
330
A02
100
AcDbEntity
  8
Part__Feature009
100
AcDbCircle
 10
6.500000000
 20
-3.500000000
 30
-11.258330249
 40
3.700000000
  0
ARC
  5
ADA
330
A02
100
AcDbEntity
  8
Part__Feature009
100
AcDbCircle
 10
6.500000000
 20
-3.400000000
 30
-14.958330249
 40
0.100000000
100
AcDbArc
 50
0.000000000
 51
-90.000000000
  0
ARC
  5
ADB
330
A02
100
AcDbEntity
  8
Part__Feature009
100
AcDbCircle
 10
6.500000000
 20
-3.400000000
 30
-11.258330249
 40
0.000000000
100
AcDbArc
 50
180.000000000
 51
180.000000000
  0
ARC
  5
ADC
330
A02
100
AcDbEntity
  8
Part__Feature009
100
AcDbCircle
 10
6.500000000
 20
-3.400000000
 30
-11.258330249
 40
3.600000000
100
AcDbArc
 50
0.000000000
 51
180.000000000
  0
ARC
  5
ADD
330
A02
100
AcDbEntity
  8
Part__Feature009
100
AcDbCircle
 10
6.500000000
 20
-3.400000000
 30
-14.958330249
 40
0.100000000
100
AcDbArc
 50
0.000000000
 51
-90.000000000
  0
ARC
  5
ADE
330
A02
100
AcDbEntity
  8
Part__Feature009
100
AcDbCircle
 10
6.500000000
 20
-3.400000000
 30
-11.258330249
 40
0.000000000
100
AcDbArc
 50
180.000000000
 51
180.000000000
  0
LINE
  5
ADF
330
A02
100
AcDbEntity
  8
Part__Feature009
100
AcDbLine
 10
2.900000000
 20
-3.400000000
 30
-11.258330249
 11
2.900000000
 21
0.000000000
 31
-11.258330249
  0
CIRCLE
  5
AE0
330
A02
100
AcDbEntity
  8
Part__Feature009
100
AcDbCircle
 10
6.500000000
 20
0.000000000
 30
-11.258330249
 40
3.600000000
  0
LINE
  5
AE1
330
A02
100
AcDbEntity
  8
Part__Feature009
100
AcDbLine
 10
2.900000000
 20
-3.400000000
 30
-11.258330249
 11
2.900000000
 21
0.000000000
 31
-11.258330249
  0
ARC
  5
AE2
330
A02
100
AcDbEntity
  8
Part__Feature009
100
AcDbCircle
 10
6.500000000
 20
-3.400000000
 30
-11.258330249
 40
3.600000000
100
AcDbArc
 50
0.000000000
 51
180.000000000
  0
ARC
  5
AE3
330
A02
100
AcDbEntity
  8
Part__Feature009
100
AcDbCircle
 10
6.500000000
 20
-1.900000000
 30
-11.258330249
 40
4.500000000
100
AcDbArc
 50
180.000000000
 51
180.000000000
  0
ARC
  5
AE4
330
A02
100
AcDbEntity
  8
Part__Feature009
100
AcDbCircle
 10
6.500000000
 20
-1.900000000
 30
-15.658330249
 40
0.000000000
100
AcDbArc
 50
-90.000000000
 51
0.000000000
  0
CIRCLE
  5
AE5
330
A02
100
AcDbEntity
  8
Part__Feature009
100
AcDbCircle
 10
6.500000000
 20
-2.000000000
 30
-11.258330249
 40
4.400000000
  0
ARC
  5
AE6
330
A02
100
AcDbEntity
  8
Part__Feature009
100
AcDbCircle
 10
6.500000000
 20
-1.900000000
 30
-15.658330249
 40
0.000000000
100
AcDbArc
 50
-90.000000000
 51
0.000000000
  0
ARC
  5
AE7
330
A02
100
AcDbEntity
  8
Part__Feature009
100
AcDbCircle
 10
6.500000000
 20
-1.900000000
 30
-11.258330249
 40
0.000000000
100
AcDbArc
 50
180.000000000
 51
180.000000000
  0
CIRCLE
  5
AE8
330
A02
100
AcDbEntity
  8
Part__Feature009
100
AcDbCircle
 10
6.500000000
 20
-2.000000000
 30
-11.258330249
 40
4.400000000
  0
CIRCLE
  5
AE9
330
A02
100
AcDbEntity
  8
Part__Feature009
100
AcDbCircle
 10
6.500000000
 20
-2.000000000
 30
-11.258330249
 40
4.100000000
  0
ARC
  5
AEA
330
A02
100
AcDbEntity
  8
Part__Feature009
100
AcDbCircle
 10
6.500000000
 20
-2.100000000
 30
-7.158330249
 40
0.100000000
100
AcDbArc
 50
0.000000000
 51
90.000000000
  0
ARC
  5
AEB
330
A02
100
AcDbEntity
  8
Part__Feature009
100
AcDbCircle
 10
6.500000000
 20
-2.100000000
 30
-11.258330249
 40
4.000000000
100
AcDbArc
 50
180.000000000
 51
180.000000000
  0
ARC
  5
AEC
330
A02
100
AcDbEntity
  8
Part__Feature009
100
AcDbCircle
 10
6.500000000
 20
-2.100000000
 30
-11.258330249
 40
0.000000000
100
AcDbArc
 50
180.000000000
 51
180.000000000
  0
ARC
  5
AED
330
A02
100
AcDbEntity
  8
Part__Feature009
100
AcDbCircle
 10
6.500000000
 20
-2.100000000
 30
-7.158330249
 40
0.100000000
100
AcDbArc
 50
0.000000000
 51
90.000000000
  0
CIRCLE
  5
AEE
330
A02
100
AcDbEntity
  8
Part__Feature009
100
AcDbCircle
 10
6.500000000
 20
-2.000000000
 30
-11.258330249
 40
4.100000000
  0
SPLINE
  5
AEF
330
A02
100
AcDbEntity
  8
Part__Feature009
100
AcDbSpline
210
0
220
0
230
1
 70
8
 71
3
 72
8
 73
4
 74
0
 40
0.000000000
 40
0.000000000
 40
0.000000000
 40
0.000000000
 40
0.125413055
 40
0.125413055
 40
0.125413055
 40
0.125413055
 10
11.500535172
 20
0.000000000
 30
-7.160625865
 10
11.287570313
 20
0.000000000
 30
-7.522661680
 10
11.288017485
 20
0.000000000
 30
-7.996371471
 10
11.501665482
 20
0.000000000
 30
-8.358012995
  0
ARC
  5
AF0
330
A02
100
AcDbEntity
  8
Part__Feature009
100
AcDbCircle
 10
11.500535172
 20
0.200000000
 30
-7.160625865
 40
0.173424223
100
AcDbArc
 50
-90.000000000
 51
5.768632224
  0
SPLINE
  5
AF1
330
A02
100
AcDbEntity
  8
Part__Feature009
100
AcDbSpline
210
0
220
0
230
1
 70
8
 71
3
 72
8
 73
4
 74
0
 40
-0.125413055
 40
-0.125413055
 40
-0.125413055
 40
-0.125413055
 40
0.000000000
 40
0.000000000
 40
0.000000000
 40
0.000000000
 10
11.674023080
 20
0.217431149
 30
-8.258067943
 10
11.495623368
 20
0.220989876
 30
-7.956700355
 10
11.495250878
 20
0.220988358
 30
-7.561942195
 10
11.673081156
 20
0.217431149
 30
-7.260245335
  0
ARC
  5
AF2
330
A02
100
AcDbEntity
  8
Part__Feature009
100
AcDbCircle
 10
11.501665482
 20
0.200000000
 30
-8.358012995
 40
0.200000000
100
AcDbArc
 50
-90.000000000
 51
5.774894682
  0
ARC
  5
AF3
330
A02
100
AcDbEntity
  8
Part__Feature009
100
AcDbCircle
 10
1.498334518
 20
0.200000000
 30
-8.358012995
 40
0.200000000
100
AcDbArc
 50
174.225105318
 51
-90.000000000
  0
ARC
  5
AF4
330
A02
100
AcDbEntity
  8
Part__Feature009
100
AcDbCircle
 10
6.500000000
 20
0.217431149
 30
-11.258330249
 40
5.174023080
100
AcDbArc
 50
180.000000000
 51
-0.000000000
  0
ARC
  5
AF5
330
A02
100
AcDbEntity
  8
Part__Feature009
100
AcDbCircle
 10
11.501665482
 20
0.200000000
 30
-8.358012995
 40
0.200000000
100
AcDbArc
 50
-90.000000000
 51
5.774894682
  0
ARC
  5
AF6
330
A02
100
AcDbEntity
  8
Part__Feature009
100
AcDbCircle
 10
6.500000000
 20
0.000000000
 30
-11.258330249
 40
5.001665482
100
AcDbArc
 50
180.000000000
 51
0.000000000
  0
SPLINE
  5
AF7
330
A02
100
AcDbEntity
  8
Part__Feature009
100
AcDbSpline
210
0
220
0
230
1
 70
8
 71
3
 72
8
 73
4
 74
0
 40
0.000000000
 40
0.000000000
 40
0.000000000
 40
0.000000000
 40
0.125413055
 40
0.125413055
 40
0.125413055
 40
0.125413055
 10
1.498334518
 20
0.000000000
 30
-8.358012995
 10
1.711988558
 20
0.000000000
 30
-7.996371430
 10
1.712435730
 20
0.000000000
 30
-7.522661639
 10
1.499464828
 20
0.000000000
 30
-7.160625865
  0
ARC
  5
AF8
330
A02
100
AcDbEntity
  8
Part__Feature009
100
AcDbCircle
 10
1.498334518
 20
0.200000000
 30
-8.358012995
 40
0.200000000
100
AcDbArc
 50
174.225105318
 51
-90.000000000
  0
SPLINE
  5
AF9
330
A02
100
AcDbEntity
  8
Part__Feature009
100
AcDbSpline
210
0
220
0
230
1
 70
8
 71
3
 72
8
 73
4
 74
0
 40
-0.125413055
 40
-0.125413055
 40
-0.125413055
 40
-0.125413055
 40
-0.000000000
 40
-0.000000000
 40
-0.000000000
 40
-0.000000000
 10
1.326918844
 20
0.217431149
 30
-7.260245335
 10
1.504754168
 20
0.220988459
 30
-7.561942161
 10
1.504381678
 20
0.220989977
 30
-7.956700320
 10
1.325976920
 20
0.217431149
 30
-8.258067943
  0
ARC
  5
AFA
330
A02
100
AcDbEntity
  8
Part__Feature009
100
AcDbCircle
 10
1.499464828
 20
0.200000000
 30
-7.160625865
 40
0.200000000
100
AcDbArc
 50
174.231367776
 51
-90.000000000
  0
ARC
  5
AFB
330
A02
100
AcDbEntity
  8
Part__Feature009
100
AcDbCircle
 10
1.048448508
 20
0.200000000
 30
-6.379442684
 40
0.200000000
100
AcDbArc
 50
174.231367779
 51
-90.000000000
  0
LINE
  5
AFC
330
A02
100
AcDbEntity
  8
Part__Feature009
100
AcDbLine
 10
0.875902525
 20
0.217431149
 30
-6.479062154
 11
1.326918844
 21
0.217431149
 31
-7.260245335
  0
ARC
  5
AFD
330
A02
100
AcDbEntity
  8
Part__Feature009
100
AcDbCircle
 10
1.499464828
 20
0.200000000
 30
-7.160625865
 40
0.200000000
100
AcDbArc
 50
174.231367776
 51
-90.000000000
  0
LINE
  5
AFE
330
A02
100
AcDbEntity
  8
Part__Feature009
100
AcDbLine
 10
1.499464828
 20
0.000000000
 30
-7.160625865
 11
1.048448508
 21
0.000000000
 31
-6.379442684
  0
SPLINE
  5
AFF
330
A02
100
AcDbEntity
  8
Part__Feature009
100
AcDbSpline
210
0
220
0
230
1
 70
8
 71
3
 72
8
 73
4
 74
0
 40
0.000000000
 40
0.000000000
 40
0.000000000
 40
0.000000000
 40
0.125413056
 40
0.125413056
 40
0.125413056
 40
0.125413056
 10
1.048448508
 20
0.000000000
 30
-6.379442684
 10
0.841396355
 20
0.000000000
 30
-6.013978893
 10
0.430928060
 20
0.000000000
 30
-5.777511263
 10
0.010915680
 20
0.000000000
 30
-5.781727996
  0
ARC
  5
B00
330
A02
100
AcDbEntity
  8
Part__Feature009
100
AcDbCircle
 10
1.048448508
 20
0.200000000
 30
-6.379442684
 40
0.200000000
100
AcDbArc
 50
174.231367779
 51
-90.000000000
  0
SPLINE
  5
B01
330
A02
100
AcDbEntity
  8
Part__Feature009
100
AcDbSpline
210
0
220
0
230
1
 70
8
 71
3
 72
8
 73
4
 74
0
 40
-0.125413056
 40
-0.125413056
 40
-0.125413056
 40
-0.125413056
 40
0.000000000
 40
0.000000000
 40
0.000000000
 40
0.000000000
 10
0.011291835
 20
0.217431149
 30
-5.980966580
 10
0.361481716
 20
0.220990043
 30
-5.977140926
 10
0.703538552
 20
0.220988525
 30
-6.174197417
 10
0.875902525
 20
0.217431149
 30
-6.479062154
  0
ARC
  5
B02
330
A02
100
AcDbEntity
  8
Part__Feature009
100
AcDbCircle
 10
0.010915680
 20
0.200000000
 30
-5.781727996
 40
0.200000000
100
AcDbArc
 50
-90.000000000
 51
88.763779840
  0
ARC
  5
B03
330
A02
100
AcDbEntity
  8
Part__Feature009
100
AcDbCircle
 10
5.012581162
 20
0.200000000
 30
2.881410741
 40
0.200000000
100
AcDbArc
 50
-90.000000000
 51
5.762403667
  0
ARC
  5
B04
330
A02
100
AcDbEntity
  8
Part__Feature009
100
AcDbCircle
 10
-0.000000000
 20
0.217431149
 30
-0.000000000
 40
5.185314915
100
AcDbArc
 50
0.000000000
 51
-0.000000000
  0
ARC
  5
B05
330
A02
100
AcDbEntity
  8
Part__Feature009
100
AcDbCircle
 10
0.010915680
 20
0.200000000
 30
-5.781727996
 40
0.200000000
100
AcDbArc
 50
-90.000000000
 51
88.763779840
  0
ARC
  5
B06
330
A02
100
AcDbEntity
  8
Part__Feature009
100
AcDbCircle
 10
0.000000000
 20
0.000000000
 30
0.000000000
 40
0.010915680
100
AcDbArc
 50
0.000000000
 51
0.000000000
  0
SPLINE
  5
B07
330
A02
100
AcDbEntity
  8
Part__Feature009
100
AcDbSpline
210
0
220
0
230
1
 70
8
 71
3
 72
8
 73
4
 74
0
 40
0.000000000
 40
0.000000000
 40
0.000000000
 40
0.000000000
 40
0.125413055
 40
0.125413055
 40
0.125413055
 40
0.125413055
 10
5.012581162
 20
0.000000000
 30
2.881410741
 10
5.218943985
 20
0.000000000
 30
2.515558479
 10
5.628965111
 20
0.000000000
 30
2.278316321
 10
6.048983680
 20
0.000000000
 30
2.281738300
  0
ARC
  5
B08
330
A02
100
AcDbEntity
  8
Part__Feature009
100
AcDbCircle
 10
5.012581162
 20
0.200000000
 30
2.881410741
 40
0.200000000
100
AcDbArc
 50
-90.000000000
 51
5.762403667
  0
SPLINE
  5
B09
330
A02
100
AcDbEntity
  8
Part__Feature009
100
AcDbSpline
210
0
220
0
230
1
 70
8
 71
3
 72
8
 73
4
 74
0
 40
-0.125413055
 40
-0.125413055
 40
-0.125413055
 40
-0.125413055
 40
-0.000000000
 40
-0.000000000
 40
-0.000000000
 40
-0.000000000
 10
6.048983680
 20
0.217431149
 30
2.480977239
 10
5.698788118
 20
0.220988491
 30
2.477814363
 10
5.357103768
 20
0.220990009
 30
2.675516029
 10
5.185314915
 20
0.217431149
 30
2.980704274
  0
ARC
  5
B0A
330
A02
100
AcDbEntity
  8
Part__Feature009
100
AcDbCircle
 10
6.048983680
 20
0.200000000
 30
2.281738300
 40
0.200000000
100
AcDbArc
 50
90.000000000
 51
-90.000000000
  0
ARC
  5
B0B
330
A02
100
AcDbEntity
  8
Part__Feature009
100
AcDbCircle
 10
6.951016320
 20
0.200000000
 30
2.281738300
 40
0.200000000
100
AcDbArc
 50
90.000000000
 51
-90.000000000
  0
LINE
  5
B0C
330
A02
100
AcDbEntity
  8
Part__Feature009
100
AcDbLine
 10
6.951016320
 20
0.217431149
 30
2.480977239
 11
6.048983680
 21
0.217431149
 31
2.480977239
  0
ARC
  5
B0D
330
A02
100
AcDbEntity
  8
Part__Feature009
100
AcDbCircle
 10
6.048983680
 20
0.200000000
 30
2.281738300
 40
0.200000000
100
AcDbArc
 50
90.000000000
 51
-90.000000000
  0
LINE
  5
B0E
330
A02
100
AcDbEntity
  8
Part__Feature009
100
AcDbLine
 10
6.048983680
 20
0.000000000
 30
2.281738300
 11
6.951016320
 21
0.000000000
 31
2.281738300
  0
SPLINE
  5
B0F
330
A02
100
AcDbEntity
  8
Part__Feature009
100
AcDbSpline
210
0
220
0
230
1
 70
8
 71
3
 72
8
 73
4
 74
0
 40
0.000000000
 40
0.000000000
 40
0.000000000
 40
0.000000000
 40
0.125413056
 40
0.125413056
 40
0.125413056
 40
0.125413056
 10
6.951016320
 20
0.000000000
 30
2.281738300
 10
7.371040876
 20
0.000000000
 30
2.278322983
 10
7.781061999
 20
0.000000000
 30
2.515565138
 10
7.987418838
 20
0.000000000
 30
2.881410741
  0
ARC
  5
B10
330
A02
100
AcDbEntity
  8
Part__Feature009
100
AcDbCircle
 10
6.951016320
 20
0.200000000
 30
2.281738300
 40
0.200000000
100
AcDbArc
 50
90.000000000
 51
-90.000000000
  0
SPLINE
  5
B11
330
A02
100
AcDbEntity
  8
Part__Feature009
100
AcDbSpline
210
0
220
0
230
1
 70
8
 71
3
 72
8
 73
4
 74
0
 40
-0.125413056
 40
-0.125413056
 40
-0.125413056
 40
-0.125413056
 40
0.000000000
 40
0.000000000
 40
0.000000000
 40
0.000000000
 10
7.814685085
 20
0.217431149
 30
2.980704274
 10
7.642901215
 20
0.220989963
 30
2.675521582
 10
7.301216870
 20
0.220988445
 30
2.477819919
 10
6.951016320
 20
0.217431149
 30
2.480977239
  0
ARC
  5
B12
330
A02
100
AcDbEntity
  8
Part__Feature009
100
AcDbCircle
 10
7.987418838
 20
0.200000000
 30
2.881410741
 40
0.200000000
100
AcDbArc
 50
174.237596334
 51
-90.000000000
  0
ARC
  5
B13
330
A02
100
AcDbEntity
  8
Part__Feature009
100
AcDbCircle
 10
12.989084320
 20
0.200000000
 30
-5.781727996
 40
0.200000000
100
AcDbArc
 50
91.236220160
 51
-90.000000000
  0
ARC
  5
B14
330
A02
100
AcDbEntity
  8
Part__Feature009
100
AcDbCircle
 10
13.000000000
 20
0.217431149
 30
0.000000000
 40
0.011291835
100
AcDbArc
 50
180.000000000
 51
180.000000000
  0
ARC
  5
B15
330
A02
100
AcDbEntity
  8
Part__Feature009
100
AcDbCircle
 10
7.987418838
 20
0.200000000
 30
2.881410741
 40
0.200000000
100
AcDbArc
 50
174.237596334
 51
-90.000000000
  0
ARC
  5
B16
330
A02
100
AcDbEntity
  8
Part__Feature009
100
AcDbCircle
 10
13.000000000
 20
0.000000000
 30
0.000000000
 40
5.012581162
100
AcDbArc
 50
180.000000000
 51
180.000000000
  0
SPLINE
  5
B17
330
A02
100
AcDbEntity
  8
Part__Feature009
100
AcDbSpline
210
0
220
0
230
1
 70
8
 71
3
 72
8
 73
4
 74
0
 40
0.000000000
 40
0.000000000
 40
0.000000000
 40
0.000000000
 40
0.125413055
 40
0.125413055
 40
0.125413055
 40
0.125413055
 10
12.989084320
 20
0.000000000
 30
-5.781727996
 10
12.569069319
 20
0.000000000
 30
-5.777523728
 10
12.158601019
 20
0.000000000
 30
-6.013991361
 10
11.951551492
 20
0.000000000
 30
-6.379442684
  0
ARC
  5
B18
330
A02
100
AcDbEntity
  8
Part__Feature009
100
AcDbCircle
 10
12.989084320
 20
0.200000000
 30
-5.781727996
 40
0.200000000
100
AcDbArc
 50
91.236220160
 51
-90.000000000
  0
SPLINE
  5
B19
330
A02
100
AcDbEntity
  8
Part__Feature009
100
AcDbSpline
210
0
220
0
230
1
 70
8
 71
3
 72
8
 73
4
 74
0
 40
-0.125413055
 40
-0.125413055
 40
-0.125413055
 40
-0.125413055
 40
-0.000000000
 40
-0.000000000
 40
-0.000000000
 40
-0.000000000
 10
12.124097475
 20
0.217431149
 30
-6.479062154
 10
12.296459268
 20
0.220988367
 30
-6.174207821
 10
12.638516107
 20
0.220989885
 30
-5.977151327
 10
12.988708165
 20
0.217431149
 30
-5.980966580
  0
ARC
  5
B1A
330
A02
100
AcDbEntity
  8
Part__Feature009
100
AcDbCircle
 10
11.951551492
 20
0.200000000
 30
-6.379442684
 40
0.200000000
100
AcDbArc
 50
-90.000000000
 51
5.768632224
  0
ARC
  5
B1B
330
A02
100
AcDbEntity
  8
Part__Feature009
100
AcDbCircle
 10
11.951551492
 20
0.200000000
 30
-6.379442684
 40
0.200000000
100
AcDbArc
 50
-90.000000000
 51
5.768632224
  0
LINE
  5
B1C
330
A02
100
AcDbEntity
  8
Part__Feature009
100
AcDbLine
 10
11.951551492
 20
0.000000000
 30
-6.379442684
 11
11.500535172
 21
0.000000000
 31
-7.160625865
  0
ARC
  5
B1D
330
A02
100
AcDbEntity
  8
Part__Feature009
100
AcDbCircle
 10
11.500535172
 20
0.200000000
 30
-7.160625865
 40
0.173424223
100
AcDbArc
 50
-90.000000000
 51
5.768632224
  0
LINE
  5
B1E
330
A02
100
AcDbEntity
  8
Part__Feature009
100
AcDbLine
 10
11.673081156
 20
0.217431149
 30
-7.260245335
 11
12.124097475
 21
0.217431149
 31
-6.479062154
  0
LINE
  5
B1F
330
A02
100
AcDbEntity
  8
Part__Feature009
100
AcDbLine
 10
6.951016320
 20
0.217431149
 30
2.480977239
 11
6.048983680
 21
0.217431149
 31
2.480977239
  0
SPLINE
  5
B20
330
A02
100
AcDbEntity
  8
Part__Feature009
100
AcDbSpline
210
0
220
0
230
1
 70
8
 71
1
 72
4
 73
2
 74
0
 40
-0.232942497
 40
-0.232942497
 40
-0.122380692
 40
-0.122380692
 10
7.006958964
 20
1.317431149
 30
2.384739710
 10
6.951016320
 20
0.217431149
 30
2.480977239
  0
LINE
  5
B21
330
A02
100
AcDbEntity
  8
Part__Feature009
100
AcDbLine
 10
5.993041036
 20
1.317431149
 30
2.384739710
 11
7.006958964
 21
1.317431149
 31
2.384739710
  0
SPLINE
  5
B22
330
A02
100
AcDbEntity
  8
Part__Feature009
100
AcDbSpline
210
0
220
0
230
1
 70
8
 71
1
 72
4
 73
2
 74
0
 40
0.122361889
 40
0.122361889
 40
0.232923693
 40
0.232923693
 10
6.048983680
 20
0.217431149
 30
2.480977239
 10
5.993041036
 20
1.317431149
 30
2.384739710
  0
SPLINE
  5
B23
330
A02
100
AcDbEntity
  8
Part__Feature009
100
AcDbSpline
210
0
220
0
230
1
 70
8
 71
3
 72
8
 73
4
 74
0
 40
-0.125413056
 40
-0.125413056
 40
-0.125413056
 40
-0.125413056
 40
0.000000000
 40
0.000000000
 40
0.000000000
 40
0.000000000
 10
7.814685085
 20
0.217431149
 30
2.980704274
 10
7.642901215
 20
0.220989963
 30
2.675521582
 10
7.301216870
 20
0.220988445
 30
2.477819919
 10
6.951016320
 20
0.217431149
 30
2.480977239
  0
SPLINE
  5
B24
330
A02
100
AcDbEntity
  8
Part__Feature009
100
AcDbSpline
210
0
220
0
230
1
 70
8
 71
1
 72
4
 73
2
 74
0
 40
0.122380692
 40
0.122380692
 40
0.232942497
 40
0.232942497
 10
7.814685085
 20
0.217431149
 30
2.980704274
 10
7.874607942
 20
1.317431149
 30
2.891455983
  0
SPLINE
  5
B25
330
A02
100
AcDbEntity
  8
Part__Feature009
100
AcDbSpline
210
0
220
0
230
1
 70
8
 71
3
 72
8
 73
4
 74
0
 40
-0.126378369
 40
-0.126378369
 40
-0.126378369
 40
-0.126378369
 40
-0.000000000
 40
-0.000000000
 40
-0.000000000
 40
-0.000000000
 10
7.006958964
 20
1.317431149
 30
2.384739710
 10
7.358191420
 20
1.320982041
 30
2.384429047
 10
7.702301182
 20
1.320983636
 30
2.585392637
 10
7.874607942
 20
1.317431149
 30
2.891455983
  0
SPLINE
  5
B26
330
A02
100
AcDbEntity
  8
Part__Feature009
100
AcDbSpline
210
0
220
0
230
1
 70
8
 71
1
 72
4
 73
2
 74
0
 40
-0.232942497
 40
-0.232942497
 40
-0.122380692
 40
-0.122380692
 10
7.006958964
 20
1.317431149
 30
2.384739710
 10
6.951016320
 20
0.217431149
 30
2.480977239
  0
ARC
  5
B27
330
A02
100
AcDbEntity
  8
Part__Feature009
100
AcDbCircle
 10
13.000000000
 20
0.217431149
 30
0.000000000
 40
0.011291835
100
AcDbArc
 50
180.000000000
 51
180.000000000
  0
SPLINE
  5
B28
330
A02
100
AcDbEntity
  8
Part__Feature009
100
AcDbSpline
210
0
220
0
230
1
 70
8
 71
1
 72
4
 73
2
 74
0
 40
-0.232942497
 40
-0.232942497
 40
-0.122380692
 40
-0.122380692
 10
12.941378307
 20
1.317431149
 30
-5.884447718
 10
12.988708165
 20
0.217431149
 30
-5.980966580
  0
ARC
  5
B29
330
A02
100
AcDbEntity
  8
Part__Feature009
100
AcDbCircle
 10
13.000000000
 20
1.317431149
 30
-0.000000000
 40
5.125392058
100
AcDbArc
 50
180.000000000
 51
180.000000000
  0
SPLINE
  5
B2A
330
A02
100
AcDbEntity
  8
Part__Feature009
100
AcDbSpline
210
0
220
0
230
1
 70
8
 71
1
 72
4
 73
2
 74
0
 40
0.122380692
 40
0.122380692
 40
0.232942497
 40
0.232942497
 10
7.814685085
 20
0.217431149
 30
2.980704274
 10
7.874607942
 20
1.317431149
 30
2.891455983
  0
SPLINE
  5
B2B
330
A02
100
AcDbEntity
  8
Part__Feature009
100
AcDbSpline
210
0
220
0
230
1
 70
8
 71
3
 72
8
 73
4
 74
0
 40
-0.125413055
 40
-0.125413055
 40
-0.125413055
 40
-0.125413055
 40
-0.000000000
 40
-0.000000000
 40
-0.000000000
 40
-0.000000000
 10
12.124097475
 20
0.217431149
 30
-6.479062154
 10
12.296459268
 20
0.220988367
 30
-6.174207821
 10
12.638516107
 20
0.220989885
 30
-5.977151327
 10
12.988708165
 20
0.217431149
 30
-5.980966580
  0
SPLINE
  5
B2C
330
A02
100
AcDbEntity
  8
Part__Feature009
100
AcDbSpline
210
0
220
0
230
1
 70
8
 71
1
 72
4
 73
2
 74
0
 40
0.122380692
 40
0.122380692
 40
0.232942497
 40
0.232942497
 10
12.124097475
 20
0.217431149
 30
-6.479062154
 10
12.068724652
 20
1.317431149
 30
-6.382495637
  0
SPLINE
  5
B2D
330
A02
100
AcDbEntity
  8
Part__Feature009
100
AcDbSpline
210
0
220
0
230
1
 70
8
 71
3
 72
8
 73
4
 74
0
 40
-0.126378370
 40
-0.126378370
 40
-0.126378370
 40
-0.126378370
 40
0.000000000
 40
0.000000000
 40
0.000000000
 40
0.000000000
 10
12.941378307
 20
1.317431149
 30
-5.884447718
 10
12.590166291
 20
1.320983636
 30
-5.880638077
 10
12.244071839
 20
1.320982041
 30
-6.078164075
 10
12.068724652
 20
1.317431149
 30
-6.382495637
  0
SPLINE
  5
B2E
330
A02
100
AcDbEntity
  8
Part__Feature009
100
AcDbSpline
210
0
220
0
230
1
 70
8
 71
1
 72
4
 73
2
 74
0
 40
-0.232942497
 40
-0.232942497
 40
-0.122380692
 40
-0.122380692
 10
12.941378307
 20
1.317431149
 30
-5.884447718
 10
12.988708165
 20
0.217431149
 30
-5.980966580
  0
LINE
  5
B2F
330
A02
100
AcDbEntity
  8
Part__Feature009
100
AcDbLine
 10
11.673081156
 20
0.217431149
 30
-7.260245335
 11
12.124097475
 21
0.217431149
 31
-6.479062154
  0
SPLINE
  5
B30
330
A02
100
AcDbEntity
  8
Part__Feature009
100
AcDbSpline
210
0
220
0
230
1
 70
8
 71
1
 72
4
 73
2
 74
0
 40
-0.232923693
 40
-0.232923693
 40
-0.122361889
 40
-0.122361889
 10
11.561765688
 20
1.317431149
 30
-7.260574321
 10
11.673081156
 20
0.217431149
 30
-7.260245335
  0
LINE
  5
B31
330
A02
100
AcDbEntity
  8
Part__Feature009
100
AcDbLine
 10
12.068724652
 20
1.317431149
 30
-6.382495637
 11
11.561765688
 21
1.317431149
 31
-7.260574321
  0
SPLINE
  5
B32
330
A02
100
AcDbEntity
  8
Part__Feature009
100
AcDbSpline
210
0
220
0
230
1
 70
8
 71
1
 72
4
 73
2
 74
0
 40
0.122380692
 40
0.122380692
 40
0.232942497
 40
0.232942497
 10
12.124097475
 20
0.217431149
 30
-6.479062154
 10
12.068724652
 20
1.317431149
 30
-6.382495637
  0
SPLINE
  5
B33
330
A02
100
AcDbEntity
  8
Part__Feature009
100
AcDbSpline
210
0
220
0
230
1
 70
8
 71
3
 72
8
 73
4
 74
0
 40
-0.125413055
 40
-0.125413055
 40
-0.125413055
 40
-0.125413055
 40
0.000000000
 40
0.000000000
 40
0.000000000
 40
0.000000000
 10
11.674023080
 20
0.217431149
 30
-8.258067943
 10
11.495623368
 20
0.220989876
 30
-7.956700355
 10
11.495250878
 20
0.220988358
 30
-7.561942195
 10
11.673081156
 20
0.217431149
 30
-7.260245335
  0
SPLINE
  5
B34
330
A02
100
AcDbEntity
  8
Part__Feature009
100
AcDbSpline
210
0
220
0
230
1
 70
8
 71
1
 72
4
 73
2
 74
0
 40
0.122361889
 40
0.122361889
 40
0.232923693
 40
0.232923693
 10
11.674023080
 20
0.217431149
 30
-8.258067943
 10
11.566770364
 20
1.317431149
 30
-8.265338515
  0
SPLINE
  5
B35
330
A02
100
AcDbEntity
  8
Part__Feature009
100
AcDbSpline
210
0
220
0
230
1
 70
8
 71
3
 72
8
 73
4
 74
0
 40
-0.126378369
 40
-0.126378369
 40
-0.126378369
 40
-0.126378369
 40
-0.000000000
 40
-0.000000000
 40
-0.000000000
 40
-0.000000000
 10
11.561765688
 20
1.317431149
 30
-7.260574321
 10
11.385880418
 20
1.320982041
 30
-7.564595219
 10
11.387865112
 20
1.320983636
 30
-7.963084809
 10
11.566770364
 20
1.317431149
 30
-8.265338515
  0
SPLINE
  5
B36
330
A02
100
AcDbEntity
  8
Part__Feature009
100
AcDbSpline
210
0
220
0
230
1
 70
8
 71
1
 72
4
 73
2
 74
0
 40
-0.232923693
 40
-0.232923693
 40
-0.122361889
 40
-0.122361889
 10
11.561765688
 20
1.317431149
 30
-7.260574321
 10
11.673081156
 20
0.217431149
 30
-7.260245335
  0
SPLINE
  5
B37
330
A02
100
AcDbEntity
  8
Part__Feature009
100
AcDbSpline
210
0
220
0
230
1
 70
8
 71
3
 72
8
 73
4
 74
0
 40
0.000000000
 40
0.000000000
 40
0.000000000
 40
0.000000000
 40
0.125413055
 40
0.125413055
 40
0.125413055
 40
0.125413055
 10
11.500535172
 20
0.000000000
 30
-7.160625865
 10
11.287570313
 20
0.000000000
 30
-7.522661680
 10
11.288017485
 20
0.000000000
 30
-7.996371471
 10
11.501665482
 20
0.000000000
 30
-8.358012995
  0
LINE
  5
B38
330
A02
100
AcDbEntity
  8
Part__Feature009
100
AcDbLine
 10
11.951551492
 20
0.000000000
 30
-6.379442684
 11
11.500535172
 21
0.000000000
 31
-7.160625865
  0
SPLINE
  5
B39
330
A02
100
AcDbEntity
  8
Part__Feature009
100
AcDbSpline
210
0
220
0
230
1
 70
8
 71
3
 72
8
 73
4
 74
0
 40
0.000000000
 40
0.000000000
 40
0.000000000
 40
0.000000000
 40
0.125413055
 40
0.125413055
 40
0.125413055
 40
0.125413055
 10
12.989084320
 20
0.000000000
 30
-5.781727996
 10
12.569069319
 20
0.000000000
 30
-5.777523728
 10
12.158601019
 20
0.000000000
 30
-6.013991361
 10
11.951551492
 20
0.000000000
 30
-6.379442684
  0
ARC
  5
B3A
330
A02
100
AcDbEntity
  8
Part__Feature009
100
AcDbCircle
 10
13.000000000
 20
0.000000000
 30
0.000000000
 40
5.012581162
100
AcDbArc
 50
180.000000000
 51
180.000000000
  0
SPLINE
  5
B3B
330
A02
100
AcDbEntity
  8
Part__Feature009
100
AcDbSpline
210
0
220
0
230
1
 70
8
 71
3
 72
8
 73
4
 74
0
 40
0.000000000
 40
0.000000000
 40
0.000000000
 40
0.000000000
 40
0.125413056
 40
0.125413056
 40
0.125413056
 40
0.125413056
 10
6.951016320
 20
0.000000000
 30
2.281738300
 10
7.371040876
 20
0.000000000
 30
2.278322983
 10
7.781061999
 20
0.000000000
 30
2.515565138
 10
7.987418838
 20
0.000000000
 30
2.881410741
  0
LINE
  5
B3C
330
A02
100
AcDbEntity
  8
Part__Feature009
100
AcDbLine
 10
6.048983680
 20
0.000000000
 30
2.281738300
 11
6.951016320
 21
0.000000000
 31
2.281738300
  0
SPLINE
  5
B3D
330
A02
100
AcDbEntity
  8
Part__Feature009
100
AcDbSpline
210
0
220
0
230
1
 70
8
 71
3
 72
8
 73
4
 74
0
 40
0.000000000
 40
0.000000000
 40
0.000000000
 40
0.000000000
 40
0.125413055
 40
0.125413055
 40
0.125413055
 40
0.125413055
 10
5.012581162
 20
0.000000000
 30
2.881410741
 10
5.218943985
 20
0.000000000
 30
2.515558479
 10
5.628965111
 20
0.000000000
 30
2.278316321
 10
6.048983680
 20
0.000000000
 30
2.281738300
  0
ARC
  5
B3E
330
A02
100
AcDbEntity
  8
Part__Feature009
100
AcDbCircle
 10
0.000000000
 20
0.000000000
 30
0.000000000
 40
0.010915680
100
AcDbArc
 50
0.000000000
 51
0.000000000
  0
SPLINE
  5
B3F
330
A02
100
AcDbEntity
  8
Part__Feature009
100
AcDbSpline
210
0
220
0
230
1
 70
8
 71
3
 72
8
 73
4
 74
0
 40
0.000000000
 40
0.000000000
 40
0.000000000
 40
0.000000000
 40
0.125413056
 40
0.125413056
 40
0.125413056
 40
0.125413056
 10
1.048448508
 20
0.000000000
 30
-6.379442684
 10
0.841396355
 20
0.000000000
 30
-6.013978893
 10
0.430928060
 20
0.000000000
 30
-5.777511263
 10
0.010915680
 20
0.000000000
 30
-5.781727996
  0
LINE
  5
B40
330
A02
100
AcDbEntity
  8
Part__Feature009
100
AcDbLine
 10
1.499464828
 20
0.000000000
 30
-7.160625865
 11
1.048448508
 21
0.000000000
 31
-6.379442684
  0
SPLINE
  5
B41
330
A02
100
AcDbEntity
  8
Part__Feature009
100
AcDbSpline
210
0
220
0
230
1
 70
8
 71
3
 72
8
 73
4
 74
0
 40
0.000000000
 40
0.000000000
 40
0.000000000
 40
0.000000000
 40
0.125413055
 40
0.125413055
 40
0.125413055
 40
0.125413055
 10
1.498334518
 20
0.000000000
 30
-8.358012995
 10
1.711988558
 20
0.000000000
 30
-7.996371430
 10
1.712435730
 20
0.000000000
 30
-7.522661639
 10
1.499464828
 20
0.000000000
 30
-7.160625865
  0
ARC
  5
B42
330
A02
100
AcDbEntity
  8
Part__Feature009
100
AcDbCircle
 10
6.500000000
 20
0.000000000
 30
-11.258330249
 40
5.001665482
100
AcDbArc
 50
180.000000000
 51
0.000000000
  0
CIRCLE
  5
B43
330
A02
100
AcDbEntity
  8
Part__Feature009
100
AcDbCircle
 10
6.500000000
 20
0.000000000
 30
-3.752776750
 40
0.968261700
  0
CIRCLE
  5
B44
330
A02
100
AcDbEntity
  8
Part__Feature009
100
AcDbCircle
 10
13.000000194
 20
0.000000000
 30
0.000000000
 40
4.200000000
  0
CIRCLE
  5
B45
330
A02
100
AcDbEntity
  8
Part__Feature009
100
AcDbCircle
 10
0.000000000
 20
0.000000000
 30
0.000000000
 40
4.200000000
  0
CIRCLE
  5
B46
330
A02
100
AcDbEntity
  8
Part__Feature009
100
AcDbCircle
 10
6.500000000
 20
0.000000000
 30
-11.258330249
 40
4.200000000
  0
CIRCLE
  5
B47
330
A02
100
AcDbEntity
  8
Part__Feature009
100
AcDbCircle
 10
6.500000000
 20
0.000000000
 30
-3.752776750
 40
0.968261700
  0
ARC
  5
B48
330
A02
100
AcDbEntity
  8
Part__Feature009
100
AcDbCircle
 10
6.500000000
 20
0.200000000
 30
-4.721038450
 40
0.200000000
100
AcDbArc
 50
90.000000000
 51
-90.000000000
  0
ARC
  5
B49
330
A02
100
AcDbEntity
  8
Part__Feature009
100
AcDbCircle
 10
6.500000000
 20
0.217431149
 30
-3.752776750
 40
0.000000000
100
AcDbArc
 50
180.000000000
 51
0.000000000
  0
ARC
  5
B4A
330
A02
100
AcDbEntity
  8
Part__Feature009
100
AcDbCircle
 10
6.500000000
 20
0.217431149
 30
-3.752776750
 40
0.769022761
100
AcDbArc
 50
0.000000000
 51
180.000000000
  0
ARC
  5
B4B
330
A02
100
AcDbEntity
  8
Part__Feature009
100
AcDbCircle
 10
6.500000000
 20
0.200000000
 30
-4.721038450
 40
0.200000000
100
AcDbArc
 50
90.000000000
 51
-90.000000000
  0
ARC
  5
B4C
330
A02
100
AcDbEntity
  8
Part__Feature009
100
AcDbCircle
 10
6.500000000
 20
0.217431149
 30
-3.752776750
 40
0.000000000
100
AcDbArc
 50
180.000000000
 51
0.000000000
  0
LINE
  5
B4D
330
A02
100
AcDbEntity
  8
Part__Feature009
100
AcDbLine
 10
5.730977239
 20
0.217431149
 30
-3.752776750
 11
5.634739710
 21
1.317431149
 31
-3.752776750
  0
ARC
  5
B4E
330
A02
100
AcDbEntity
  8
Part__Feature009
100
AcDbCircle
 10
6.500000000
 20
1.317431149
 30
-3.752776750
 40
0.865260290
100
AcDbArc
 50
0.000000000
 51
180.000000000
  0
ARC
  5
B4F
330
A02
100
AcDbEntity
  8
Part__Feature009
100
AcDbCircle
 10
6.500000000
 20
1.317431149
 30
-3.752776750
 40
0.000000000
100
AcDbArc
 50
180.000000000
 51
0.000000000
  0
LINE
  5
B50
330
A02
100
AcDbEntity
  8
Part__Feature009
100
AcDbLine
 10
5.730977239
 20
0.217431149
 30
-3.752776750
 11
5.634739710
 21
1.317431149
 31
-3.752776750
  0
ARC
  5
B51
330
A02
100
AcDbEntity
  8
Part__Feature009
100
AcDbCircle
 10
6.500000000
 20
0.217431149
 30
-3.752776750
 40
0.769022761
100
AcDbArc
 50
0.000000000
 51
180.000000000
  0
ARC
  5
B52
330
A02
100
AcDbEntity
  8
Part__Feature009
100
AcDbCircle
 10
6.500000000
 20
-0.200000000
 30
-7.058330249
 40
0.200000000
100
AcDbArc
 50
90.000000000
 51
90.000000000
  0
ARC
  5
B53
330
A02
100
AcDbEntity
  8
Part__Feature009
100
AcDbCircle
 10
6.500000000
 20
-0.200000000
 30
-11.258330249
 40
4.000000000
100
AcDbArc
 50
180.000000000
 51
180.000000000
  0
ARC
  5
B54
330
A02
100
AcDbEntity
  8
Part__Feature009
100
AcDbCircle
 10
6.500000000
 20
-0.200000000
 30
-11.258330249
 40
0.000000000
100
AcDbArc
 50
180.000000000
 51
180.000000000
  0
ARC
  5
B55
330
A02
100
AcDbEntity
  8
Part__Feature009
100
AcDbCircle
 10
6.500000000
 20
-0.200000000
 30
-7.058330249
 40
0.200000000
100
AcDbArc
 50
90.000000000
 51
90.000000000
  0
CIRCLE
  5
B56
330
A02
100
AcDbEntity
  8
Part__Feature009
100
AcDbCircle
 10
6.500000000
 20
0.000000000
 30
-11.258330249
 40
4.200000000
  0
ARC
  5
B57
330
A02
100
AcDbEntity
  8
Part__Feature009
100
AcDbCircle
 10
13.000000194
 20
-0.200000000
 30
4.200000000
 40
0.200000000
100
AcDbArc
 50
90.000000000
 51
90.000000000
  0
ARC
  5
B58
330
A02
100
AcDbEntity
  8
Part__Feature009
100
AcDbCircle
 10
13.000000194
 20
-0.200000000
 30
0.000000000
 40
4.000000000
100
AcDbArc
 50
0.000000000
 51
180.000000000
  0
ARC
  5
B59
330
A02
100
AcDbEntity
  8
Part__Feature009
100
AcDbCircle
 10
13.000000194
 20
-0.200000000
 30
0.000000000
 40
0.000000000
100
AcDbArc
 50
180.000000000
 51
0.000000000
  0
ARC
  5
B5A
330
A02
100
AcDbEntity
  8
Part__Feature009
100
AcDbCircle
 10
13.000000194
 20
-0.200000000
 30
4.200000000
 40
0.200000000
100
AcDbArc
 50
90.000000000
 51
90.000000000
  0
CIRCLE
  5
B5B
330
A02
100
AcDbEntity
  8
Part__Feature009
100
AcDbCircle
 10
13.000000194
 20
0.000000000
 30
0.000000000
 40
4.200000000
  0
ARC
  5
B5C
330
A02
100
AcDbEntity
  8
Part__Feature009
100
AcDbCircle
 10
-0.000000000
 20
-0.200000000
 30
4.200000000
 40
0.200000000
100
AcDbArc
 50
49.150318975
 51
90.000000000
  0
ARC
  5
B5D
330
A02
100
AcDbEntity
  8
Part__Feature009
100
AcDbCircle
 10
0.000000000
 20
-0.200000000
 30
0.000000000
 40
4.000000000
100
AcDbArc
 50
180.000000000
 51
180.000000000
  0
ARC
  5
B5E
330
A02
100
AcDbEntity
  8
Part__Feature009
100
AcDbCircle
 10
0.000000000
 20
-0.200000000
 30
0.000000000
 40
0.000000000
100
AcDbArc
 50
180.000000000
 51
180.000000000
  0
ARC
  5
B5F
330
A02
100
AcDbEntity
  8
Part__Feature009
100
AcDbCircle
 10
-0.000000000
 20
-0.200000000
 30
4.200000000
 40
0.200000000
100
AcDbArc
 50
49.150318975
 51
90.000000000
  0
CIRCLE
  5
B60
330
A02
100
AcDbEntity
  8
Part__Feature009
100
AcDbCircle
 10
0.000000000
 20
0.000000000
 30
0.000000000
 40
4.200000000
  0
ARC
  5
B61
330
A02
100
AcDbEntity
  8
Part__Feature009
100
AcDbCircle
 10
1.103821331
 20
1.300000000
 30
-6.282876168
 40
0.173424223
100
AcDbArc
 50
90.000000000
 51
174.231367778
  0
LINE
  5
B62
330
A02
100
AcDbEntity
  8
Part__Feature009
100
AcDbLine
 10
1.103821331
 20
1.500000000
 30
-6.282876168
 11
1.610780296
 21
1.500000000
 31
-7.160954851
  0
ARC
  5
B63
330
A02
100
AcDbEntity
  8
Part__Feature009
100
AcDbCircle
 10
1.610780296
 20
1.300000000
 30
-7.160954851
 40
0.200000000
100
AcDbArc
 50
90.000000000
 51
174.231367778
  0
LINE
  5
B64
330
A02
100
AcDbEntity
  8
Part__Feature009
100
AcDbLine
 10
1.438234312
 20
1.317431149
 30
-7.260574321
 11
0.931275348
 21
1.317431149
 31
-6.382495637
  0
SPLINE
  5
B65
330
A02
100
AcDbEntity
  8
Part__Feature009
100
AcDbSpline
210
0
220
0
230
1
 70
8
 71
3
 72
8
 73
4
 74
0
 40
0.000000000
 40
0.000000000
 40
0.000000000
 40
0.000000000
 40
0.126378370
 40
0.126378370
 40
0.126378370
 40
0.126378370
 10
1.610780296
 20
1.500000000
 30
-7.160954851
 10
1.821410912
 20
1.500000000
 30
-7.525777781
 10
1.819029086
 20
1.500000000
 30
-8.003965283
 10
1.604774683
 20
1.500000000
 30
-8.366671883
  0
ARC
  5
B66
330
A02
100
AcDbEntity
  8
Part__Feature009
100
AcDbCircle
 10
1.610780296
 20
1.300000000
 30
-7.160954851
 40
0.200000000
100
AcDbArc
 50
90.000000000
 51
174.231367778
  0
SPLINE
  5
B67
330
A02
100
AcDbEntity
  8
Part__Feature009
100
AcDbSpline
210
0
220
0
230
1
 70
8
 71
3
 72
8
 73
4
 74
0
 40
-0.126378370
 40
-0.126378370
 40
-0.126378370
 40
-0.126378370
 40
0.000000000
 40
0.000000000
 40
0.000000000
 40
0.000000000
 10
1.433229636
 20
1.317431149
 30
-8.265338515
 10
1.612134890
 20
1.320983636
 30
-7.963084807
 10
1.614119583
 20
1.320982041
 30
-7.564595221
 10
1.438234312
 20
1.317431149
 30
-7.260574321
  0
ARC
  5
B68
330
A02
100
AcDbEntity
  8
Part__Feature009
100
AcDbCircle
 10
1.604774683
 20
1.300000000
 30
-8.366671883
 40
0.200000000
100
AcDbArc
 50
90.000000000
 51
174.197937793
  0
ARC
  5
B69
330
A02
100
AcDbEntity
  8
Part__Feature009
100
AcDbCircle
 10
11.395225317
 20
1.300000000
 30
-8.366671883
 40
0.200000000
100
AcDbArc
 50
5.802062208
 51
90.000000000
  0
ARC
  5
B6A
330
A02
100
AcDbEntity
  8
Part__Feature009
100
AcDbCircle
 10
6.500000000
 20
1.317431149
 30
-11.258330249
 40
5.066770364
100
AcDbArc
 50
180.000000000
 51
0.000000000
  0
ARC
  5
B6B
330
A02
100
AcDbEntity
  8
Part__Feature009
100
AcDbCircle
 10
1.604774683
 20
1.300000000
 30
-8.366671883
 40
0.200000000
100
AcDbArc
 50
90.000000000
 51
174.197937793
  0
ARC
  5
B6C
330
A02
100
AcDbEntity
  8
Part__Feature009
100
AcDbCircle
 10
6.500000000
 20
1.500000000
 30
-11.258330249
 40
4.895225317
100
AcDbArc
 50
0.000000000
 51
180.000000000
  0
SPLINE
  5
B6D
330
A02
100
AcDbEntity
  8
Part__Feature009
100
AcDbSpline
210
0
220
0
230
1
 70
8
 71
3
 72
8
 73
4
 74
0
 40
0.000000000
 40
0.000000000
 40
0.000000000
 40
0.000000000
 40
0.126378369
 40
0.126378369
 40
0.126378369
 40
0.126378369
 10
11.395225317
 20
1.500000000
 30
-8.366671883
 10
11.180970916
 20
1.500000000
 30
-8.003965286
 10
11.178589089
 20
1.500000000
 30
-7.525777779
 10
11.389219704
 20
1.500000000
 30
-7.160954851
  0
ARC
  5
B6E
330
A02
100
AcDbEntity
  8
Part__Feature009
100
AcDbCircle
 10
11.395225317
 20
1.300000000
 30
-8.366671883
 40
0.200000000
100
AcDbArc
 50
5.802062208
 51
90.000000000
  0
SPLINE
  5
B6F
330
A02
100
AcDbEntity
  8
Part__Feature009
100
AcDbSpline
210
0
220
0
230
1
 70
8
 71
3
 72
8
 73
4
 74
0
 40
-0.126378369
 40
-0.126378369
 40
-0.126378369
 40
-0.126378369
 40
-0.000000000
 40
-0.000000000
 40
-0.000000000
 40
-0.000000000
 10
11.561765688
 20
1.317431149
 30
-7.260574321
 10
11.385880418
 20
1.320982041
 30
-7.564595219
 10
11.387865112
 20
1.320983636
 30
-7.963084809
 10
11.566770364
 20
1.317431149
 30
-8.265338515
  0
ARC
  5
B70
330
A02
100
AcDbEntity
  8
Part__Feature009
100
AcDbCircle
 10
11.389219704
 20
1.300000000
 30
-7.160954851
 40
0.200000000
100
AcDbArc
 50
5.768632224
 51
90.000000000
  0
ARC
  5
B71
330
A02
100
AcDbEntity
  8
Part__Feature009
100
AcDbCircle
 10
11.896178669
 20
1.300000000
 30
-6.282876168
 40
0.200000000
100
AcDbArc
 50
5.768632222
 51
90.000000000
  0
LINE
  5
B72
330
A02
100
AcDbEntity
  8
Part__Feature009
100
AcDbLine
 10
12.068724652
 20
1.317431149
 30
-6.382495637
 11
11.561765688
 21
1.317431149
 31
-7.260574321
  0
ARC
  5
B73
330
A02
100
AcDbEntity
  8
Part__Feature009
100
AcDbCircle
 10
11.389219704
 20
1.300000000
 30
-7.160954851
 40
0.200000000
100
AcDbArc
 50
5.768632224
 51
90.000000000
  0
LINE
  5
B74
330
A02
100
AcDbEntity
  8
Part__Feature009
100
AcDbLine
 10
11.389219704
 20
1.500000000
 30
-7.160954851
 11
11.896178669
 21
1.500000000
 31
-6.282876168
  0
SPLINE
  5
B75
330
A02
100
AcDbEntity
  8
Part__Feature009
100
AcDbSpline
210
0
220
0
230
1
 70
8
 71
3
 72
8
 73
4
 74
0
 40
0.000000000
 40
0.000000000
 40
0.000000000
 40
0.000000000
 40
0.126378370
 40
0.126378370
 40
0.126378370
 40
0.126378370
 10
11.896178669
 20
1.500000000
 30
-6.282876168
 10
12.106809286
 20
1.500000000
 30
-5.918053238
 10
12.522122724
 20
1.500000000
 30
-5.681022209
 10
12.943363054
 20
1.500000000
 30
-5.685218664
  0
ARC
  5
B76
330
A02
100
AcDbEntity
  8
Part__Feature009
100
AcDbCircle
 10
11.896178669
 20
1.300000000
 30
-6.282876168
 40
0.200000000
100
AcDbArc
 50
5.768632222
 51
90.000000000
  0
SPLINE
  5
B77
330
A02
100
AcDbEntity
  8
Part__Feature009
100
AcDbSpline
210
0
220
0
230
1
 70
8
 71
3
 72
8
 73
4
 74
0
 40
-0.126378370
 40
-0.126378370
 40
-0.126378370
 40
-0.126378370
 40
0.000000000
 40
0.000000000
 40
0.000000000
 40
0.000000000
 10
12.941378307
 20
1.317431149
 30
-5.884447718
 10
12.590166291
 20
1.320983636
 30
-5.880638077
 10
12.244071839
 20
1.320982041
 30
-6.078164075
 10
12.068724652
 20
1.317431149
 30
-6.382495637
  0
ARC
  5
B78
330
A02
100
AcDbEntity
  8
Part__Feature009
100
AcDbCircle
 10
12.943363054
 20
1.300000000
 30
-5.685218664
 40
0.200000000
100
AcDbArc
 50
90.000000000
 51
96.495844146
  0
ARC
  5
B79
330
A02
100
AcDbEntity
  8
Part__Feature009
100
AcDbCircle
 10
8.048137738
 20
1.300000000
 30
2.793560298
 40
0.200000000
100
AcDbArc
 50
90.000000000
 51
174.263853837
  0
ARC
  5
B7A
330
A02
100
AcDbEntity
  8
Part__Feature009
100
AcDbCircle
 10
13.000000000
 20
1.317431149
 30
-0.000000000
 40
5.125392058
100
AcDbArc
 50
180.000000000
 51
180.000000000
  0
ARC
  5
B7B
330
A02
100
AcDbEntity
  8
Part__Feature009
100
AcDbCircle
 10
12.943363054
 20
1.300000000
 30
-5.685218664
 40
0.200000000
100
AcDbArc
 50
90.000000000
 51
96.495844146
  0
ARC
  5
B7C
330
A02
100
AcDbEntity
  8
Part__Feature009
100
AcDbCircle
 10
13.000000000
 20
1.500000000
 30
0.000000000
 40
0.056636946
100
AcDbArc
 50
180.000000000
 51
180.000000000
  0
SPLINE
  5
B7D
330
A02
100
AcDbEntity
  8
Part__Feature009
100
AcDbSpline
210
0
220
0
230
1
 70
8
 71
3
 72
8
 73
4
 74
0
 40
0.000000000
 40
0.000000000
 40
0.000000000
 40
0.000000000
 40
0.126378369
 40
0.126378369
 40
0.126378369
 40
0.126378369
 10
8.048137738
 20
1.500000000
 30
2.793560298
 10
7.841151811
 20
1.500000000
 30
2.426657246
 10
7.428220195
 20
1.500000000
 30
2.185500770
 10
7.006958964
 20
1.500000000
 30
2.185500770
  0
ARC
  5
B7E
330
A02
100
AcDbEntity
  8
Part__Feature009
100
AcDbCircle
 10
8.048137738
 20
1.300000000
 30
2.793560298
 40
0.200000000
100
AcDbArc
 50
90.000000000
 51
174.263853837
  0
SPLINE
  5
B7F
330
A02
100
AcDbEntity
  8
Part__Feature009
100
AcDbSpline
210
0
220
0
230
1
 70
8
 71
3
 72
8
 73
4
 74
0
 40
-0.126378369
 40
-0.126378369
 40
-0.126378369
 40
-0.126378369
 40
-0.000000000
 40
-0.000000000
 40
-0.000000000
 40
-0.000000000
 10
7.006958964
 20
1.317431149
 30
2.384739710
 10
7.358191420
 20
1.320982041
 30
2.384429047
 10
7.702301182
 20
1.320983636
 30
2.585392637
 10
7.874607942
 20
1.317431149
 30
2.891455983
  0
ARC
  5
B80
330
A02
100
AcDbEntity
  8
Part__Feature009
100
AcDbCircle
 10
7.006958964
 20
1.300000000
 30
2.185500770
 40
0.200000000
100
AcDbArc
 50
90.000000000
 51
90.000000000
  0
ARC
  5
B81
330
A02
100
AcDbEntity
  8
Part__Feature009
100
AcDbCircle
 10
5.993041036
 20
1.300000000
 30
2.185500770
 40
0.200000000
100
AcDbArc
 50
90.000000000
 51
90.000000000
  0
LINE
  5
B82
330
A02
100
AcDbEntity
  8
Part__Feature009
100
AcDbLine
 10
5.993041036
 20
1.317431149
 30
2.384739710
 11
7.006958964
 21
1.317431149
 31
2.384739710
  0
ARC
  5
B83
330
A02
100
AcDbEntity
  8
Part__Feature009
100
AcDbCircle
 10
7.006958964
 20
1.300000000
 30
2.185500770
 40
0.200000000
100
AcDbArc
 50
90.000000000
 51
90.000000000
  0
LINE
  5
B84
330
A02
100
AcDbEntity
  8
Part__Feature009
100
AcDbLine
 10
7.006958964
 20
1.500000000
 30
2.185500770
 11
5.993041036
 21
1.500000000
 31
2.185500770
  0
SPLINE
  5
B85
330
A02
100
AcDbEntity
  8
Part__Feature009
100
AcDbSpline
210
0
220
0
230
1
 70
8
 71
3
 72
8
 73
4
 74
0
 40
0.000000000
 40
0.000000000
 40
0.000000000
 40
0.000000000
 40
0.126378370
 40
0.126378370
 40
0.126378370
 40
0.126378370
 10
5.993041036
 20
1.500000000
 30
2.185500770
 10
5.571779802
 20
1.500000000
 30
2.185500770
 10
5.158848191
 20
1.500000000
 30
2.426657243
 10
4.951862262
 20
1.500000000
 30
2.793560298
  0
ARC
  5
B86
330
A02
100
AcDbEntity
  8
Part__Feature009
100
AcDbCircle
 10
5.993041036
 20
1.300000000
 30
2.185500770
 40
0.200000000
100
AcDbArc
 50
90.000000000
 51
90.000000000
  0
SPLINE
  5
B87
330
A02
100
AcDbEntity
  8
Part__Feature009
100
AcDbSpline
210
0
220
0
230
1
 70
8
 71
3
 72
8
 73
4
 74
0
 40
-0.126378370
 40
-0.126378370
 40
-0.126378370
 40
-0.126378370
 40
0.000000000
 40
0.000000000
 40
0.000000000
 40
0.000000000
 10
5.125392058
 20
1.317431149
 30
2.891455983
 10
5.297698820
 20
1.320983636
 30
2.585392635
 10
5.641808577
 20
1.320982041
 30
2.384429047
 10
5.993041036
 20
1.317431149
 30
2.384739710
  0
ARC
  5
B88
330
A02
100
AcDbEntity
  8
Part__Feature009
100
AcDbCircle
 10
4.951862262
 20
1.300000000
 30
2.793560298
 40
0.200000000
100
AcDbArc
 50
5.736146163
 51
90.000000000
  0
ARC
  5
B89
330
A02
100
AcDbEntity
  8
Part__Feature009
100
AcDbCircle
 10
0.056636946
 20
1.300000000
 30
-5.685218664
 40
0.200000000
100
AcDbArc
 50
83.504155855
 51
90.000000000
  0
ARC
  5
B8A
330
A02
100
AcDbEntity
  8
Part__Feature009
100
AcDbCircle
 10
0.000000000
 20
1.317431149
 30
0.000000000
 40
0.058621693
100
AcDbArc
 50
0.000000000
 51
0.000000000
  0
ARC
  5
B8B
330
A02
100
AcDbEntity
  8
Part__Feature009
100
AcDbCircle
 10
4.951862262
 20
1.300000000
 30
2.793560298
 40
0.200000000
100
AcDbArc
 50
5.736146163
 51
90.000000000
  0
ARC
  5
B8C
330
A02
100
AcDbEntity
  8
Part__Feature009
100
AcDbCircle
 10
0.000000000
 20
1.500000000
 30
0.000000000
 40
4.951862262
100
AcDbArc
 50
0.000000000
 51
0.000000000
  0
SPLINE
  5
B8D
330
A02
100
AcDbEntity
  8
Part__Feature009
100
AcDbSpline
210
0
220
0
230
1
 70
8
 71
3
 72
8
 73
4
 74
0
 40
0.000000000
 40
0.000000000
 40
0.000000000
 40
0.000000000
 40
0.126378369
 40
0.126378369
 40
0.126378369
 40
0.126378369
 10
0.056636946
 20
1.500000000
 30
-5.685218664
 10
0.477877274
 20
1.500000000
 30
-5.681022209
 10
0.893190716
 20
1.500000000
 30
-5.918053241
 10
1.103821331
 20
1.500000000
 30
-6.282876168
  0
ARC
  5
B8E
330
A02
100
AcDbEntity
  8
Part__Feature009
100
AcDbCircle
 10
0.056636946
 20
1.300000000
 30
-5.685218664
 40
0.200000000
100
AcDbArc
 50
83.504155855
 51
90.000000000
  0
SPLINE
  5
B8F
330
A02
100
AcDbEntity
  8
Part__Feature009
100
AcDbSpline
210
0
220
0
230
1
 70
8
 71
3
 72
8
 73
4
 74
0
 40
-0.126378369
 40
-0.126378369
 40
-0.126378369
 40
-0.126378369
 40
-0.000000000
 40
-0.000000000
 40
-0.000000000
 40
-0.000000000
 10
0.931275348
 20
1.317431149
 30
-6.382495637
 10
0.755928162
 20
1.320982041
 30
-6.078164077
 10
0.409833707
 20
1.320983636
 30
-5.880638077
 10
0.058621693
 20
1.317431149
 30
-5.884447718
  0
ARC
  5
B90
330
A02
100
AcDbEntity
  8
Part__Feature009
100
AcDbCircle
 10
1.103821331
 20
1.300000000
 30
-6.282876168
 40
0.173424223
100
AcDbArc
 50
90.000000000
 51
174.231367778
  0
SPLINE
  5
B91
330
A02
100
AcDbEntity
  8
Part__Feature009
100
AcDbSpline
210
0
220
0
230
1
 70
8
 71
3
 72
8
 73
4
 74
0
 40
-0.125413055
 40
-0.125413055
 40
-0.125413055
 40
-0.125413055
 40
-0.000000000
 40
-0.000000000
 40
-0.000000000
 40
-0.000000000
 10
6.048983680
 20
0.217431149
 30
2.480977239
 10
5.698788118
 20
0.220988491
 30
2.477814363
 10
5.357103768
 20
0.220990009
 30
2.675516029
 10
5.185314915
 20
0.217431149
 30
2.980704274
  0
SPLINE
  5
B92
330
A02
100
AcDbEntity
  8
Part__Feature009
100
AcDbSpline
210
0
220
0
230
1
 70
8
 71
1
 72
4
 73
2
 74
0
 40
0.122361889
 40
0.122361889
 40
0.232923693
 40
0.232923693
 10
6.048983680
 20
0.217431149
 30
2.480977239
 10
5.993041036
 20
1.317431149
 30
2.384739710
  0
SPLINE
  5
B93
330
A02
100
AcDbEntity
  8
Part__Feature009
100
AcDbSpline
210
0
220
0
230
1
 70
8
 71
3
 72
8
 73
4
 74
0
 40
-0.126378370
 40
-0.126378370
 40
-0.126378370
 40
-0.126378370
 40
0.000000000
 40
0.000000000
 40
0.000000000
 40
0.000000000
 10
5.125392058
 20
1.317431149
 30
2.891455983
 10
5.297698820
 20
1.320983636
 30
2.585392635
 10
5.641808577
 20
1.320982041
 30
2.384429047
 10
5.993041036
 20
1.317431149
 30
2.384739710
  0
SPLINE
  5
B94
330
A02
100
AcDbEntity
  8
Part__Feature009
100
AcDbSpline
210
0
220
0
230
1
 70
8
 71
1
 72
4
 73
2
 74
0
 40
-0.232923693
 40
-0.232923693
 40
-0.122361889
 40
-0.122361889
 10
5.125392058
 20
1.317431149
 30
2.891455983
 10
5.185314915
 20
0.217431149
 30
2.980704274
  0
ARC
  5
B95
330
A02
100
AcDbEntity
  8
Part__Feature009
100
AcDbCircle
 10
-0.000000000
 20
0.217431149
 30
-0.000000000
 40
5.185314915
100
AcDbArc
 50
0.000000000
 51
-0.000000000
  0
SPLINE
  5
B96
330
A02
100
AcDbEntity
  8
Part__Feature009
100
AcDbSpline
210
0
220
0
230
1
 70
8
 71
1
 72
4
 73
2
 74
0
 40
-0.232923693
 40
-0.232923693
 40
-0.122361889
 40
-0.122361889
 10
5.125392058
 20
1.317431149
 30
2.891455983
 10
5.185314915
 20
0.217431149
 30
2.980704274
  0
ARC
  5
B97
330
A02
100
AcDbEntity
  8
Part__Feature009
100
AcDbCircle
 10
0.000000000
 20
1.317431149
 30
0.000000000
 40
0.058621693
100
AcDbArc
 50
0.000000000
 51
0.000000000
  0
SPLINE
  5
B98
330
A02
100
AcDbEntity
  8
Part__Feature009
100
AcDbSpline
210
0
220
0
230
1
 70
8
 71
1
 72
4
 73
2
 74
0
 40
0.122380692
 40
0.122380692
 40
0.232942497
 40
0.232942497
 10
0.011291835
 20
0.217431149
 30
-5.980966580
 10
0.058621693
 20
1.317431149
 30
-5.884447718
  0
SPLINE
  5
B99
330
A02
100
AcDbEntity
  8
Part__Feature009
100
AcDbSpline
210
0
220
0
230
1
 70
8
 71
3
 72
8
 73
4
 74
0
 40
-0.125413056
 40
-0.125413056
 40
-0.125413056
 40
-0.125413056
 40
0.000000000
 40
0.000000000
 40
0.000000000
 40
0.000000000
 10
0.011291835
 20
0.217431149
 30
-5.980966580
 10
0.361481716
 20
0.220990043
 30
-5.977140926
 10
0.703538552
 20
0.220988525
 30
-6.174197417
 10
0.875902525
 20
0.217431149
 30
-6.479062154
  0
SPLINE
  5
B9A
330
A02
100
AcDbEntity
  8
Part__Feature009
100
AcDbSpline
210
0
220
0
230
1
 70
8
 71
1
 72
4
 73
2
 74
0
 40
0.122380692
 40
0.122380692
 40
0.232942497
 40
0.232942497
 10
0.011291835
 20
0.217431149
 30
-5.980966580
 10
0.058621693
 20
1.317431149
 30
-5.884447718
  0
SPLINE
  5
B9B
330
A02
100
AcDbEntity
  8
Part__Feature009
100
AcDbSpline
210
0
220
0
230
1
 70
8
 71
3
 72
8
 73
4
 74
0
 40
-0.126378369
 40
-0.126378369
 40
-0.126378369
 40
-0.126378369
 40
-0.000000000
 40
-0.000000000
 40
-0.000000000
 40
-0.000000000
 10
0.931275348
 20
1.317431149
 30
-6.382495637
 10
0.755928162
 20
1.320982041
 30
-6.078164077
 10
0.409833707
 20
1.320983636
 30
-5.880638077
 10
0.058621693
 20
1.317431149
 30
-5.884447718
  0
SPLINE
  5
B9C
330
A02
100
AcDbEntity
  8
Part__Feature009
100
AcDbSpline
210
0
220
0
230
1
 70
8
 71
1
 72
4
 73
2
 74
0
 40
-0.232942497
 40
-0.232942497
 40
-0.122380692
 40
-0.122380692
 10
0.931275348
 20
1.317431149
 30
-6.382495637
 10
0.875902525
 20
0.217431149
 30
-6.479062154
  0
LINE
  5
B9D
330
A02
100
AcDbEntity
  8
Part__Feature009
100
AcDbLine
 10
0.875902525
 20
0.217431149
 30
-6.479062154
 11
1.326918844
 21
0.217431149
 31
-7.260245335
  0
SPLINE
  5
B9E
330
A02
100
AcDbEntity
  8
Part__Feature009
100
AcDbSpline
210
0
220
0
230
1
 70
8
 71
1
 72
4
 73
2
 74
0
 40
-0.232942497
 40
-0.232942497
 40
-0.122380692
 40
-0.122380692
 10
0.931275348
 20
1.317431149
 30
-6.382495637
 10
0.875902525
 20
0.217431149
 30
-6.479062154
  0
LINE
  5
B9F
330
A02
100
AcDbEntity
  8
Part__Feature009
100
AcDbLine
 10
1.438234312
 20
1.317431149
 30
-7.260574321
 11
0.931275348
 21
1.317431149
 31
-6.382495637
  0
SPLINE
  5
BA0
330
A02
100
AcDbEntity
  8
Part__Feature009
100
AcDbSpline
210
0
220
0
230
1
 70
8
 71
1
 72
4
 73
2
 74
0
 40
0.122380591
 40
0.122380591
 40
0.232942396
 40
0.232942396
 10
1.326918844
 20
0.217431149
 30
-7.260245335
 10
1.438234312
 20
1.317431149
 30
-7.260574321
  0
LINE
  5
BA1
330
A02
100
AcDbEntity
  8
Part__Feature009
100
AcDbLine
 10
1.103821331
 20
1.500000000
 30
-6.282876168
 11
1.610780296
 21
1.500000000
 31
-7.160954851
  0
SPLINE
  5
BA2
330
A02
100
AcDbEntity
  8
Part__Feature009
100
AcDbSpline
210
0
220
0
230
1
 70
8
 71
3
 72
8
 73
4
 74
0
 40
0.000000000
 40
0.000000000
 40
0.000000000
 40
0.000000000
 40
0.126378369
 40
0.126378369
 40
0.126378369
 40
0.126378369
 10
0.056636946
 20
1.500000000
 30
-5.685218664
 10
0.477877274
 20
1.500000000
 30
-5.681022209
 10
0.893190716
 20
1.500000000
 30
-5.918053241
 10
1.103821331
 20
1.500000000
 30
-6.282876168
  0
ARC
  5
BA3
330
A02
100
AcDbEntity
  8
Part__Feature009
100
AcDbCircle
 10
0.000000000
 20
1.500000000
 30
0.000000000
 40
4.951862262
100
AcDbArc
 50
0.000000000
 51
0.000000000
  0
SPLINE
  5
BA4
330
A02
100
AcDbEntity
  8
Part__Feature009
100
AcDbSpline
210
0
220
0
230
1
 70
8
 71
3
 72
8
 73
4
 74
0
 40
0.000000000
 40
0.000000000
 40
0.000000000
 40
0.000000000
 40
0.126378370
 40
0.126378370
 40
0.126378370
 40
0.126378370
 10
5.993041036
 20
1.500000000
 30
2.185500770
 10
5.571779802
 20
1.500000000
 30
2.185500770
 10
5.158848191
 20
1.500000000
 30
2.426657243
 10
4.951862262
 20
1.500000000
 30
2.793560298
  0
LINE
  5
BA5
330
A02
100
AcDbEntity
  8
Part__Feature009
100
AcDbLine
 10
7.006958964
 20
1.500000000
 30
2.185500770
 11
5.993041036
 21
1.500000000
 31
2.185500770
  0
SPLINE
  5
BA6
330
A02
100
AcDbEntity
  8
Part__Feature009
100
AcDbSpline
210
0
220
0
230
1
 70
8
 71
3
 72
8
 73
4
 74
0
 40
0.000000000
 40
0.000000000
 40
0.000000000
 40
0.000000000
 40
0.126378369
 40
0.126378369
 40
0.126378369
 40
0.126378369
 10
8.048137738
 20
1.500000000
 30
2.793560298
 10
7.841151811
 20
1.500000000
 30
2.426657246
 10
7.428220195
 20
1.500000000
 30
2.185500770
 10
7.006958964
 20
1.500000000
 30
2.185500770
  0
ARC
  5
BA7
330
A02
100
AcDbEntity
  8
Part__Feature009
100
AcDbCircle
 10
13.000000000
 20
1.500000000
 30
0.000000000
 40
0.056636946
100
AcDbArc
 50
180.000000000
 51
180.000000000
  0
SPLINE
  5
BA8
330
A02
100
AcDbEntity
  8
Part__Feature009
100
AcDbSpline
210
0
220
0
230
1
 70
8
 71
3
 72
8
 73
4
 74
0
 40
0.000000000
 40
0.000000000
 40
0.000000000
 40
0.000000000
 40
0.126378370
 40
0.126378370
 40
0.126378370
 40
0.126378370
 10
11.896178669
 20
1.500000000
 30
-6.282876168
 10
12.106809286
 20
1.500000000
 30
-5.918053238
 10
12.522122724
 20
1.500000000
 30
-5.681022209
 10
12.943363054
 20
1.500000000
 30
-5.685218664
  0
LINE
  5
BA9
330
A02
100
AcDbEntity
  8
Part__Feature009
100
AcDbLine
 10
11.389219704
 20
1.500000000
 30
-7.160954851
 11
11.896178669
 21
1.500000000
 31
-6.282876168
  0
SPLINE
  5
BAA
330
A02
100
AcDbEntity
  8
Part__Feature009
100
AcDbSpline
210
0
220
0
230
1
 70
8
 71
3
 72
8
 73
4
 74
0
 40
0.000000000
 40
0.000000000
 40
0.000000000
 40
0.000000000
 40
0.126378369
 40
0.126378369
 40
0.126378369
 40
0.126378369
 10
11.395225317
 20
1.500000000
 30
-8.366671883
 10
11.180970916
 20
1.500000000
 30
-8.003965286
 10
11.178589089
 20
1.500000000
 30
-7.525777779
 10
11.389219704
 20
1.500000000
 30
-7.160954851
  0
ARC
  5
BAB
330
A02
100
AcDbEntity
  8
Part__Feature009
100
AcDbCircle
 10
6.500000000
 20
1.500000000
 30
-11.258330249
 40
4.895225317
100
AcDbArc
 50
0.000000000
 51
180.000000000
  0
SPLINE
  5
BAC
330
A02
100
AcDbEntity
  8
Part__Feature009
100
AcDbSpline
210
0
220
0
230
1
 70
8
 71
3
 72
8
 73
4
 74
0
 40
0.000000000
 40
0.000000000
 40
0.000000000
 40
0.000000000
 40
0.126378370
 40
0.126378370
 40
0.126378370
 40
0.126378370
 10
1.610780296
 20
1.500000000
 30
-7.160954851
 10
1.821410912
 20
1.500000000
 30
-7.525777781
 10
1.819029086
 20
1.500000000
 30
-8.003965283
 10
1.604774683
 20
1.500000000
 30
-8.366671883
  0
CIRCLE
  5
BAD
330
A02
100
AcDbEntity
  8
Part__Feature009
100
AcDbCircle
 10
6.500000000
 20
1.500000000
 30
-3.752776750
 40
1.064499230
  0
CIRCLE
  5
BAE
330
A02
100
AcDbEntity
  8
Part__Feature009
100
AcDbCircle
 10
13.000000000
 20
1.500000000
 30
0.000000000
 40
3.914499230
  0
CIRCLE
  5
BAF
330
A02
100
AcDbEntity
  8
Part__Feature009
100
AcDbCircle
 10
6.500000000
 20
1.500000000
 30
-11.258330249
 40
3.914499230
  0
CIRCLE
  5
BB0
330
A02
100
AcDbEntity
  8
Part__Feature009
100
AcDbCircle
 10
0.000000000
 20
1.500000000
 30
0.000000000
 40
3.914499230
  0
CIRCLE
  5
BB1
330
A02
100
AcDbEntity
  8
Part__Feature009
100
AcDbCircle
 10
6.500000000
 20
1.500000000
 30
-3.752776750
 40
1.064499230
  0
ARC
  5
BB2
330
A02
100
AcDbEntity
  8
Part__Feature009
100
AcDbCircle
 10
6.500000000
 20
1.300000000
 30
-2.688277520
 40
0.200000000
100
AcDbArc
 50
90.000000000
 51
90.000000000
  0
ARC
  5
BB3
330
A02
100
AcDbEntity
  8
Part__Feature009
100
AcDbCircle
 10
6.500000000
 20
1.317431149
 30
-3.752776750
 40
0.000000000
100
AcDbArc
 50
180.000000000
 51
0.000000000
  0
ARC
  5
BB4
330
A02
100
AcDbEntity
  8
Part__Feature009
100
AcDbCircle
 10
6.500000000
 20
1.317431149
 30
-3.752776750
 40
0.865260290
100
AcDbArc
 50
0.000000000
 51
180.000000000
  0
ARC
  5
BB5
330
A02
100
AcDbEntity
  8
Part__Feature009
100
AcDbCircle
 10
6.500000000
 20
1.300000000
 30
-2.688277520
 40
0.200000000
100
AcDbArc
 50
90.000000000
 51
90.000000000
  0
CIRCLE
  5
BB6
330
A02
100
AcDbEntity
  8
Part__Feature009
100
AcDbCircle
 10
0.000000000
 20
1.500000000
 30
0.000000000
 40
3.914499230
  0
ARC
  5
BB7
330
A02
100
AcDbEntity
  8
Part__Feature009
100
AcDbCircle
 10
-0.000000000
 20
1.300000000
 30
3.914499230
 40
0.200000000
100
AcDbArc
 50
90.000000000
 51
90.000000000
  0
ARC
  5
BB8
330
A02
100
AcDbEntity
  8
Part__Feature009
100
AcDbCircle
 10
0.000000000
 20
1.317431149
 30
0.000000000
 40
0.000000000
100
AcDbArc
 50
180.000000000
 51
180.000000000
  0
ARC
  5
BB9
330
A02
100
AcDbEntity
  8
Part__Feature009
100
AcDbCircle
 10
0.000000000
 20
1.317431149
 30
0.000000000
 40
3.715260290
100
AcDbArc
 50
0.000000000
 51
180.000000000
  0
ARC
  5
BBA
330
A02
100
AcDbEntity
  8
Part__Feature009
100
AcDbCircle
 10
-0.000000000
 20
1.300000000
 30
3.914499230
 40
0.200000000
100
AcDbArc
 50
90.000000000
 51
90.000000000
  0
LINE
  5
BBB
330
A02
100
AcDbEntity
  8
Part__Feature009
100
AcDbLine
 10
-3.600000000
 20
0.000000000
 30
0.000000000
 11
-3.715260290
 21
1.317431149
 31
0.000000000
  0
ARC
  5
BBC
330
A02
100
AcDbEntity
  8
Part__Feature009
100
AcDbCircle
 10
0.000000000
 20
1.317431149
 30
0.000000000
 40
3.715260290
100
AcDbArc
 50
0.000000000
 51
180.000000000
  0
ARC
  5
BBD
330
A02
100
AcDbEntity
  8
Part__Feature009
100
AcDbCircle
 10
0.000000000
 20
1.317431149
 30
0.000000000
 40
0.000000000
100
AcDbArc
 50
180.000000000
 51
180.000000000
  0
LINE
  5
BBE
330
A02
100
AcDbEntity
  8
Part__Feature009
100
AcDbLine
 10
-3.600000000
 20
0.000000000
 30
0.000000000
 11
-3.715260290
 21
1.317431149
 31
0.000000000
  0
CIRCLE
  5
BBF
330
A02
100
AcDbEntity
  8
Part__Feature009
100
AcDbCircle
 10
0.000000000
 20
0.000000000
 30
0.000000000
 40
3.600000000
  0
CIRCLE
  5
BC0
330
A02
100
AcDbEntity
  8
Part__Feature009
100
AcDbCircle
 10
13.000000000
 20
1.500000000
 30
0.000000000
 40
3.914499230
  0
ARC
  5
BC1
330
A02
100
AcDbEntity
  8
Part__Feature009
100
AcDbCircle
 10
13.000000000
 20
1.300000000
 30
3.914499230
 40
0.200000000
100
AcDbArc
 50
90.000000000
 51
90.000000000
  0
ARC
  5
BC2
330
A02
100
AcDbEntity
  8
Part__Feature009
100
AcDbCircle
 10
13.000000000
 20
1.317431149
 30
0.000000000
 40
0.000000000
100
AcDbArc
 50
180.000000000
 51
180.000000000
  0
ARC
  5
BC3
330
A02
100
AcDbEntity
  8
Part__Feature009
100
AcDbCircle
 10
13.000000000
 20
1.317431149
 30
0.000000000
 40
3.715260290
100
AcDbArc
 50
0.000000000
 51
180.000000000
  0
ARC
  5
BC4
330
A02
100
AcDbEntity
  8
Part__Feature009
100
AcDbCircle
 10
13.000000000
 20
1.300000000
 30
3.914499230
 40
0.200000000
100
AcDbArc
 50
90.000000000
 51
90.000000000
  0
LINE
  5
BC5
330
A02
100
AcDbEntity
  8
Part__Feature009
100
AcDbLine
 10
9.400000000
 20
0.000000000
 30
0.000000000
 11
9.284739710
 21
1.317431149
 31
0.000000000
  0
ARC
  5
BC6
330
A02
100
AcDbEntity
  8
Part__Feature009
100
AcDbCircle
 10
13.000000000
 20
1.317431149
 30
0.000000000
 40
3.715260290
100
AcDbArc
 50
0.000000000
 51
180.000000000
  0
ARC
  5
BC7
330
A02
100
AcDbEntity
  8
Part__Feature009
100
AcDbCircle
 10
13.000000000
 20
1.317431149
 30
0.000000000
 40
0.000000000
100
AcDbArc
 50
180.000000000
 51
180.000000000
  0
LINE
  5
BC8
330
A02
100
AcDbEntity
  8
Part__Feature009
100
AcDbLine
 10
9.400000000
 20
0.000000000
 30
0.000000000
 11
9.284739710
 21
1.317431149
 31
0.000000000
  0
CIRCLE
  5
BC9
330
A02
100
AcDbEntity
  8
Part__Feature009
100
AcDbCircle
 10
13.000000000
 20
0.000000000
 30
0.000000000
 40
3.600000000
  0
CIRCLE
  5
BCA
330
A02
100
AcDbEntity
  8
Part__Feature009
100
AcDbCircle
 10
6.500000000
 20
1.500000000
 30
-11.258330249
 40
3.914499230
  0
ARC
  5
BCB
330
A02
100
AcDbEntity
  8
Part__Feature009
100
AcDbCircle
 10
6.500000000
 20
1.300000000
 30
-7.343831019
 40
0.200000000
100
AcDbArc
 50
90.000000000
 51
90.000000000
  0
ARC
  5
BCC
330
A02
100
AcDbEntity
  8
Part__Feature009
100
AcDbCircle
 10
6.500000000
 20
1.317431149
 30
-11.258330249
 40
0.000000000
100
AcDbArc
 50
180.000000000
 51
180.000000000
  0
ARC
  5
BCD
330
A02
100
AcDbEntity
  8
Part__Feature009
100
AcDbCircle
 10
6.500000000
 20
1.317431149
 30
-11.258330249
 40
3.715260290
100
AcDbArc
 50
0.000000000
 51
180.000000000
  0
ARC
  5
BCE
330
A02
100
AcDbEntity
  8
Part__Feature009
100
AcDbCircle
 10
6.500000000
 20
1.300000000
 30
-7.343831019
 40
0.200000000
100
AcDbArc
 50
90.000000000
 51
90.000000000
  0
LINE
  5
BCF
330
A02
100
AcDbEntity
  8
Part__Feature009
100
AcDbLine
 10
2.900000000
 20
0.000000000
 30
-11.258330249
 11
2.784739710
 21
1.317431149
 31
-11.258330249
  0
ARC
  5
BD0
330
A02
100
AcDbEntity
  8
Part__Feature009
100
AcDbCircle
 10
6.500000000
 20
1.317431149
 30
-11.258330249
 40
3.715260290
100
AcDbArc
 50
0.000000000
 51
180.000000000
  0
ARC
  5
BD1
330
A02
100
AcDbEntity
  8
Part__Feature009
100
AcDbCircle
 10
6.500000000
 20
1.317431149
 30
-11.258330249
 40
0.000000000
100
AcDbArc
 50
180.000000000
 51
180.000000000
  0
LINE
  5
BD2
330
A02
100
AcDbEntity
  8
Part__Feature009
100
AcDbLine
 10
2.900000000
 20
0.000000000
 30
-11.258330249
 11
2.784739710
 21
1.317431149
 31
-11.258330249
  0
CIRCLE
  5
BD3
330
A02
100
AcDbEntity
  8
Part__Feature009
100
AcDbCircle
 10
6.500000000
 20
0.000000000
 30
-11.258330249
 40
3.600000000
  0
SPLINE
  5
BD4
330
A02
100
AcDbEntity
  8
Part__Feature009
100
AcDbSpline
210
0
220
0
230
1
 70
8
 71
3
 72
8
 73
4
 74
0
 40
-0.125413055
 40
-0.125413055
 40
-0.125413055
 40
-0.125413055
 40
-0.000000000
 40
-0.000000000
 40
-0.000000000
 40
-0.000000000
 10
1.326918844
 20
0.217431149
 30
-7.260245335
 10
1.504754168
 20
0.220988459
 30
-7.561942161
 10
1.504381678
 20
0.220989977
 30
-7.956700320
 10
1.325976920
 20
0.217431149
 30
-8.258067943
  0
SPLINE
  5
BD5
330
A02
100
AcDbEntity
  8
Part__Feature009
100
AcDbSpline
210
0
220
0
230
1
 70
8
 71
1
 72
4
 73
2
 74
0
 40
0.122380591
 40
0.122380591
 40
0.232942396
 40
0.232942396
 10
1.326918844
 20
0.217431149
 30
-7.260245335
 10
1.438234312
 20
1.317431149
 30
-7.260574321
  0
SPLINE
  5
BD6
330
A02
100
AcDbEntity
  8
Part__Feature009
100
AcDbSpline
210
0
220
0
230
1
 70
8
 71
3
 72
8
 73
4
 74
0
 40
-0.126378370
 40
-0.126378370
 40
-0.126378370
 40
-0.126378370
 40
0.000000000
 40
0.000000000
 40
0.000000000
 40
0.000000000
 10
1.433229636
 20
1.317431149
 30
-8.265338515
 10
1.612134890
 20
1.320983636
 30
-7.963084807
 10
1.614119583
 20
1.320982041
 30
-7.564595221
 10
1.438234312
 20
1.317431149
 30
-7.260574321
  0
SPLINE
  5
BD7
330
A02
100
AcDbEntity
  8
Part__Feature009
100
AcDbSpline
210
0
220
0
230
1
 70
8
 71
1
 72
4
 73
2
 74
0
 40
-0.232942396
 40
-0.232942396
 40
-0.122380591
 40
-0.122380591
 10
1.433229636
 20
1.317431149
 30
-8.265338515
 10
1.325976920
 20
0.217431149
 30
-8.258067943
  0
ARC
  5
BD8
330
A02
100
AcDbEntity
  8
Part__Feature009
100
AcDbCircle
 10
6.500000000
 20
0.217431149
 30
-11.258330249
 40
5.174023080
100
AcDbArc
 50
180.000000000
 51
-0.000000000
  0
SPLINE
  5
BD9
330
A02
100
AcDbEntity
  8
Part__Feature009
100
AcDbSpline
210
0
220
0
230
1
 70
8
 71
1
 72
4
 73
2
 74
0
 40
-0.232942396
 40
-0.232942396
 40
-0.122380591
 40
-0.122380591
 10
1.433229636
 20
1.317431149
 30
-8.265338515
 10
1.325976920
 20
0.217431149
 30
-8.258067943
  0
ARC
  5
BDA
330
A02
100
AcDbEntity
  8
Part__Feature009
100
AcDbCircle
 10
6.500000000
 20
1.317431149
 30
-11.258330249
 40
5.066770364
100
AcDbArc
 50
180.000000000
 51
0.000000000
  0
SPLINE
  5
BDB
330
A02
100
AcDbEntity
  8
Part__Feature009
100
AcDbSpline
210
0
220
0
230
1
 70
8
 71
1
 72
4
 73
2
 74
0
 40
0.122361889
 40
0.122361889
 40
0.232923693
 40
0.232923693
 10
11.674023080
 20
0.217431149
 30
-8.258067943
 10
11.566770364
 20
1.317431149
 30
-8.265338515
  0
ENDSEC
  0
SECTION
  2
OBJECTS
  0
DICTIONARY
  5
F000
330
0
100
AcDbDictionary
  3
ACAD_GROUP
350
F001
  0
DICTIONARY
  5
F001
330
F000
100
AcDbDictionary
  0
ENDSEC
  0
EOF