%TF.GenerationSoftware,KiCad,Pcbnew,8.0.8-8.0.8-0~ubuntu22.04.1*%
%TF.CreationDate,2025-03-19T14:37:52-04:00*%
%TF.ProjectId,hpk_5mm,68706b5f-356d-46d2-9e6b-696361645f70,rev?*%
%TF.SameCoordinates,Original*%
%TF.FileFunction,Copper,L2,Bot*%
%TF.FilePolarity,Positive*%
%FSLAX46Y46*%
G04 Gerber Fmt 4.6, Leading zero omitted, Abs format (unit mm)*
G04 Created by KiCad (PCBNEW 8.0.8-8.0.8-0~ubuntu22.04.1) date 2025-03-19 14:37:52*
%MOMM*%
%LPD*%
G01*
G04 APERTURE LIST*
G04 Aperture macros list*
%AMRoundRect*
0 Rectangle with rounded corners*
0 $1 Rounding radius*
0 $2 $3 $4 $5 $6 $7 $8 $9 X,Y pos of 4 corners*
0 Add a 4 corners polygon primitive as box body*
4,1,4,$2,$3,$4,$5,$6,$7,$8,$9,$2,$3,0*
0 Add four circle primitives for the rounded corners*
1,1,$1+$1,$2,$3*
1,1,$1+$1,$4,$5*
1,1,$1+$1,$6,$7*
1,1,$1+$1,$8,$9*
0 Add four rect primitives between the rounded corners*
20,1,$1+$1,$2,$3,$4,$5,0*
20,1,$1+$1,$4,$5,$6,$7,0*
20,1,$1+$1,$6,$7,$8,$9,0*
20,1,$1+$1,$8,$9,$2,$3,0*%
G04 Aperture macros list end*
%TA.AperFunction,SMDPad,CuDef*%
%ADD10RoundRect,0.250000X1.875000X0.250000X-1.875000X0.250000X-1.875000X-0.250000X1.875000X-0.250000X0*%
%TD*%
%TA.AperFunction,SMDPad,CuDef*%
%ADD11RoundRect,0.140000X0.140000X0.170000X-0.140000X0.170000X-0.140000X-0.170000X0.140000X-0.170000X0*%
%TD*%
%TA.AperFunction,SMDPad,CuDef*%
%ADD12RoundRect,0.135000X-0.135000X-0.185000X0.135000X-0.185000X0.135000X0.185000X-0.135000X0.185000X0*%
%TD*%
%TA.AperFunction,SMDPad,CuDef*%
%ADD13RoundRect,0.135000X0.135000X0.185000X-0.135000X0.185000X-0.135000X-0.185000X0.135000X-0.185000X0*%
%TD*%
%TA.AperFunction,ViaPad*%
%ADD14C,0.355600*%
%TD*%
G04 APERTURE END LIST*
D10*
%TO.P,D2,1,K*%
%TO.N,Net-(D2-K)*%
X153212500Y-68875000D03*
%TO.P,D2,2,A*%
%TO.N,Net-(D2-A)*%
X153212500Y-71075000D03*
%TD*%
D11*
%TO.P,C1,1*%
%TO.N,Net-(D1-K)*%
X139360000Y-67500000D03*
%TO.P,C1,2*%
%TO.N,GND*%
X138400000Y-67500000D03*
%TD*%
D12*
%TO.P,R10,1*%
%TO.N,GND*%
X145980000Y-84000000D03*
%TO.P,R10,2*%
%TO.N,Net-(D3-A)*%
X147000000Y-84000000D03*
%TD*%
%TO.P,R5,1*%
%TO.N,/sipm_tia1/VBIAS*%
X153590000Y-67400000D03*
%TO.P,R5,2*%
%TO.N,Net-(D2-K)*%
X154610000Y-67400000D03*
%TD*%
%TO.P,R2,1*%
%TO.N,GND*%
X139580000Y-72600000D03*
%TO.P,R2,2*%
%TO.N,Net-(D1-A)*%
X140600000Y-72600000D03*
%TD*%
D10*
%TO.P,D3,1,K*%
%TO.N,Net-(D3-K)*%
X146812500Y-80175000D03*
%TO.P,D3,2,A*%
%TO.N,Net-(D3-A)*%
X146812500Y-82375000D03*
%TD*%
%TO.P,D1,1,K*%
%TO.N,Net-(D1-K)*%
X140312500Y-68875000D03*
%TO.P,D1,2,A*%
%TO.N,Net-(D1-A)*%
X140312500Y-71075000D03*
%TD*%
D12*
%TO.P,R9,1*%
%TO.N,/sipm_tia1/VBIAS*%
X147180000Y-78700000D03*
%TO.P,R9,2*%
%TO.N,Net-(D3-K)*%
X148200000Y-78700000D03*
%TD*%
D13*
%TO.P,R6,1*%
%TO.N,GND*%
X153520000Y-72600000D03*
%TO.P,R6,2*%
%TO.N,Net-(D2-A)*%
X152500000Y-72600000D03*
%TD*%
%TO.P,R1,1*%
%TO.N,/sipm_tia1/VBIAS*%
X141510000Y-67500000D03*
%TO.P,R1,2*%
%TO.N,Net-(D1-K)*%
X140490000Y-67500000D03*
%TD*%
D11*
%TO.P,C9,1*%
%TO.N,Net-(D3-K)*%
X146060000Y-78700000D03*
%TO.P,C9,2*%
%TO.N,GND*%
X145100000Y-78700000D03*
%TD*%
%TO.P,C5,1*%
%TO.N,Net-(D2-K)*%
X152500000Y-67400000D03*
%TO.P,C5,2*%
%TO.N,GND*%
X151540000Y-67400000D03*
%TD*%
D14*
%TO.N,/sipm_tia1/V+*%
X142113000Y-67564000D03*
%TD*%
%TA.AperFunction,Conductor*%
%TO.N,GND*%
G36*
X143053513Y-68200117D02*
G01*
X143107859Y-68244030D01*
X143111729Y-68249975D01*
X143137238Y-68291734D01*
X143143327Y-68302965D01*
X143296346Y-68623579D01*
X143301247Y-68635376D01*
X143355594Y-68787928D01*
X143420466Y-68970027D01*
X143420467Y-68970028D01*
X143424129Y-68982268D01*
X143508287Y-69327430D01*
X143510669Y-69339980D01*
X143558867Y-69691946D01*
X143559946Y-69704675D01*
X143571675Y-70059737D01*
X143571439Y-70072510D01*
X143546574Y-70426909D01*
X143545024Y-70439590D01*
X143483830Y-70789529D01*
X143480985Y-70801982D01*
X143384108Y-71143784D01*
X143379996Y-71155879D01*
X143248468Y-71485898D01*
X143243133Y-71497506D01*
X143078350Y-71812234D01*
X143071849Y-71823231D01*
X142875560Y-72119335D01*
X142867963Y-72129605D01*
X142642246Y-72403948D01*
X142633631Y-72413383D01*
X142395118Y-72648986D01*
X142384245Y-72657276D01*
X142375431Y-72665006D01*
X142374463Y-72666269D01*
X142358587Y-72683352D01*
X142354610Y-72686895D01*
X142351588Y-72691140D01*
X142349805Y-72694223D01*
X142349955Y-72694297D01*
X142344555Y-72705248D01*
X142342309Y-72713631D01*
X142337025Y-72729158D01*
X142332251Y-72740632D01*
X142331826Y-72743114D01*
X142331796Y-72748647D01*
X142331429Y-72754246D01*
X142333485Y-72769869D01*
X142334360Y-72779284D01*
X142335423Y-72798747D01*
X142336123Y-72801193D01*
X142349437Y-72824253D01*
X142350671Y-72826442D01*
X142367494Y-72856993D01*
X142371702Y-72862817D01*
X145206495Y-77772677D01*
X145209436Y-77779235D01*
X145227470Y-77809057D01*
X145228748Y-77811220D01*
X145242070Y-77834293D01*
X145243834Y-77836119D01*
X145243837Y-77836121D01*
X145243838Y-77836122D01*
X145260170Y-77846778D01*
X145267884Y-77852243D01*
X145280380Y-77861831D01*
X145280383Y-77861832D01*
X145280385Y-77861834D01*
X145280387Y-77861834D01*
X145280834Y-77862055D01*
X145281649Y-77862805D01*
X145290075Y-77869270D01*
X145289497Y-77870023D01*
X145332258Y-77909355D01*
X145350000Y-77973272D01*
X145350000Y-78201645D01*
X145332734Y-78264763D01*
X145327507Y-78273600D01*
X145327504Y-78273608D01*
X145282357Y-78429002D01*
X145282356Y-78429008D01*
X145279500Y-78465302D01*
X145279500Y-78576000D01*
X145259815Y-78643039D01*
X145207011Y-78688794D01*
X145155500Y-78700000D01*
X145100000Y-78700000D01*
X145100000Y-78826000D01*
X145080315Y-78893039D01*
X145027511Y-78938794D01*
X144976000Y-78950000D01*
X144321210Y-78950000D01*
X144322854Y-78970910D01*
X144367968Y-79126195D01*
X144367970Y-79126199D01*
X144433082Y-79236299D01*
X144450265Y-79304023D01*
X144428105Y-79370285D01*
X144414032Y-79387100D01*
X144344787Y-79456345D01*
X144252687Y-79605663D01*
X144252686Y-79605666D01*
X144197501Y-79772203D01*
X144197501Y-79772204D01*
X144197500Y-79772204D01*
X144187000Y-79874983D01*
X144187000Y-80475001D01*
X144187001Y-80475019D01*
X144197500Y-80577796D01*
X144197501Y-80577799D01*
X144252685Y-80744331D01*
X144252687Y-80744336D01*
X144263004Y-80761062D01*
X144344788Y-80893656D01*
X144468844Y-81017712D01*
X144618166Y-81109814D01*
X144761453Y-81157294D01*
X144818896Y-81197065D01*
X144845719Y-81261581D01*
X144833404Y-81330357D01*
X144785861Y-81381557D01*
X144761452Y-81392705D01*
X144618166Y-81440186D01*
X144618163Y-81440187D01*
X144468842Y-81532289D01*
X144344789Y-81656342D01*
X144252687Y-81805663D01*
X144252685Y-81805668D01*
X144237949Y-81850139D01*
X144197501Y-81972203D01*
X144197501Y-81972204D01*
X144197500Y-81972204D01*
X144187000Y-82074983D01*
X144187000Y-82675001D01*
X144187001Y-82675019D01*
X144197500Y-82777796D01*
X144197501Y-82777799D01*
X144215521Y-82832178D01*
X144252686Y-82944334D01*
X144344788Y-83093656D01*
X144468844Y-83217712D01*
X144618166Y-83309814D01*
X144784703Y-83364999D01*
X144887491Y-83375500D01*
X145149791Y-83375499D01*
X145216828Y-83395183D01*
X145262583Y-83447987D01*
X145272527Y-83517146D01*
X145259814Y-83553271D01*
X145260691Y-83553651D01*
X145257592Y-83560811D01*
X145212833Y-83714871D01*
X145212832Y-83714877D01*
X145210069Y-83750000D01*
X145856000Y-83750000D01*
X145923039Y-83769685D01*
X145968794Y-83822489D01*
X145980000Y-83874000D01*
X145980000Y-84000000D01*
X146105501Y-84000000D01*
X146172540Y-84019685D01*
X146218295Y-84072489D01*
X146229501Y-84124000D01*
X146229501Y-84249181D01*
X146229618Y-84250663D01*
X146230000Y-84260393D01*
X146230000Y-84812844D01*
X146369194Y-84772405D01*
X146369196Y-84772404D01*
X146426386Y-84738582D01*
X146494109Y-84721398D01*
X146552629Y-84738581D01*
X146610607Y-84772869D01*
X146651268Y-84784682D01*
X146764791Y-84817664D01*
X146764794Y-84817664D01*
X146764796Y-84817665D01*
X146800819Y-84820500D01*
X147199180Y-84820499D01*
X147235204Y-84817665D01*
X147389393Y-84772869D01*
X147527598Y-84691135D01*
X147641135Y-84577598D01*
X147641138Y-84577591D01*
X147645915Y-84571435D01*
X147648217Y-84573220D01*
X147689225Y-84534906D01*
X147757963Y-84522378D01*
X147791158Y-84536059D01*
X147745538Y-84490356D01*
X147730749Y-84422070D01*
X147735347Y-84396442D01*
X147767665Y-84285204D01*
X147770500Y-84249181D01*
X147770499Y-83750820D01*
X147767665Y-83714796D01*
X147722869Y-83560607D01*
X147722866Y-83560602D01*
X147719771Y-83553449D01*
X147721538Y-83552684D01*
X147706876Y-83494901D01*
X147729033Y-83428638D01*
X147783497Y-83384872D01*
X147830791Y-83375499D01*
X148737502Y-83375499D01*
X148737508Y-83375499D01*
X148840297Y-83364999D01*
X149006834Y-83309814D01*
X149156156Y-83217712D01*
X149245850Y-83128017D01*
X149307169Y-83094535D01*
X149376861Y-83099519D01*
X149432795Y-83141390D01*
X149457212Y-83206854D01*
X149442361Y-83275127D01*
X149435564Y-83286162D01*
X149338280Y-83427041D01*
X149330750Y-83436858D01*
X149107998Y-83699091D01*
X149099527Y-83708110D01*
X148851742Y-83946844D01*
X148842415Y-83954973D01*
X148572080Y-84167821D01*
X148561989Y-84174981D01*
X148271777Y-84359835D01*
X148261023Y-84365953D01*
X147952906Y-84521433D01*
X147944500Y-84525288D01*
X147922615Y-84534354D01*
X147915190Y-84538441D01*
X147908947Y-84541211D01*
X147907606Y-84538189D01*
X147863158Y-84554721D01*
X147806289Y-84542295D01*
X147822561Y-84549002D01*
X147862511Y-84606324D01*
X147864939Y-84622815D01*
X147866605Y-84622490D01*
X147869285Y-84636201D01*
X147869285Y-84636202D01*
X147869285Y-84636203D01*
X147870197Y-84640866D01*
X147872500Y-84664654D01*
X147872500Y-106006500D01*
X147852815Y-106073539D01*
X147800011Y-106119294D01*
X147748500Y-106130500D01*
X145251500Y-106130500D01*
X145184461Y-106110815D01*
X145138706Y-106058011D01*
X145127500Y-106006500D01*
X145127500Y-84664888D01*
X145147185Y-84597849D01*
X145199989Y-84552094D01*
X145269147Y-84542150D01*
X145332703Y-84571175D01*
X145339181Y-84577207D01*
X145452705Y-84690731D01*
X145452714Y-84690738D01*
X145590805Y-84772404D01*
X145730000Y-84812844D01*
X145730000Y-84250000D01*
X145210069Y-84250000D01*
X145212832Y-84285122D01*
X145241633Y-84384255D01*
X145241433Y-84454124D01*
X145203490Y-84512794D01*
X145139852Y-84541637D01*
X145075101Y-84533409D01*
X145055506Y-84525292D01*
X145047098Y-84521436D01*
X144738976Y-84365953D01*
X144728222Y-84359835D01*
X144438011Y-84174982D01*
X144427920Y-84167822D01*
X144157584Y-83954974D01*
X144148257Y-83946845D01*
X144019187Y-83822489D01*
X143900463Y-83708101D01*
X143892010Y-83699100D01*
X143669242Y-83436851D01*
X143661715Y-83427037D01*
X143658514Y-83422402D01*
X143580768Y-83309814D01*
X143466202Y-83143906D01*
X143459688Y-83133388D01*
X143456724Y-83128020D01*
X143293351Y-82832162D01*
X143287930Y-82821070D01*
X143152439Y-82504764D01*
X143148151Y-82493190D01*
X143044861Y-82164970D01*
X143041740Y-82152998D01*
X142971675Y-81816127D01*
X142969763Y-81803903D01*
X142941072Y-81532288D01*
X142933617Y-81461718D01*
X142932934Y-81449372D01*
X142931069Y-81105292D01*
X142931618Y-81092956D01*
X142964054Y-80750385D01*
X142965828Y-80738170D01*
X143032245Y-80400520D01*
X143035227Y-80388553D01*
X143134963Y-80059202D01*
X143139123Y-80047590D01*
X143271175Y-79729840D01*
X143276484Y-79718674D01*
X143439542Y-79415667D01*
X143445928Y-79405101D01*
X143638374Y-79119851D01*
X143645786Y-79109966D01*
X143865714Y-78845297D01*
X143874049Y-78836228D01*
X144104872Y-78608959D01*
X144116134Y-78600388D01*
X144124564Y-78592996D01*
X144124567Y-78592995D01*
X144125527Y-78591743D01*
X144141419Y-78574641D01*
X144145391Y-78571103D01*
X144145393Y-78571098D01*
X144148439Y-78566820D01*
X144150197Y-78563781D01*
X144150043Y-78563705D01*
X144155441Y-78552756D01*
X144155444Y-78552753D01*
X144157688Y-78544378D01*
X144162985Y-78528816D01*
X144164011Y-78526351D01*
X144207945Y-78472023D01*
X144274277Y-78450072D01*
X144278490Y-78450000D01*
X144850000Y-78450000D01*
X144850000Y-77895494D01*
X144849998Y-77895493D01*
X144703809Y-77937965D01*
X144703806Y-77937967D01*
X144564625Y-78020278D01*
X144564616Y-78020285D01*
X144450285Y-78134616D01*
X144450278Y-78134625D01*
X144367968Y-78273804D01*
X144367966Y-78273808D01*
X144345383Y-78351540D01*
X144307776Y-78410425D01*
X144244303Y-78439631D01*
X144175117Y-78429885D01*
X144122183Y-78384280D01*
X144118921Y-78378945D01*
X144103098Y-78351540D01*
X141293510Y-73485333D01*
X141290575Y-73478784D01*
X141272537Y-73448954D01*
X141271259Y-73446792D01*
X141257933Y-73423712D01*
X141256164Y-73421882D01*
X141256163Y-73421880D01*
X141246029Y-73415267D01*
X141239837Y-73411227D01*
X141232120Y-73405761D01*
X141220302Y-73396694D01*
X141179096Y-73340269D01*
X141174936Y-73270523D01*
X141208102Y-73210631D01*
X141241130Y-73177603D01*
X141241135Y-73177598D01*
X141322869Y-73039393D01*
X141367665Y-72885204D01*
X141370500Y-72849181D01*
X141370499Y-72350820D01*
X141367665Y-72314796D01*
X141344219Y-72234093D01*
X141344418Y-72164225D01*
X141382360Y-72105555D01*
X141445999Y-72076711D01*
X141463295Y-72075499D01*
X142237502Y-72075499D01*
X142237508Y-72075499D01*
X142340297Y-72064999D01*
X142506834Y-72009814D01*
X142656156Y-71917712D01*
X142780212Y-71793656D01*
X142872314Y-71644334D01*
X142927499Y-71477797D01*
X142938000Y-71375009D01*
X142937999Y-70774992D01*
X142930717Y-70703710D01*
X142927499Y-70672203D01*
X142927498Y-70672200D01*
X142872314Y-70505666D01*
X142780212Y-70356344D01*
X142656156Y-70232288D01*
X142506834Y-70140186D01*
X142363546Y-70092705D01*
X142306103Y-70052933D01*
X142279280Y-69988417D01*
X142291595Y-69919642D01*
X142339138Y-69868442D01*
X142363545Y-69857295D01*
X142506834Y-69809814D01*
X142656156Y-69717712D01*
X142780212Y-69593656D01*
X142872314Y-69444334D01*
X142927499Y-69277797D01*
X142938000Y-69175009D01*
X142937999Y-68574992D01*
X142927499Y-68472203D01*
X142888203Y-68353618D01*
X142885802Y-68283792D01*
X142921533Y-68223750D01*
X142984054Y-68192557D01*
X143053513Y-68200117D01*
G37*
%TD.AperFunction*%
%TA.AperFunction,Conductor*%
G36*
X151483039Y-67169685D02*
G01*
X151528794Y-67222489D01*
X151540000Y-67274000D01*
X151540000Y-67526000D01*
X151520315Y-67593039D01*
X151467511Y-67638794D01*
X151416000Y-67650000D01*
X150761210Y-67650000D01*
X150762854Y-67670910D01*
X150807968Y-67826195D01*
X150858218Y-67911162D01*
X150875401Y-67978885D01*
X150853241Y-68045148D01*
X150839168Y-68061964D01*
X150744787Y-68156345D01*
X150652687Y-68305663D01*
X150652685Y-68305668D01*
X150624849Y-68389670D01*
X150597501Y-68472203D01*
X150597501Y-68472204D01*
X150597500Y-68472204D01*
X150587000Y-68574983D01*
X150587000Y-69175001D01*
X150587001Y-69175019D01*
X150597500Y-69277796D01*
X150597501Y-69277799D01*
X150652685Y-69444331D01*
X150652686Y-69444334D01*
X150744788Y-69593656D01*
X150868844Y-69717712D01*
X151018166Y-69809814D01*
X151161453Y-69857294D01*
X151218896Y-69897065D01*
X151245719Y-69961581D01*
X151233404Y-70030357D01*
X151185861Y-70081557D01*
X151161452Y-70092705D01*
X151018166Y-70140186D01*
X151018163Y-70140187D01*
X150868842Y-70232289D01*
X150744789Y-70356342D01*
X150652687Y-70505663D01*
X150652686Y-70505666D01*
X150597501Y-70672203D01*
X150597501Y-70672204D01*
X150597500Y-70672204D01*
X150587000Y-70774983D01*
X150587000Y-71375001D01*
X150587001Y-71375019D01*
X150597500Y-71477796D01*
X150597501Y-71477799D01*
X150627438Y-71568141D01*
X150652686Y-71644334D01*
X150744788Y-71793656D01*
X150868844Y-71917712D01*
X151018166Y-72009814D01*
X151184703Y-72064999D01*
X151287491Y-72075500D01*
X151636705Y-72075499D01*
X151703743Y-72095183D01*
X151749498Y-72147987D01*
X151759442Y-72217146D01*
X151755781Y-72234093D01*
X151732334Y-72314797D01*
X151729500Y-72350811D01*
X151729500Y-72849169D01*
X151729501Y-72849191D01*
X151732335Y-72885205D01*
X151777129Y-73039388D01*
X151777131Y-73039393D01*
X151858863Y-73177595D01*
X151858869Y-73177603D01*
X151861107Y-73179841D01*
X151862300Y-73182026D01*
X151863648Y-73183764D01*
X151863367Y-73183981D01*
X151894592Y-73241164D01*
X151889608Y-73310856D01*
X151847736Y-73366789D01*
X151805251Y-73384053D01*
X151805688Y-73385236D01*
X151790219Y-73390947D01*
X151785442Y-73393671D01*
X151780389Y-73396163D01*
X151767889Y-73405754D01*
X151760172Y-73411220D01*
X151743839Y-73421877D01*
X151742070Y-73423708D01*
X151728760Y-73446759D01*
X151727487Y-73448913D01*
X151709432Y-73478771D01*
X151706494Y-73485324D01*
X149041161Y-78101680D01*
X148990594Y-78149895D01*
X148921986Y-78163117D01*
X148857122Y-78137149D01*
X148846094Y-78127360D01*
X148727603Y-78008869D01*
X148727595Y-78008863D01*
X148589393Y-77927131D01*
X148589388Y-77927129D01*
X148435208Y-77882335D01*
X148435202Y-77882334D01*
X148399181Y-77879500D01*
X148000830Y-77879500D01*
X148000808Y-77879501D01*
X147958480Y-77882832D01*
X147958355Y-77881245D01*
X147896732Y-77874746D01*
X147842240Y-77831015D01*
X147820042Y-77764765D01*
X147836567Y-77698090D01*
X150628291Y-72862822D01*
X150632501Y-72856998D01*
X150636500Y-72849734D01*
X150636502Y-72849733D01*
X150649339Y-72826416D01*
X150650544Y-72824282D01*
X150661948Y-72804531D01*
X150661949Y-72804530D01*
X150661949Y-72804528D01*
X150663874Y-72801195D01*
X150664574Y-72798750D01*
X150664575Y-72798749D01*
X150665637Y-72779276D01*
X150666512Y-72769869D01*
X150668571Y-72754241D01*
X150668569Y-72754236D01*
X150668203Y-72748635D01*
X150668173Y-72743116D01*
X150667747Y-72740636D01*
X150667748Y-72740633D01*
X150662974Y-72729160D01*
X150657686Y-72713620D01*
X150655443Y-72705247D01*
X150655441Y-72705245D01*
X150650043Y-72694296D01*
X150650195Y-72694220D01*
X150648422Y-72691155D01*
X150645393Y-72686901D01*
X150645390Y-72686898D01*
X150645390Y-72686897D01*
X150641414Y-72683355D01*
X150625529Y-72666261D01*
X150624566Y-72665005D01*
X150624564Y-72665004D01*
X150624562Y-72665001D01*
X150615757Y-72657279D01*
X150604873Y-72648980D01*
X150366372Y-72413386D01*
X150357759Y-72403953D01*
X150132036Y-72129605D01*
X150124438Y-72119334D01*
X149928149Y-71823230D01*
X149921648Y-71812233D01*
X149914569Y-71798713D01*
X149756866Y-71497504D01*
X149751533Y-71485900D01*
X149751532Y-71485898D01*
X149619997Y-71155865D01*
X149615892Y-71143791D01*
X149519013Y-70801976D01*
X149516169Y-70789528D01*
X149501162Y-70703709D01*
X149454973Y-70439578D01*
X149453426Y-70426920D01*
X149428559Y-70072503D01*
X149428324Y-70059736D01*
X149428549Y-70052933D01*
X149440054Y-69704657D01*
X149441130Y-69691962D01*
X149489330Y-69339976D01*
X149491712Y-69327429D01*
X149528874Y-69175016D01*
X149575874Y-68982251D01*
X149579525Y-68970047D01*
X149698759Y-68635353D01*
X149703639Y-68623606D01*
X149856684Y-68302941D01*
X149862762Y-68291734D01*
X150047969Y-67988542D01*
X150055161Y-67978028D01*
X150270590Y-67695489D01*
X150278812Y-67685785D01*
X150522183Y-67426894D01*
X150531359Y-67418090D01*
X150800066Y-67185620D01*
X150810122Y-67177789D01*
X150817880Y-67172365D01*
X150884105Y-67150093D01*
X150888919Y-67150000D01*
X151416000Y-67150000D01*
X151483039Y-67169685D01*
G37*
%TD.AperFunction*%
%TA.AperFunction,Conductor*%
G36*
X138343039Y-67269685D02*
G01*
X138388794Y-67322489D01*
X138400000Y-67374000D01*
X138400000Y-67626000D01*
X138380315Y-67693039D01*
X138327511Y-67738794D01*
X138276000Y-67750000D01*
X137621210Y-67750000D01*
X137622854Y-67770910D01*
X137667968Y-67926195D01*
X137750278Y-68065374D01*
X137750285Y-68065383D01*
X137774107Y-68089205D01*
X137807592Y-68150528D01*
X137802608Y-68220220D01*
X137791966Y-68241981D01*
X137752688Y-68305661D01*
X137752685Y-68305668D01*
X137724849Y-68389670D01*
X137697501Y-68472203D01*
X137697501Y-68472204D01*
X137697500Y-68472204D01*
X137687000Y-68574983D01*
X137687000Y-69175001D01*
X137687001Y-69175019D01*
X137697500Y-69277796D01*
X137697501Y-69277799D01*
X137752685Y-69444331D01*
X137752686Y-69444334D01*
X137844788Y-69593656D01*
X137968844Y-69717712D01*
X138118166Y-69809814D01*
X138261453Y-69857294D01*
X138318896Y-69897065D01*
X138345719Y-69961581D01*
X138333404Y-70030357D01*
X138285861Y-70081557D01*
X138261452Y-70092705D01*
X138118166Y-70140186D01*
X138118163Y-70140187D01*
X137968842Y-70232289D01*
X137844789Y-70356342D01*
X137752687Y-70505663D01*
X137752686Y-70505666D01*
X137697501Y-70672203D01*
X137697501Y-70672204D01*
X137697500Y-70672204D01*
X137687000Y-70774983D01*
X137687000Y-71375001D01*
X137687001Y-71375019D01*
X137697500Y-71477796D01*
X137697501Y-71477799D01*
X137727438Y-71568141D01*
X137752686Y-71644334D01*
X137844788Y-71793656D01*
X137968844Y-71917712D01*
X138118166Y-72009814D01*
X138284703Y-72064999D01*
X138387491Y-72075500D01*
X138717227Y-72075499D01*
X138784264Y-72095183D01*
X138830019Y-72147987D01*
X138839963Y-72217146D01*
X138836302Y-72234093D01*
X138812832Y-72314877D01*
X138810069Y-72350000D01*
X139456000Y-72350000D01*
X139523039Y-72369685D01*
X139568794Y-72422489D01*
X139580000Y-72474000D01*
X139580000Y-72726000D01*
X139560315Y-72793039D01*
X139507511Y-72838794D01*
X139456000Y-72850000D01*
X138810069Y-72850000D01*
X138812832Y-72885122D01*
X138812833Y-72885128D01*
X138857592Y-73039188D01*
X138857593Y-73039191D01*
X138938852Y-73176592D01*
X138956035Y-73244316D01*
X138933875Y-73310578D01*
X138879409Y-73354342D01*
X138809929Y-73361711D01*
X138789548Y-73356176D01*
X138608262Y-73289908D01*
X138596505Y-73284910D01*
X138277154Y-73129255D01*
X138265979Y-73123076D01*
X137964323Y-72935382D01*
X137953863Y-72928099D01*
X137827783Y-72830315D01*
X137673136Y-72710375D01*
X137663458Y-72702037D01*
X137406616Y-72456582D01*
X137397848Y-72447292D01*
X137167631Y-72176723D01*
X137159864Y-72166579D01*
X137052172Y-72009814D01*
X136958698Y-71873746D01*
X136952028Y-71862876D01*
X136782055Y-71550893D01*
X136776541Y-71539400D01*
X136639566Y-71211579D01*
X136635266Y-71199586D01*
X136532744Y-70859405D01*
X136529697Y-70847014D01*
X136485173Y-70615065D01*
X136462725Y-70498121D01*
X136460967Y-70485470D01*
X136430245Y-70131519D01*
X136429799Y-70118775D01*
X136435658Y-69763551D01*
X136436526Y-69750816D01*
X136440503Y-69717712D01*
X136478902Y-69398072D01*
X136481071Y-69385518D01*
X136559520Y-69038985D01*
X136562968Y-69026728D01*
X136676650Y-68690117D01*
X136681354Y-68678248D01*
X136775544Y-68472203D01*
X136829055Y-68355145D01*
X136834946Y-68343835D01*
X137015127Y-68037608D01*
X137022138Y-68026985D01*
X137232868Y-67740924D01*
X137240952Y-67731059D01*
X137479977Y-67468216D01*
X137489029Y-67459237D01*
X137687653Y-67281576D01*
X137750742Y-67251555D01*
X137770320Y-67250000D01*
X138276000Y-67250000D01*
X138343039Y-67269685D01*
G37*
%TD.AperFunction*%
%TA.AperFunction,Conductor*%
G36*
X155585696Y-67541735D02*
G01*
X155596238Y-67552027D01*
X155759041Y-67731052D01*
X155767137Y-67740933D01*
X155977847Y-68026966D01*
X155984881Y-68037622D01*
X156137607Y-68297189D01*
X156165048Y-68343826D01*
X156170950Y-68355156D01*
X156318645Y-68678248D01*
X156323351Y-68690124D01*
X156417882Y-68970028D01*
X156437024Y-69026705D01*
X156440483Y-69039003D01*
X156518924Y-69385502D01*
X156521099Y-69398091D01*
X156563473Y-69750816D01*
X156564341Y-69763561D01*
X156570200Y-70118764D01*
X156569753Y-70131532D01*
X156539032Y-70485470D01*
X156537273Y-70498122D01*
X156470302Y-70847014D01*
X156467251Y-70859419D01*
X156364742Y-71199561D01*
X156360430Y-71211587D01*
X156223464Y-71539387D01*
X156217938Y-71550905D01*
X156047976Y-71862867D01*
X156041297Y-71873751D01*
X155978660Y-71964930D01*
X155840134Y-72166580D01*
X155832367Y-72176722D01*
X155602151Y-72447291D01*
X155593383Y-72456582D01*
X155336541Y-72702037D01*
X155326863Y-72710375D01*
X155046142Y-72928095D01*
X155035667Y-72935387D01*
X154823202Y-73067587D01*
X154734025Y-73123074D01*
X154722845Y-73129255D01*
X154403491Y-73284912D01*
X154391733Y-73289910D01*
X154338031Y-73309540D01*
X154268309Y-73314068D01*
X154207206Y-73280182D01*
X154174124Y-73218641D01*
X154179565Y-73148983D01*
X154188728Y-73129955D01*
X154242408Y-73039188D01*
X154287166Y-72885128D01*
X154287167Y-72885122D01*
X154289931Y-72850000D01*
X153644000Y-72850000D01*
X153576961Y-72830315D01*
X153531206Y-72777511D01*
X153520000Y-72726000D01*
X153520000Y-72474000D01*
X153539685Y-72406961D01*
X153592489Y-72361206D01*
X153644000Y-72350000D01*
X154289931Y-72350000D01*
X154287167Y-72314877D01*
X154287166Y-72314871D01*
X154263698Y-72234094D01*
X154263897Y-72164225D01*
X154301839Y-72105555D01*
X154365477Y-72076711D01*
X154382774Y-72075499D01*
X155137502Y-72075499D01*
X155137508Y-72075499D01*
X155240297Y-72064999D01*
X155406834Y-72009814D01*
X155556156Y-71917712D01*
X155680212Y-71793656D01*
X155772314Y-71644334D01*
X155827499Y-71477797D01*
X155838000Y-71375009D01*
X155837999Y-70774992D01*
X155830717Y-70703710D01*
X155827499Y-70672203D01*
X155827498Y-70672200D01*
X155772314Y-70505666D01*
X155680212Y-70356344D01*
X155556156Y-70232288D01*
X155406834Y-70140186D01*
X155263546Y-70092705D01*
X155206103Y-70052933D01*
X155179280Y-69988417D01*
X155191595Y-69919642D01*
X155239138Y-69868442D01*
X155263545Y-69857295D01*
X155406834Y-69809814D01*
X155556156Y-69717712D01*
X155680212Y-69593656D01*
X155772314Y-69444334D01*
X155827499Y-69277797D01*
X155838000Y-69175009D01*
X155837999Y-68574992D01*
X155827499Y-68472203D01*
X155772314Y-68305666D01*
X155680212Y-68156344D01*
X155556156Y-68032288D01*
X155406834Y-67940186D01*
X155406832Y-67940185D01*
X155400687Y-67936395D01*
X155402229Y-67933894D01*
X155359797Y-67896543D01*
X155340636Y-67829352D01*
X155345556Y-67795724D01*
X155377664Y-67685208D01*
X155377665Y-67685202D01*
X155378790Y-67670910D01*
X155380500Y-67649181D01*
X155380499Y-67635457D01*
X155400179Y-67568420D01*
X155452981Y-67522662D01*
X155522138Y-67512714D01*
X155585696Y-67541735D01*
G37*
%TD.AperFunction*%
%TD*%
M02*
