%TF.GenerationSoftware,KiCad,Pcbnew,8.0.8-8.0.8-0~ubuntu22.04.1*%
%TF.CreationDate,2025-03-19T14:37:52-04:00*%
%TF.ProjectId,hpk_5mm,68706b5f-356d-46d2-9e6b-696361645f70,rev?*%
%TF.SameCoordinates,Original*%
%TF.FileFunction,Copper,L1,Top*%
%TF.FilePolarity,Positive*%
%FSLAX46Y46*%
G04 Gerber Fmt 4.6, Leading zero omitted, Abs format (unit mm)*
G04 Created by KiCad (PCBNEW 8.0.8-8.0.8-0~ubuntu22.04.1) date 2025-03-19 14:37:52*
%MOMM*%
%LPD*%
G01*
G04 APERTURE LIST*
G04 Aperture macros list*
%AMRoundRect*
0 Rectangle with rounded corners*
0 $1 Rounding radius*
0 $2 $3 $4 $5 $6 $7 $8 $9 X,Y pos of 4 corners*
0 Add a 4 corners polygon primitive as box body*
4,1,4,$2,$3,$4,$5,$6,$7,$8,$9,$2,$3,0*
0 Add four circle primitives for the rounded corners*
1,1,$1+$1,$2,$3*
1,1,$1+$1,$4,$5*
1,1,$1+$1,$6,$7*
1,1,$1+$1,$8,$9*
0 Add four rect primitives between the rounded corners*
20,1,$1+$1,$2,$3,$4,$5,0*
20,1,$1+$1,$4,$5,$6,$7,0*
20,1,$1+$1,$6,$7,$8,$9,0*
20,1,$1+$1,$8,$9,$2,$3,0*%
G04 Aperture macros list end*
%TA.AperFunction,SMDPad,CuDef*%
%ADD10RoundRect,0.135000X-0.185000X0.135000X-0.185000X-0.135000X0.185000X-0.135000X0.185000X0.135000X0*%
%TD*%
%TA.AperFunction,SMDPad,CuDef*%
%ADD11RoundRect,0.140000X0.140000X0.170000X-0.140000X0.170000X-0.140000X-0.170000X0.140000X-0.170000X0*%
%TD*%
%TA.AperFunction,SMDPad,CuDef*%
%ADD12RoundRect,0.140000X-0.140000X-0.170000X0.140000X-0.170000X0.140000X0.170000X-0.140000X0.170000X0*%
%TD*%
%TA.AperFunction,SMDPad,CuDef*%
%ADD13RoundRect,0.150000X-0.512500X-0.150000X0.512500X-0.150000X0.512500X0.150000X-0.512500X0.150000X0*%
%TD*%
%TA.AperFunction,SMDPad,CuDef*%
%ADD14RoundRect,0.135000X0.135000X0.185000X-0.135000X0.185000X-0.135000X-0.185000X0.135000X-0.185000X0*%
%TD*%
%TA.AperFunction,SMDPad,CuDef*%
%ADD15RoundRect,0.135000X-0.135000X-0.185000X0.135000X-0.185000X0.135000X0.185000X-0.135000X0.185000X0*%
%TD*%
%TA.AperFunction,ViaPad*%
%ADD16C,0.355600*%
%TD*%
%TA.AperFunction,Conductor*%
%ADD17C,0.200000*%
%TD*%
G04 APERTURE END LIST*
D10*
%TO.P,R12,1*%
%TO.N,Net-(C11-Pad2)*%
X143700000Y-80790000D03*
%TO.P,R12,2*%
%TO.N,/sipm_tia3/VOUT*%
X143700000Y-81810000D03*
%TD*%
D11*
%TO.P,C2,1*%
%TO.N,/sipm_tia1/V+*%
X141460000Y-67500000D03*
%TO.P,C2,2*%
%TO.N,GND*%
X140500000Y-67500000D03*
%TD*%
D10*
%TO.P,R8,1*%
%TO.N,Net-(C7-Pad2)*%
X150200000Y-69490000D03*
%TO.P,R8,2*%
%TO.N,/sipm_tia2/VOUT*%
X150200000Y-70510000D03*
%TD*%
D12*
%TO.P,C4,1*%
%TO.N,/sipm_tia1/V-*%
X138420000Y-67500000D03*
%TO.P,C4,2*%
%TO.N,GND*%
X139380000Y-67500000D03*
%TD*%
D13*
%TO.P,U2,1*%
%TO.N,Net-(C7-Pad2)*%
X151862500Y-69050000D03*
%TO.P,U2,2,V-*%
%TO.N,/sipm_tia1/V-*%
X151862500Y-70000000D03*
%TO.P,U2,3,+*%
%TO.N,GND*%
X151862500Y-70950000D03*
%TO.P,U2,4,-*%
%TO.N,Net-(D2-A)*%
X154137500Y-70950000D03*
%TO.P,U2,5,V+*%
%TO.N,/sipm_tia1/V+*%
X154137500Y-69050000D03*
%TD*%
%TO.P,U3,1*%
%TO.N,Net-(C11-Pad2)*%
X145362500Y-80350000D03*
%TO.P,U3,2,V-*%
%TO.N,/sipm_tia1/V-*%
X145362500Y-81300000D03*
%TO.P,U3,3,+*%
%TO.N,GND*%
X145362500Y-82250000D03*
%TO.P,U3,4,-*%
%TO.N,Net-(D3-A)*%
X147637500Y-82250000D03*
%TO.P,U3,5,V+*%
%TO.N,/sipm_tia1/V+*%
X147637500Y-80350000D03*
%TD*%
D14*
%TO.P,R3,1*%
%TO.N,Net-(D1-A)*%
X139510000Y-72500000D03*
%TO.P,R3,2*%
%TO.N,Net-(C3-Pad2)*%
X138490000Y-72500000D03*
%TD*%
D12*
%TO.P,C6,1*%
%TO.N,/sipm_tia1/V+*%
X153620000Y-67600000D03*
%TO.P,C6,2*%
%TO.N,GND*%
X154580000Y-67600000D03*
%TD*%
%TO.P,C8,1*%
%TO.N,/sipm_tia1/V-*%
X151420000Y-67600000D03*
%TO.P,C8,2*%
%TO.N,GND*%
X152380000Y-67600000D03*
%TD*%
%TO.P,C11,1*%
%TO.N,Net-(D3-A)*%
X147120000Y-83700000D03*
%TO.P,C11,2*%
%TO.N,Net-(C11-Pad2)*%
X148080000Y-83700000D03*
%TD*%
%TO.P,C10,1*%
%TO.N,/sipm_tia1/V+*%
X147220000Y-78900000D03*
%TO.P,C10,2*%
%TO.N,GND*%
X148180000Y-78900000D03*
%TD*%
D15*
%TO.P,R11,1*%
%TO.N,Net-(D3-A)*%
X144790000Y-83700000D03*
%TO.P,R11,2*%
%TO.N,Net-(C11-Pad2)*%
X145810000Y-83700000D03*
%TD*%
D12*
%TO.P,C3,1*%
%TO.N,Net-(D1-A)*%
X140640000Y-72500000D03*
%TO.P,C3,2*%
%TO.N,Net-(C3-Pad2)*%
X141600000Y-72500000D03*
%TD*%
D15*
%TO.P,R7,1*%
%TO.N,Net-(D2-A)*%
X151380000Y-72400000D03*
%TO.P,R7,2*%
%TO.N,Net-(C7-Pad2)*%
X152400000Y-72400000D03*
%TD*%
D12*
%TO.P,C7,1*%
%TO.N,Net-(D2-A)*%
X153640000Y-72400000D03*
%TO.P,C7,2*%
%TO.N,Net-(C7-Pad2)*%
X154600000Y-72400000D03*
%TD*%
%TO.P,C12,1*%
%TO.N,/sipm_tia1/V-*%
X144920000Y-78900000D03*
%TO.P,C12,2*%
%TO.N,GND*%
X145880000Y-78900000D03*
%TD*%
D10*
%TO.P,R4,1*%
%TO.N,Net-(C3-Pad2)*%
X137200000Y-69490000D03*
%TO.P,R4,2*%
%TO.N,/sipm_tia1/VOUT*%
X137200000Y-70510000D03*
%TD*%
D13*
%TO.P,U1,1*%
%TO.N,Net-(C3-Pad2)*%
X138862500Y-69050000D03*
%TO.P,U1,2,V-*%
%TO.N,/sipm_tia1/V-*%
X138862500Y-70000000D03*
%TO.P,U1,3,+*%
%TO.N,GND*%
X138862500Y-70950000D03*
%TO.P,U1,4,-*%
%TO.N,Net-(D1-A)*%
X141137500Y-70950000D03*
%TO.P,U1,5,V+*%
%TO.N,/sipm_tia1/V+*%
X141137500Y-69050000D03*
%TD*%
D16*
%TO.N,/sipm_tia1/V+*%
X142113000Y-67564000D03*
%TD*%
D17*
%TO.N,/sipm_tia1/V+*%
X141460000Y-67500000D02*
X142049000Y-67500000D01*
X142049000Y-67500000D02*
X142113000Y-67564000D01*
%TD*%
%TA.AperFunction,Conductor*%
%TO.N,/sipm_tia1/VBIAS*%
G36*
X146509796Y-84321449D02*
G01*
X146554145Y-84349950D01*
X146584307Y-84380112D01*
X146584311Y-84380115D01*
X146584313Y-84380117D01*
X146723605Y-84462494D01*
X146764587Y-84474400D01*
X146879002Y-84507642D01*
X146879005Y-84507642D01*
X146879007Y-84507643D01*
X146915310Y-84510500D01*
X146915318Y-84510500D01*
X147324682Y-84510500D01*
X147324690Y-84510500D01*
X147360993Y-84507643D01*
X147360995Y-84507642D01*
X147360997Y-84507642D01*
X147411618Y-84492935D01*
X147516395Y-84462494D01*
X147536879Y-84450379D01*
X147604601Y-84433196D01*
X147663119Y-84450379D01*
X147683605Y-84462494D01*
X147782486Y-84491221D01*
X147841369Y-84528826D01*
X147870576Y-84592299D01*
X147868928Y-84622211D01*
X147869723Y-84622236D01*
X147869285Y-84636200D01*
X147869285Y-84636201D01*
X147869285Y-84636202D01*
X147870197Y-84640866D01*
X147872500Y-84664654D01*
X147872500Y-106006500D01*
X147852815Y-106073539D01*
X147800011Y-106119294D01*
X147748500Y-106130500D01*
X145251500Y-106130500D01*
X145184461Y-106110815D01*
X145138706Y-106058011D01*
X145127500Y-106006500D01*
X145127500Y-84664655D01*
X145129803Y-84640867D01*
X145130715Y-84636203D01*
X145130713Y-84636198D01*
X145130580Y-84631923D01*
X145129936Y-84626913D01*
X145129883Y-84626924D01*
X145125117Y-84602966D01*
X145129174Y-84602158D01*
X145124150Y-84555413D01*
X145155427Y-84492935D01*
X145183051Y-84470705D01*
X145236882Y-84438869D01*
X145304602Y-84421688D01*
X145363117Y-84438869D01*
X145420607Y-84472869D01*
X145420610Y-84472869D01*
X145420612Y-84472871D01*
X145574791Y-84517664D01*
X145574794Y-84517664D01*
X145574796Y-84517665D01*
X145610819Y-84520500D01*
X146009180Y-84520499D01*
X146045204Y-84517665D01*
X146199393Y-84472869D01*
X146337598Y-84391135D01*
X146378782Y-84349951D01*
X146440105Y-84316465D01*
X146509796Y-84321449D01*
G37*
%TD.AperFunction*%
%TA.AperFunction,Conductor*%
G36*
X149165703Y-78885693D02*
G01*
X149179871Y-78900157D01*
X149354206Y-79109958D01*
X149361629Y-79119857D01*
X149554065Y-79405093D01*
X149560464Y-79415682D01*
X149723515Y-79718674D01*
X149728827Y-79729848D01*
X149860869Y-80047572D01*
X149865042Y-80059220D01*
X149964767Y-80388534D01*
X149967758Y-80400540D01*
X150034168Y-80738155D01*
X150035947Y-80750400D01*
X150068380Y-81092944D01*
X150068930Y-81105304D01*
X150067065Y-81449372D01*
X150066381Y-81461726D01*
X150030236Y-81803903D01*
X150028324Y-81816127D01*
X149958259Y-82152997D01*
X149955138Y-82164970D01*
X149851853Y-82493176D01*
X149847555Y-82504778D01*
X149712073Y-82821062D01*
X149706640Y-82832178D01*
X149540315Y-83133382D01*
X149533801Y-83143902D01*
X149338280Y-83427041D01*
X149330750Y-83436858D01*
X149107998Y-83699090D01*
X149099529Y-83708107D01*
X149070537Y-83736041D01*
X149008602Y-83768381D01*
X148939015Y-83762102D01*
X148883869Y-83719199D01*
X148860673Y-83653292D01*
X148860500Y-83646746D01*
X148860500Y-83465317D01*
X148860499Y-83465302D01*
X148859359Y-83450819D01*
X148857643Y-83429007D01*
X148853514Y-83414796D01*
X148812495Y-83273609D01*
X148812494Y-83273606D01*
X148812494Y-83273605D01*
X148730117Y-83134313D01*
X148730115Y-83134311D01*
X148730112Y-83134307D01*
X148620556Y-83024751D01*
X148587071Y-82963428D01*
X148592055Y-82893736D01*
X148620553Y-82849392D01*
X148668081Y-82801865D01*
X148751744Y-82660398D01*
X148797598Y-82502569D01*
X148800500Y-82465694D01*
X148800500Y-82034306D01*
X148797598Y-81997431D01*
X148751744Y-81839602D01*
X148668081Y-81698135D01*
X148668079Y-81698133D01*
X148668076Y-81698129D01*
X148551870Y-81581923D01*
X148551862Y-81581917D01*
X148410396Y-81498255D01*
X148410393Y-81498254D01*
X148252573Y-81452402D01*
X148252567Y-81452401D01*
X148215701Y-81449500D01*
X148215694Y-81449500D01*
X147059306Y-81449500D01*
X147059298Y-81449500D01*
X147022432Y-81452401D01*
X147022426Y-81452402D01*
X146864606Y-81498254D01*
X146864603Y-81498255D01*
X146716420Y-81585890D01*
X146715345Y-81584073D01*
X146660448Y-81605620D01*
X146591932Y-81591931D01*
X146541694Y-81543373D01*
X146525500Y-81482104D01*
X146525500Y-81117895D01*
X146545185Y-81050856D01*
X146597989Y-81005101D01*
X146667147Y-80995157D01*
X146715496Y-81015671D01*
X146716420Y-81014110D01*
X146757034Y-81038128D01*
X146864602Y-81101744D01*
X146906224Y-81113836D01*
X147022426Y-81147597D01*
X147022429Y-81147597D01*
X147022431Y-81147598D01*
X147059306Y-81150500D01*
X147059314Y-81150500D01*
X148215686Y-81150500D01*
X148215694Y-81150500D01*
X148252569Y-81147598D01*
X148252571Y-81147597D01*
X148252573Y-81147597D01*
X148294191Y-81135505D01*
X148410398Y-81101744D01*
X148551865Y-81018081D01*
X148668081Y-80901865D01*
X148751744Y-80760398D01*
X148797598Y-80602569D01*
X148800500Y-80565694D01*
X148800500Y-80134306D01*
X148797598Y-80097431D01*
X148784776Y-80053299D01*
X148751745Y-79939606D01*
X148751744Y-79939603D01*
X148751744Y-79939602D01*
X148668081Y-79798135D01*
X148668079Y-79798133D01*
X148668076Y-79798129D01*
X148661813Y-79791866D01*
X148628328Y-79730543D01*
X148633312Y-79660851D01*
X148675184Y-79604918D01*
X148686365Y-79597457D01*
X148715687Y-79580117D01*
X148830117Y-79465687D01*
X148912494Y-79326395D01*
X148957643Y-79170993D01*
X148960500Y-79134690D01*
X148960500Y-78979406D01*
X148980185Y-78912367D01*
X149032989Y-78866612D01*
X149102147Y-78856668D01*
X149165703Y-78885693D01*
G37*
%TD.AperFunction*%
%TA.AperFunction,Conductor*%
G36*
X144156407Y-82548423D02*
G01*
X144215077Y-82586365D01*
X144240209Y-82632703D01*
X144248255Y-82660396D01*
X144331919Y-82801866D01*
X144333925Y-82804452D01*
X144334865Y-82806847D01*
X144335890Y-82808580D01*
X144335610Y-82808745D01*
X144359459Y-82869490D01*
X144345777Y-82938007D01*
X144299066Y-82987182D01*
X144262402Y-83008865D01*
X144262396Y-83008869D01*
X144148869Y-83122396D01*
X144148863Y-83122404D01*
X144067131Y-83260606D01*
X144067129Y-83260611D01*
X144022335Y-83414791D01*
X144022334Y-83414797D01*
X144019500Y-83450811D01*
X144019500Y-83511675D01*
X143999815Y-83578714D01*
X143947011Y-83624469D01*
X143877853Y-83634413D01*
X143814297Y-83605388D01*
X143800994Y-83591954D01*
X143669234Y-83436842D01*
X143661715Y-83427037D01*
X143466202Y-83143906D01*
X143459688Y-83133388D01*
X143453623Y-83122404D01*
X143293351Y-82832162D01*
X143287930Y-82821070D01*
X143254075Y-82742036D01*
X143245774Y-82672665D01*
X143276296Y-82609814D01*
X143335952Y-82573443D01*
X143402652Y-82574136D01*
X143414796Y-82577665D01*
X143450819Y-82580500D01*
X143949180Y-82580499D01*
X143985204Y-82577665D01*
X144086540Y-82548224D01*
X144156407Y-82548423D01*
G37*
%TD.AperFunction*%
%TA.AperFunction,Conductor*%
G36*
X144059735Y-78755131D02*
G01*
X144115341Y-78797436D01*
X144139249Y-78863088D01*
X144139500Y-78870973D01*
X144139500Y-79134697D01*
X144142356Y-79170991D01*
X144142357Y-79170997D01*
X144187504Y-79326390D01*
X144187505Y-79326393D01*
X144269881Y-79465684D01*
X144269887Y-79465692D01*
X144379443Y-79575248D01*
X144412928Y-79636571D01*
X144407944Y-79706263D01*
X144379443Y-79750610D01*
X144331923Y-79798129D01*
X144331917Y-79798137D01*
X144248255Y-79939603D01*
X144248253Y-79939606D01*
X144240210Y-79967294D01*
X144202604Y-80026180D01*
X144139131Y-80055386D01*
X144086539Y-80051775D01*
X143985208Y-80022335D01*
X143985202Y-80022334D01*
X143949181Y-80019500D01*
X143450830Y-80019500D01*
X143450808Y-80019501D01*
X143414798Y-80022334D01*
X143401561Y-80026180D01*
X143361551Y-80037803D01*
X143291683Y-80037604D01*
X143233013Y-79999661D01*
X143204170Y-79936023D01*
X143212452Y-79871142D01*
X143271175Y-79729840D01*
X143276484Y-79718674D01*
X143439542Y-79415667D01*
X143445928Y-79405101D01*
X143638374Y-79119851D01*
X143645786Y-79109966D01*
X143865714Y-78845297D01*
X143874040Y-78836238D01*
X143928506Y-78782610D01*
X143990084Y-78749606D01*
X144059735Y-78755131D01*
G37*
%TD.AperFunction*%
%TA.AperFunction,Conductor*%
G36*
X150729991Y-72969964D02*
G01*
X150741019Y-72979753D01*
X150852396Y-73091130D01*
X150852400Y-73091133D01*
X150852402Y-73091135D01*
X150990607Y-73172869D01*
X151015538Y-73180112D01*
X151144791Y-73217664D01*
X151144794Y-73217664D01*
X151144796Y-73217665D01*
X151180819Y-73220500D01*
X151579180Y-73220499D01*
X151615204Y-73217665D01*
X151620590Y-73216100D01*
X151690460Y-73216299D01*
X151749130Y-73254241D01*
X151777974Y-73317879D01*
X151767833Y-73387009D01*
X151744348Y-73421351D01*
X151742070Y-73423707D01*
X151728760Y-73446759D01*
X151727487Y-73448913D01*
X151709432Y-73478771D01*
X151706494Y-73485324D01*
X148959561Y-78243009D01*
X148908994Y-78291224D01*
X148840386Y-78304446D01*
X148775522Y-78278478D01*
X148764494Y-78268689D01*
X148715692Y-78219887D01*
X148715684Y-78219881D01*
X148625930Y-78166801D01*
X148576395Y-78137506D01*
X148576394Y-78137505D01*
X148576393Y-78137505D01*
X148576390Y-78137504D01*
X148420997Y-78092357D01*
X148420991Y-78092356D01*
X148384697Y-78089500D01*
X148384690Y-78089500D01*
X147975310Y-78089500D01*
X147975302Y-78089500D01*
X147939008Y-78092356D01*
X147939002Y-78092357D01*
X147783608Y-78137504D01*
X147783602Y-78137506D01*
X147763120Y-78149620D01*
X147695396Y-78166801D01*
X147636880Y-78149620D01*
X147616397Y-78137506D01*
X147616391Y-78137504D01*
X147460997Y-78092357D01*
X147460991Y-78092356D01*
X147424697Y-78089500D01*
X147424690Y-78089500D01*
X147015310Y-78089500D01*
X147015302Y-78089500D01*
X146979008Y-78092356D01*
X146979002Y-78092357D01*
X146823609Y-78137504D01*
X146823606Y-78137505D01*
X146684315Y-78219881D01*
X146684307Y-78219887D01*
X146637681Y-78266514D01*
X146576358Y-78299999D01*
X146506666Y-78295015D01*
X146462319Y-78266514D01*
X146415692Y-78219887D01*
X146415684Y-78219881D01*
X146325930Y-78166801D01*
X146276395Y-78137506D01*
X146276394Y-78137505D01*
X146276393Y-78137505D01*
X146276390Y-78137504D01*
X146120997Y-78092357D01*
X146120991Y-78092356D01*
X146084697Y-78089500D01*
X146084690Y-78089500D01*
X145675310Y-78089500D01*
X145675302Y-78089500D01*
X145639008Y-78092356D01*
X145639002Y-78092357D01*
X145483608Y-78137504D01*
X145483602Y-78137506D01*
X145463120Y-78149620D01*
X145395396Y-78166801D01*
X145336880Y-78149620D01*
X145316397Y-78137506D01*
X145316391Y-78137504D01*
X145160997Y-78092357D01*
X145160991Y-78092356D01*
X145124697Y-78089500D01*
X145124690Y-78089500D01*
X144715310Y-78089500D01*
X144715302Y-78089500D01*
X144679008Y-78092356D01*
X144679002Y-78092357D01*
X144523609Y-78137504D01*
X144523606Y-78137505D01*
X144384315Y-78219881D01*
X144384311Y-78219884D01*
X144272107Y-78332088D01*
X144210784Y-78365572D01*
X144141092Y-78360588D01*
X144085159Y-78318716D01*
X144077040Y-78306407D01*
X144073340Y-78299999D01*
X141414420Y-73694748D01*
X141299959Y-73496501D01*
X141283485Y-73428601D01*
X141306337Y-73362574D01*
X141361257Y-73319383D01*
X141407345Y-73310500D01*
X141804682Y-73310500D01*
X141804690Y-73310500D01*
X141840993Y-73307643D01*
X141840995Y-73307642D01*
X141840997Y-73307642D01*
X141892771Y-73292600D01*
X141996395Y-73262494D01*
X142135687Y-73180117D01*
X142250117Y-73065687D01*
X142262889Y-73044089D01*
X142313955Y-72996406D01*
X142382696Y-72983899D01*
X142447287Y-73010543D01*
X142477008Y-73045207D01*
X145206495Y-77772677D01*
X145209436Y-77779235D01*
X145227470Y-77809057D01*
X145228748Y-77811220D01*
X145242070Y-77834293D01*
X145243834Y-77836119D01*
X145243837Y-77836121D01*
X145243838Y-77836122D01*
X145260165Y-77846775D01*
X145267884Y-77852243D01*
X145280385Y-77861835D01*
X145285416Y-77864316D01*
X145290216Y-77867052D01*
X145292581Y-77867925D01*
X145292582Y-77867926D01*
X145304900Y-77869527D01*
X145320985Y-77872712D01*
X145329379Y-77874962D01*
X145329384Y-77874961D01*
X145341571Y-77875760D01*
X145341559Y-77875932D01*
X145345063Y-77875929D01*
X145350294Y-77875430D01*
X145350295Y-77875429D01*
X145350299Y-77875430D01*
X145355341Y-77873761D01*
X145378112Y-77868544D01*
X145379668Y-77868340D01*
X145379672Y-77868337D01*
X145389052Y-77865153D01*
X145403218Y-77859184D01*
X145686341Y-77779651D01*
X145697330Y-77777098D01*
X146006789Y-77719964D01*
X146017986Y-77718420D01*
X146331363Y-77689733D01*
X146342667Y-77689218D01*
X146657333Y-77689218D01*
X146668636Y-77689734D01*
X146982018Y-77718420D01*
X146993195Y-77719960D01*
X147302657Y-77777096D01*
X147313672Y-77779655D01*
X147572069Y-77852243D01*
X147596767Y-77859181D01*
X147610971Y-77865165D01*
X147620327Y-77868341D01*
X147620328Y-77868341D01*
X147620330Y-77868342D01*
X147621883Y-77868546D01*
X147644643Y-77873759D01*
X147649699Y-77875432D01*
X147649701Y-77875431D01*
X147649702Y-77875432D01*
X147654934Y-77875931D01*
X147658442Y-77875934D01*
X147658431Y-77875761D01*
X147670613Y-77874962D01*
X147670619Y-77874963D01*
X147679003Y-77872716D01*
X147695092Y-77869530D01*
X147707416Y-77867928D01*
X147707417Y-77867927D01*
X147707419Y-77867927D01*
X147709774Y-77867057D01*
X147714595Y-77864309D01*
X147719604Y-77861838D01*
X147719613Y-77861836D01*
X147732106Y-77852249D01*
X147739820Y-77846784D01*
X147756160Y-77836124D01*
X147756162Y-77836121D01*
X147757930Y-77834291D01*
X147759852Y-77830960D01*
X147759855Y-77830959D01*
X147771311Y-77811115D01*
X147772528Y-77809057D01*
X147786279Y-77786321D01*
X147786279Y-77786319D01*
X147790573Y-77779220D01*
X147793510Y-77772665D01*
X150545954Y-73005430D01*
X150596519Y-72957218D01*
X150665126Y-72943996D01*
X150729991Y-72969964D01*
G37*
%TD.AperFunction*%
%TA.AperFunction,Conductor*%
G36*
X140143391Y-73203228D02*
G01*
X140172595Y-73220499D01*
X140243605Y-73262494D01*
X140279312Y-73272868D01*
X140402045Y-73308526D01*
X140460931Y-73346132D01*
X140490137Y-73409605D01*
X140480391Y-73478791D01*
X140434787Y-73531726D01*
X140375111Y-73551365D01*
X140043136Y-73571914D01*
X140030362Y-73572046D01*
X139772099Y-73561387D01*
X139705928Y-73538954D01*
X139662389Y-73484308D01*
X139655306Y-73414799D01*
X139686927Y-73352494D01*
X139742618Y-73318415D01*
X139745197Y-73317665D01*
X139745204Y-73317665D01*
X139899393Y-73272869D01*
X140017150Y-73203227D01*
X140084873Y-73186045D01*
X140143391Y-73203228D01*
G37*
%TD.AperFunction*%
%TA.AperFunction,Conductor*%
G36*
X153064793Y-73056446D02*
G01*
X153096820Y-73077044D01*
X153098147Y-73075334D01*
X153104310Y-73080114D01*
X153104313Y-73080117D01*
X153243605Y-73162494D01*
X153279312Y-73172868D01*
X153399002Y-73207642D01*
X153399005Y-73207642D01*
X153399007Y-73207643D01*
X153435310Y-73210500D01*
X153435318Y-73210500D01*
X153844682Y-73210500D01*
X153844690Y-73210500D01*
X153856082Y-73209603D01*
X153924458Y-73223966D01*
X153974216Y-73273017D01*
X153989556Y-73341181D01*
X153965609Y-73406819D01*
X153909976Y-73449090D01*
X153896176Y-73453446D01*
X153701417Y-73502635D01*
X153688886Y-73505121D01*
X153337325Y-73556212D01*
X153324605Y-73557396D01*
X152969637Y-73572046D01*
X152956863Y-73571914D01*
X152602287Y-73549966D01*
X152589594Y-73548521D01*
X152239156Y-73490208D01*
X152226679Y-73487465D01*
X152132799Y-73461689D01*
X152073364Y-73424957D01*
X152043222Y-73361923D01*
X152051945Y-73292600D01*
X152096761Y-73238997D01*
X152163443Y-73218133D01*
X152175352Y-73218495D01*
X152200819Y-73220500D01*
X152599180Y-73220499D01*
X152635204Y-73217665D01*
X152789393Y-73172869D01*
X152927598Y-73091135D01*
X152933781Y-73084951D01*
X152995101Y-73051465D01*
X153064793Y-73056446D01*
G37*
%TD.AperFunction*%
%TA.AperFunction,Conductor*%
G36*
X137656407Y-71248423D02*
G01*
X137715077Y-71286365D01*
X137740209Y-71332703D01*
X137748255Y-71360396D01*
X137748256Y-71360398D01*
X137785681Y-71423681D01*
X137831917Y-71501862D01*
X137831923Y-71501870D01*
X137948129Y-71618076D01*
X137952469Y-71621442D01*
X137993380Y-71678082D01*
X137997175Y-71747848D01*
X137964158Y-71807108D01*
X137848866Y-71922400D01*
X137848863Y-71922404D01*
X137767131Y-72060606D01*
X137767129Y-72060611D01*
X137722335Y-72214791D01*
X137722334Y-72214797D01*
X137719500Y-72250811D01*
X137719500Y-72465572D01*
X137699815Y-72532611D01*
X137647011Y-72578366D01*
X137577853Y-72588310D01*
X137514297Y-72559285D01*
X137509829Y-72555218D01*
X137406617Y-72456582D01*
X137397848Y-72447292D01*
X137167631Y-72176723D01*
X137159864Y-72166579D01*
X137085801Y-72058768D01*
X136958698Y-71873746D01*
X136952028Y-71862876D01*
X136782055Y-71550893D01*
X136776535Y-71539387D01*
X136771749Y-71527933D01*
X136732918Y-71434997D01*
X136725235Y-71365551D01*
X136756317Y-71302976D01*
X136816296Y-71267139D01*
X136881927Y-71268116D01*
X136914791Y-71277664D01*
X136914794Y-71277664D01*
X136914796Y-71277665D01*
X136950819Y-71280500D01*
X137449180Y-71280499D01*
X137485204Y-71277665D01*
X137586540Y-71248224D01*
X137656407Y-71248423D01*
G37*
%TD.AperFunction*%
%TA.AperFunction,Conductor*%
G36*
X155565703Y-67519747D02*
G01*
X155576233Y-67530028D01*
X155710104Y-67677238D01*
X155759041Y-67731052D01*
X155767137Y-67740933D01*
X155977847Y-68026966D01*
X155984881Y-68037622D01*
X156137607Y-68297189D01*
X156165048Y-68343826D01*
X156170949Y-68355154D01*
X156183154Y-68381853D01*
X156318645Y-68678248D01*
X156323351Y-68690124D01*
X156356382Y-68787927D01*
X156417882Y-68970028D01*
X156437024Y-69026705D01*
X156440483Y-69039003D01*
X156518924Y-69385502D01*
X156521099Y-69398091D01*
X156563473Y-69750816D01*
X156564341Y-69763561D01*
X156570200Y-70118764D01*
X156569753Y-70131532D01*
X156539032Y-70485470D01*
X156537273Y-70498122D01*
X156470302Y-70847014D01*
X156467251Y-70859419D01*
X156374949Y-71165694D01*
X156364742Y-71199561D01*
X156360430Y-71211587D01*
X156223464Y-71539387D01*
X156217938Y-71550905D01*
X156047976Y-71862867D01*
X156041297Y-71873751D01*
X156041296Y-71873755D01*
X156041295Y-71873756D01*
X155840134Y-72166580D01*
X155832367Y-72176722D01*
X155602147Y-72447296D01*
X155593381Y-72456584D01*
X155590174Y-72459649D01*
X155528109Y-72491738D01*
X155458548Y-72485177D01*
X155403576Y-72442051D01*
X155380647Y-72376050D01*
X155380500Y-72370006D01*
X155380500Y-72165317D01*
X155380499Y-72165302D01*
X155379359Y-72150819D01*
X155377643Y-72129007D01*
X155376383Y-72124671D01*
X155332495Y-71973609D01*
X155332494Y-71973606D01*
X155332494Y-71973605D01*
X155250117Y-71834313D01*
X155250115Y-71834311D01*
X155250112Y-71834307D01*
X155130556Y-71714751D01*
X155097071Y-71653428D01*
X155102055Y-71583736D01*
X155130556Y-71539389D01*
X155168081Y-71501865D01*
X155251744Y-71360398D01*
X155297598Y-71202569D01*
X155300500Y-71165694D01*
X155300500Y-70734306D01*
X155297598Y-70697431D01*
X155251744Y-70539602D01*
X155168081Y-70398135D01*
X155168079Y-70398133D01*
X155168076Y-70398129D01*
X155051870Y-70281923D01*
X155051862Y-70281917D01*
X154910396Y-70198255D01*
X154910393Y-70198254D01*
X154752573Y-70152402D01*
X154752567Y-70152401D01*
X154715701Y-70149500D01*
X154715694Y-70149500D01*
X153559306Y-70149500D01*
X153559298Y-70149500D01*
X153522432Y-70152401D01*
X153522426Y-70152402D01*
X153364606Y-70198254D01*
X153364603Y-70198255D01*
X153216420Y-70285890D01*
X153215345Y-70284073D01*
X153160448Y-70305620D01*
X153091932Y-70291931D01*
X153041694Y-70243373D01*
X153025500Y-70182104D01*
X153025500Y-69817895D01*
X153045185Y-69750856D01*
X153097989Y-69705101D01*
X153167147Y-69695157D01*
X153215496Y-69715671D01*
X153216420Y-69714110D01*
X153257034Y-69738128D01*
X153364602Y-69801744D01*
X153406224Y-69813836D01*
X153522426Y-69847597D01*
X153522429Y-69847597D01*
X153522431Y-69847598D01*
X153559306Y-69850500D01*
X153559314Y-69850500D01*
X154715686Y-69850500D01*
X154715694Y-69850500D01*
X154752569Y-69847598D01*
X154752571Y-69847597D01*
X154752573Y-69847597D01*
X154854806Y-69817895D01*
X154910398Y-69801744D01*
X155051865Y-69718081D01*
X155168081Y-69601865D01*
X155251744Y-69460398D01*
X155297598Y-69302569D01*
X155300500Y-69265694D01*
X155300500Y-68834306D01*
X155297598Y-68797431D01*
X155294837Y-68787928D01*
X155251745Y-68639606D01*
X155251744Y-68639603D01*
X155251744Y-68639602D01*
X155168081Y-68498135D01*
X155168079Y-68498133D01*
X155168076Y-68498129D01*
X155120557Y-68450610D01*
X155087072Y-68389287D01*
X155092056Y-68319595D01*
X155120557Y-68275248D01*
X155230112Y-68165692D01*
X155230117Y-68165687D01*
X155312494Y-68026395D01*
X155357643Y-67870993D01*
X155360500Y-67834690D01*
X155360500Y-67613460D01*
X155380185Y-67546421D01*
X155432989Y-67500666D01*
X155502147Y-67490722D01*
X155565703Y-67519747D01*
G37*
%TD.AperFunction*%
%TA.AperFunction,Conductor*%
G36*
X142880068Y-67896113D02*
G01*
X142894428Y-67911915D01*
X142944824Y-67978010D01*
X142952035Y-67988551D01*
X143008635Y-68081207D01*
X143137238Y-68291734D01*
X143143327Y-68302965D01*
X143296346Y-68623579D01*
X143301247Y-68635376D01*
X143420467Y-68970028D01*
X143424129Y-68982268D01*
X143508287Y-69327430D01*
X143510669Y-69339980D01*
X143558867Y-69691946D01*
X143559946Y-69704675D01*
X143571675Y-70059737D01*
X143571439Y-70072510D01*
X143546574Y-70426909D01*
X143545024Y-70439590D01*
X143483830Y-70789529D01*
X143480985Y-70801982D01*
X143384108Y-71143784D01*
X143379996Y-71155879D01*
X143248468Y-71485898D01*
X143243133Y-71497506D01*
X143078350Y-71812234D01*
X143071849Y-71823231D01*
X142875560Y-72119335D01*
X142867963Y-72129605D01*
X142642246Y-72403948D01*
X142633632Y-72413382D01*
X142591642Y-72454860D01*
X142530114Y-72487969D01*
X142460455Y-72482557D01*
X142404779Y-72440343D01*
X142380764Y-72374730D01*
X142380500Y-72366643D01*
X142380500Y-72265317D01*
X142380499Y-72265302D01*
X142379359Y-72250819D01*
X142377643Y-72229007D01*
X142373514Y-72214796D01*
X142332495Y-72073609D01*
X142332494Y-72073606D01*
X142332494Y-72073605D01*
X142250117Y-71934313D01*
X142250115Y-71934311D01*
X142250112Y-71934307D01*
X142135692Y-71819887D01*
X142135684Y-71819881D01*
X142093805Y-71795114D01*
X142046122Y-71744045D01*
X142033618Y-71675303D01*
X142060263Y-71610714D01*
X142069236Y-71600709D01*
X142168081Y-71501865D01*
X142251744Y-71360398D01*
X142297598Y-71202569D01*
X142300500Y-71165694D01*
X142300500Y-70734306D01*
X142297598Y-70697431D01*
X142251744Y-70539602D01*
X142168081Y-70398135D01*
X142168079Y-70398133D01*
X142168076Y-70398129D01*
X142051870Y-70281923D01*
X142051862Y-70281917D01*
X141910396Y-70198255D01*
X141910393Y-70198254D01*
X141752573Y-70152402D01*
X141752567Y-70152401D01*
X141715701Y-70149500D01*
X141715694Y-70149500D01*
X140559306Y-70149500D01*
X140559298Y-70149500D01*
X140522432Y-70152401D01*
X140522426Y-70152402D01*
X140364606Y-70198254D01*
X140364603Y-70198255D01*
X140216420Y-70285890D01*
X140215345Y-70284073D01*
X140160448Y-70305620D01*
X140091932Y-70291931D01*
X140041694Y-70243373D01*
X140025500Y-70182104D01*
X140025500Y-69817895D01*
X140045185Y-69750856D01*
X140097989Y-69705101D01*
X140167147Y-69695157D01*
X140215496Y-69715671D01*
X140216420Y-69714110D01*
X140257034Y-69738128D01*
X140364602Y-69801744D01*
X140406224Y-69813836D01*
X140522426Y-69847597D01*
X140522429Y-69847597D01*
X140522431Y-69847598D01*
X140559306Y-69850500D01*
X140559314Y-69850500D01*
X141715686Y-69850500D01*
X141715694Y-69850500D01*
X141752569Y-69847598D01*
X141752571Y-69847597D01*
X141752573Y-69847597D01*
X141854806Y-69817895D01*
X141910398Y-69801744D01*
X142051865Y-69718081D01*
X142168081Y-69601865D01*
X142251744Y-69460398D01*
X142297598Y-69302569D01*
X142300500Y-69265694D01*
X142300500Y-68834306D01*
X142297598Y-68797431D01*
X142294837Y-68787928D01*
X142251745Y-68639606D01*
X142251744Y-68639603D01*
X142251744Y-68639602D01*
X142168081Y-68498135D01*
X142168079Y-68498133D01*
X142168076Y-68498129D01*
X142122980Y-68453033D01*
X142089495Y-68391710D01*
X142094479Y-68322018D01*
X142136351Y-68266085D01*
X142188354Y-68245215D01*
X142188078Y-68244095D01*
X142355291Y-68202881D01*
X142355291Y-68202880D01*
X142355295Y-68202880D01*
X142501148Y-68126330D01*
X142624444Y-68017100D01*
X142693773Y-67916659D01*
X142748054Y-67872670D01*
X142817503Y-67865010D01*
X142880068Y-67896113D01*
G37*
%TD.AperFunction*%
%TA.AperFunction,Conductor*%
G36*
X150656407Y-71248423D02*
G01*
X150715077Y-71286365D01*
X150740209Y-71332703D01*
X150748255Y-71360396D01*
X150748256Y-71360398D01*
X150785681Y-71423681D01*
X150831917Y-71501862D01*
X150831923Y-71501870D01*
X150857986Y-71527933D01*
X150891471Y-71589256D01*
X150886487Y-71658948D01*
X150855610Y-71701040D01*
X150857918Y-71703348D01*
X150738869Y-71822396D01*
X150738863Y-71822404D01*
X150657131Y-71960606D01*
X150657129Y-71960611D01*
X150612335Y-72114791D01*
X150612334Y-72114797D01*
X150609500Y-72150811D01*
X150609500Y-72356765D01*
X150589815Y-72423804D01*
X150537011Y-72469559D01*
X150467853Y-72479503D01*
X150404297Y-72450478D01*
X150398358Y-72444982D01*
X150366372Y-72413386D01*
X150357759Y-72403953D01*
X150132036Y-72129605D01*
X150124438Y-72119334D01*
X149928149Y-71823230D01*
X149921648Y-71812233D01*
X149914569Y-71798713D01*
X149756866Y-71497504D01*
X149751534Y-71485900D01*
X149730274Y-71432558D01*
X149723739Y-71362995D01*
X149755850Y-71300942D01*
X149816413Y-71266100D01*
X149880055Y-71267571D01*
X149914796Y-71277665D01*
X149950819Y-71280500D01*
X150449180Y-71280499D01*
X150485204Y-71277665D01*
X150586540Y-71248224D01*
X150656407Y-71248423D01*
G37*
%TD.AperFunction*%
%TA.AperFunction,Conductor*%
G36*
X137553277Y-67495355D02*
G01*
X137611133Y-67534527D01*
X137638626Y-67598761D01*
X137639500Y-67613460D01*
X137639500Y-67734697D01*
X137642356Y-67770991D01*
X137642357Y-67770997D01*
X137687504Y-67926390D01*
X137687505Y-67926393D01*
X137769881Y-68065684D01*
X137769887Y-68065692D01*
X137884307Y-68180112D01*
X137884316Y-68180119D01*
X137913626Y-68197453D01*
X137961310Y-68248522D01*
X137973813Y-68317264D01*
X137947167Y-68381853D01*
X137938187Y-68391866D01*
X137831920Y-68498133D01*
X137831917Y-68498137D01*
X137748255Y-68639603D01*
X137748253Y-68639606D01*
X137740210Y-68667294D01*
X137702604Y-68726180D01*
X137639131Y-68755386D01*
X137586539Y-68751775D01*
X137485208Y-68722335D01*
X137485202Y-68722334D01*
X137449181Y-68719500D01*
X136950830Y-68719500D01*
X136950808Y-68719501D01*
X136914794Y-68722335D01*
X136882245Y-68731791D01*
X136812376Y-68731590D01*
X136753707Y-68693647D01*
X136724865Y-68630008D01*
X136734877Y-68561162D01*
X136829055Y-68355145D01*
X136834946Y-68343835D01*
X137015127Y-68037608D01*
X137022138Y-68026985D01*
X137232868Y-67740924D01*
X137240952Y-67731059D01*
X137423762Y-67530033D01*
X137483428Y-67493679D01*
X137553277Y-67495355D01*
G37*
%TD.AperFunction*%
%TA.AperFunction,Conductor*%
G36*
X150555225Y-67497578D02*
G01*
X150612425Y-67537702D01*
X150638852Y-67602381D01*
X150639500Y-67615043D01*
X150639500Y-67834697D01*
X150642356Y-67870991D01*
X150642357Y-67870997D01*
X150687504Y-68026390D01*
X150687505Y-68026393D01*
X150687506Y-68026395D01*
X150710743Y-68065687D01*
X150769881Y-68165684D01*
X150769887Y-68165692D01*
X150879443Y-68275248D01*
X150912928Y-68336571D01*
X150907944Y-68406263D01*
X150879443Y-68450610D01*
X150831923Y-68498129D01*
X150831917Y-68498137D01*
X150748255Y-68639603D01*
X150748253Y-68639606D01*
X150740210Y-68667294D01*
X150702604Y-68726180D01*
X150639131Y-68755386D01*
X150586539Y-68751775D01*
X150485208Y-68722335D01*
X150485202Y-68722334D01*
X150449181Y-68719500D01*
X149950830Y-68719500D01*
X149950808Y-68719501D01*
X149914796Y-68722335D01*
X149880602Y-68732269D01*
X149810733Y-68732068D01*
X149752064Y-68694126D01*
X149723221Y-68630487D01*
X149733363Y-68561357D01*
X149734101Y-68559782D01*
X149740075Y-68547266D01*
X149856680Y-68302949D01*
X149862762Y-68291734D01*
X150047969Y-67988542D01*
X150055161Y-67978028D01*
X150270590Y-67695489D01*
X150278814Y-67685783D01*
X150425156Y-67530108D01*
X150485413Y-67494749D01*
X150555225Y-67497578D01*
G37*
%TD.AperFunction*%
%TA.AperFunction,Conductor*%
G36*
X153207119Y-66433834D02*
G01*
X153219865Y-66434597D01*
X153572935Y-66474069D01*
X153585509Y-66476135D01*
X153932662Y-66551727D01*
X153944970Y-66555080D01*
X154036895Y-66585285D01*
X154094437Y-66624912D01*
X154121422Y-66689360D01*
X154109280Y-66758166D01*
X154061866Y-66809486D01*
X153994233Y-66827024D01*
X153963590Y-66822164D01*
X153860991Y-66792356D01*
X153824697Y-66789500D01*
X153824690Y-66789500D01*
X153415310Y-66789500D01*
X153415302Y-66789500D01*
X153379008Y-66792356D01*
X153379002Y-66792357D01*
X153223609Y-66837504D01*
X153223606Y-66837505D01*
X153084315Y-66919881D01*
X153078147Y-66924666D01*
X153076541Y-66922596D01*
X153026358Y-66949999D01*
X152956666Y-66945015D01*
X152922901Y-66923314D01*
X152921853Y-66924666D01*
X152915684Y-66919881D01*
X152776393Y-66837505D01*
X152776390Y-66837504D01*
X152620997Y-66792357D01*
X152620991Y-66792356D01*
X152584697Y-66789500D01*
X152584690Y-66789500D01*
X152175310Y-66789500D01*
X152175302Y-66789500D01*
X152139008Y-66792356D01*
X152082154Y-66808874D01*
X152012284Y-66808674D01*
X151953615Y-66770731D01*
X151924772Y-66707092D01*
X151934914Y-66637963D01*
X151980820Y-66585290D01*
X152010799Y-66571372D01*
X152112103Y-66539930D01*
X152124456Y-66536784D01*
X152472808Y-66466939D01*
X152485421Y-66465080D01*
X152839112Y-66431449D01*
X152851842Y-66430897D01*
X153207119Y-66433834D01*
G37*
%TD.AperFunction*%
%TA.AperFunction,Conductor*%
G36*
X140160887Y-66431449D02*
G01*
X140285906Y-66443337D01*
X140350781Y-66469280D01*
X140391331Y-66526178D01*
X140394683Y-66595967D01*
X140359772Y-66656490D01*
X140297682Y-66688530D01*
X140283896Y-66690398D01*
X140259008Y-66692356D01*
X140259002Y-66692357D01*
X140103609Y-66737504D01*
X140103608Y-66737504D01*
X140003120Y-66796932D01*
X139935396Y-66814114D01*
X139876880Y-66796932D01*
X139811329Y-66758166D01*
X139776395Y-66737506D01*
X139776393Y-66737505D01*
X139776391Y-66737504D01*
X139776390Y-66737503D01*
X139621026Y-66692366D01*
X139562140Y-66654760D01*
X139532934Y-66591287D01*
X139542680Y-66522101D01*
X139588284Y-66469166D01*
X139641842Y-66450058D01*
X139780136Y-66434597D01*
X139792880Y-66433834D01*
X140148157Y-66430897D01*
X140160887Y-66431449D01*
G37*
%TD.AperFunction*%
%TD*%
M02*
